<mxfile host="65bd71144e">
    <diagram id="vUolHXf0aURw7qLC5QnV" name="Page-1">
        <mxGraphModel dx="1945" dy="701" grid="1" gridSize="10" guides="1" tooltips="1" connect="1" arrows="1" fold="1" page="1" pageScale="1" pageWidth="827" pageHeight="1169" math="0" shadow="0">
            <root>
                <mxCell id="0"/>
                <mxCell id="1" parent="0"/>
                <mxCell id="16" style="edgeStyle=orthogonalEdgeStyle;html=1;exitX=0.5;exitY=1;exitDx=0;exitDy=0;entryX=1;entryY=0.5;entryDx=0;entryDy=0;rounded=0;" parent="1" source="2" target="3" edge="1">
                    <mxGeometry relative="1" as="geometry"/>
                </mxCell>
                <mxCell id="33" style="edgeStyle=orthogonalEdgeStyle;rounded=0;html=1;exitX=0;exitY=0.5;exitDx=0;exitDy=0;entryX=0;entryY=0.25;entryDx=0;entryDy=0;entryPerimeter=0;endArrow=none;endFill=0;" parent="1" source="2" target="30" edge="1">
                    <mxGeometry relative="1" as="geometry"/>
                </mxCell>
                <mxCell id="34" style="edgeStyle=orthogonalEdgeStyle;rounded=0;html=1;exitX=0;exitY=0.5;exitDx=0;exitDy=0;entryX=0;entryY=0.25;entryDx=0;entryDy=0;entryPerimeter=0;endArrow=none;endFill=0;" parent="1" source="2" target="28" edge="1">
                    <mxGeometry relative="1" as="geometry"/>
                </mxCell>
                <mxCell id="35" style="edgeStyle=orthogonalEdgeStyle;rounded=0;html=1;exitX=0;exitY=0.5;exitDx=0;exitDy=0;entryX=0;entryY=0.25;entryDx=0;entryDy=0;entryPerimeter=0;endArrow=none;endFill=0;" parent="1" source="2" target="26" edge="1">
                    <mxGeometry relative="1" as="geometry"/>
                </mxCell>
                <mxCell id="36" style="edgeStyle=orthogonalEdgeStyle;rounded=0;html=1;exitX=0;exitY=0.5;exitDx=0;exitDy=0;entryX=0;entryY=0.25;entryDx=0;entryDy=0;entryPerimeter=0;endArrow=none;endFill=0;" parent="1" source="2" target="24" edge="1">
                    <mxGeometry relative="1" as="geometry"/>
                </mxCell>
                <mxCell id="2" value="M" style="text;html=1;strokeColor=none;fillColor=none;align=center;verticalAlign=middle;whiteSpace=wrap;rounded=0;" parent="1" vertex="1">
                    <mxGeometry x="500" y="140" width="40" height="30" as="geometry"/>
                </mxCell>
                <mxCell id="9" style="edgeStyle=none;html=1;exitX=0;exitY=0.5;exitDx=0;exitDy=0;" parent="1" source="3" target="4" edge="1">
                    <mxGeometry relative="1" as="geometry"/>
                </mxCell>
                <mxCell id="15" style="edgeStyle=none;html=1;exitX=0.5;exitY=1;exitDx=0;exitDy=0;" parent="1" source="3" edge="1">
                    <mxGeometry relative="1" as="geometry">
                        <mxPoint x="440" y="440" as="targetPoint"/>
                    </mxGeometry>
                </mxCell>
                <mxCell id="3" value="Full Adder" style="whiteSpace=wrap;html=1;aspect=fixed;" parent="1" vertex="1">
                    <mxGeometry x="400" y="310" width="80" height="80" as="geometry"/>
                </mxCell>
                <mxCell id="10" style="edgeStyle=none;html=1;exitX=0;exitY=0.5;exitDx=0;exitDy=0;entryX=1;entryY=0.5;entryDx=0;entryDy=0;" parent="1" source="4" target="7" edge="1">
                    <mxGeometry relative="1" as="geometry"/>
                </mxCell>
                <mxCell id="14" style="edgeStyle=none;html=1;exitX=0.5;exitY=1;exitDx=0;exitDy=0;" parent="1" source="4" edge="1">
                    <mxGeometry relative="1" as="geometry">
                        <mxPoint x="280" y="440" as="targetPoint"/>
                    </mxGeometry>
                </mxCell>
                <mxCell id="4" value="Full Adder" style="whiteSpace=wrap;html=1;aspect=fixed;" parent="1" vertex="1">
                    <mxGeometry x="240" y="310" width="80" height="80" as="geometry"/>
                </mxCell>
                <mxCell id="11" style="edgeStyle=none;html=1;exitX=0;exitY=0.5;exitDx=0;exitDy=0;entryX=1;entryY=0.5;entryDx=0;entryDy=0;" parent="1" source="7" target="8" edge="1">
                    <mxGeometry relative="1" as="geometry"/>
                </mxCell>
                <mxCell id="13" style="edgeStyle=none;html=1;exitX=0.5;exitY=1;exitDx=0;exitDy=0;" parent="1" source="7" edge="1">
                    <mxGeometry relative="1" as="geometry">
                        <mxPoint x="120" y="440" as="targetPoint"/>
                    </mxGeometry>
                </mxCell>
                <mxCell id="7" value="Full Adder" style="whiteSpace=wrap;html=1;aspect=fixed;" parent="1" vertex="1">
                    <mxGeometry x="80" y="310" width="80" height="80" as="geometry"/>
                </mxCell>
                <mxCell id="12" style="edgeStyle=none;html=1;exitX=0.5;exitY=1;exitDx=0;exitDy=0;" parent="1" source="8" edge="1">
                    <mxGeometry relative="1" as="geometry">
                        <mxPoint x="-40" y="440" as="targetPoint"/>
                    </mxGeometry>
                </mxCell>
                <mxCell id="44" style="edgeStyle=orthogonalEdgeStyle;rounded=0;html=1;exitX=0;exitY=0.5;exitDx=0;exitDy=0;endArrow=classic;endFill=1;" parent="1" source="8" target="41" edge="1">
                    <mxGeometry relative="1" as="geometry"/>
                </mxCell>
                <mxCell id="8" value="Full Adder" style="whiteSpace=wrap;html=1;aspect=fixed;" parent="1" vertex="1">
                    <mxGeometry x="-80" y="310" width="80" height="80" as="geometry"/>
                </mxCell>
                <mxCell id="25" style="edgeStyle=orthogonalEdgeStyle;rounded=0;html=1;exitX=1;exitY=0.5;exitDx=0;exitDy=0;exitPerimeter=0;entryX=0.25;entryY=0;entryDx=0;entryDy=0;" parent="1" source="24" target="8" edge="1">
                    <mxGeometry relative="1" as="geometry"/>
                </mxCell>
                <mxCell id="24" value="" style="verticalLabelPosition=bottom;shadow=0;dashed=0;align=center;html=1;verticalAlign=top;shape=mxgraph.electrical.logic_gates.logic_gate;operation=xor;rotation=90;" parent="1" vertex="1">
                    <mxGeometry x="-110" y="200" width="100" height="60" as="geometry"/>
                </mxCell>
                <mxCell id="27" style="edgeStyle=orthogonalEdgeStyle;rounded=0;html=1;exitX=1;exitY=0.5;exitDx=0;exitDy=0;exitPerimeter=0;entryX=0.25;entryY=0;entryDx=0;entryDy=0;" parent="1" source="26" target="7" edge="1">
                    <mxGeometry relative="1" as="geometry"/>
                </mxCell>
                <mxCell id="26" value="" style="verticalLabelPosition=bottom;shadow=0;dashed=0;align=center;html=1;verticalAlign=top;shape=mxgraph.electrical.logic_gates.logic_gate;operation=xor;rotation=90;" parent="1" vertex="1">
                    <mxGeometry x="50" y="200" width="100" height="60" as="geometry"/>
                </mxCell>
                <mxCell id="29" style="edgeStyle=orthogonalEdgeStyle;rounded=0;html=1;exitX=1;exitY=0.5;exitDx=0;exitDy=0;exitPerimeter=0;entryX=0.25;entryY=0;entryDx=0;entryDy=0;" parent="1" source="28" target="4" edge="1">
                    <mxGeometry relative="1" as="geometry"/>
                </mxCell>
                <mxCell id="28" value="" style="verticalLabelPosition=bottom;shadow=0;dashed=0;align=center;html=1;verticalAlign=top;shape=mxgraph.electrical.logic_gates.logic_gate;operation=xor;rotation=90;" parent="1" vertex="1">
                    <mxGeometry x="210" y="200" width="100" height="60" as="geometry"/>
                </mxCell>
                <mxCell id="31" style="edgeStyle=orthogonalEdgeStyle;rounded=0;html=1;exitX=1;exitY=0.5;exitDx=0;exitDy=0;exitPerimeter=0;entryX=0.25;entryY=0;entryDx=0;entryDy=0;" parent="1" source="30" target="3" edge="1">
                    <mxGeometry relative="1" as="geometry"/>
                </mxCell>
                <mxCell id="30" value="" style="verticalLabelPosition=bottom;shadow=0;dashed=0;align=center;html=1;verticalAlign=top;shape=mxgraph.electrical.logic_gates.logic_gate;operation=xor;rotation=90;" parent="1" vertex="1">
                    <mxGeometry x="370" y="200" width="100" height="60" as="geometry"/>
                </mxCell>
                <mxCell id="37" value="C&lt;sub&gt;in&lt;/sub&gt;" style="text;html=1;align=center;verticalAlign=middle;resizable=0;points=[];autosize=1;strokeColor=none;fillColor=none;" parent="1" vertex="1">
                    <mxGeometry x="160" y="320" width="30" height="20" as="geometry"/>
                </mxCell>
                <mxCell id="38" value="C&lt;sub&gt;in&lt;/sub&gt;" style="text;html=1;align=center;verticalAlign=middle;resizable=0;points=[];autosize=1;strokeColor=none;fillColor=none;" parent="1" vertex="1">
                    <mxGeometry x="320" y="320" width="30" height="20" as="geometry"/>
                </mxCell>
                <mxCell id="39" value="C&lt;sub&gt;in&lt;/sub&gt;" style="text;html=1;align=center;verticalAlign=middle;resizable=0;points=[];autosize=1;strokeColor=none;fillColor=none;" parent="1" vertex="1">
                    <mxGeometry x="480" y="320" width="30" height="20" as="geometry"/>
                </mxCell>
                <mxCell id="40" value="C&lt;sub&gt;in&lt;/sub&gt;" style="text;html=1;align=center;verticalAlign=middle;resizable=0;points=[];autosize=1;strokeColor=none;fillColor=none;" parent="1" vertex="1">
                    <mxGeometry y="320" width="30" height="20" as="geometry"/>
                </mxCell>
                <mxCell id="41" value="C&lt;span style=&quot;font-size: 10px&quot;&gt;&lt;sub&gt;out&lt;/sub&gt;&lt;/span&gt;" style="text;html=1;align=center;verticalAlign=middle;resizable=0;points=[];autosize=1;strokeColor=none;fillColor=none;" parent="1" vertex="1">
                    <mxGeometry x="-150" y="340" width="30" height="20" as="geometry"/>
                </mxCell>
                <mxCell id="45" value="C&lt;span style=&quot;font-size: 10px&quot;&gt;&lt;sub&gt;out&lt;/sub&gt;&lt;/span&gt;" style="text;html=1;align=center;verticalAlign=middle;resizable=0;points=[];autosize=1;strokeColor=none;fillColor=none;" parent="1" vertex="1">
                    <mxGeometry x="50" y="320" width="30" height="20" as="geometry"/>
                </mxCell>
                <mxCell id="46" value="C&lt;span style=&quot;font-size: 10px&quot;&gt;&lt;sub&gt;out&lt;/sub&gt;&lt;/span&gt;" style="text;html=1;align=center;verticalAlign=middle;resizable=0;points=[];autosize=1;strokeColor=none;fillColor=none;" parent="1" vertex="1">
                    <mxGeometry x="210" y="320" width="30" height="20" as="geometry"/>
                </mxCell>
                <mxCell id="47" value="C&lt;span style=&quot;font-size: 10px&quot;&gt;&lt;sub&gt;out&lt;/sub&gt;&lt;/span&gt;" style="text;html=1;align=center;verticalAlign=middle;resizable=0;points=[];autosize=1;strokeColor=none;fillColor=none;" parent="1" vertex="1">
                    <mxGeometry x="370" y="320" width="30" height="20" as="geometry"/>
                </mxCell>
                <mxCell id="48" value="S&lt;sub&gt;3&lt;/sub&gt;" style="text;html=1;align=center;verticalAlign=middle;resizable=0;points=[];autosize=1;strokeColor=none;fillColor=none;" parent="1" vertex="1">
                    <mxGeometry x="-55" y="440" width="30" height="20" as="geometry"/>
                </mxCell>
                <mxCell id="49" value="S&lt;span style=&quot;font-size: 10px&quot;&gt;&lt;sub&gt;2&lt;/sub&gt;&lt;/span&gt;" style="text;html=1;align=center;verticalAlign=middle;resizable=0;points=[];autosize=1;strokeColor=none;fillColor=none;" parent="1" vertex="1">
                    <mxGeometry x="105" y="440" width="30" height="20" as="geometry"/>
                </mxCell>
                <mxCell id="50" value="S&lt;sub&gt;1&lt;/sub&gt;" style="text;html=1;align=center;verticalAlign=middle;resizable=0;points=[];autosize=1;strokeColor=none;fillColor=none;" parent="1" vertex="1">
                    <mxGeometry x="265" y="440" width="30" height="20" as="geometry"/>
                </mxCell>
                <mxCell id="51" value="S&lt;span style=&quot;font-size: 10px&quot;&gt;&lt;sub&gt;0&lt;/sub&gt;&lt;/span&gt;" style="text;html=1;align=center;verticalAlign=middle;resizable=0;points=[];autosize=1;strokeColor=none;fillColor=none;" parent="1" vertex="1">
                    <mxGeometry x="425" y="440" width="30" height="20" as="geometry"/>
                </mxCell>
                <mxCell id="54" style="edgeStyle=orthogonalEdgeStyle;rounded=0;html=1;entryX=0.75;entryY=0;entryDx=0;entryDy=0;endArrow=classic;endFill=1;" parent="1" source="52" target="8" edge="1">
                    <mxGeometry relative="1" as="geometry"/>
                </mxCell>
                <mxCell id="52" value="A&lt;sub&gt;3&lt;/sub&gt;" style="text;html=1;align=center;verticalAlign=middle;resizable=0;points=[];autosize=1;strokeColor=none;fillColor=none;" parent="1" vertex="1">
                    <mxGeometry x="-40" y="250" width="30" height="20" as="geometry"/>
                </mxCell>
                <mxCell id="56" style="edgeStyle=orthogonalEdgeStyle;rounded=0;html=1;entryX=0.75;entryY=0;entryDx=0;entryDy=0;endArrow=classic;endFill=1;" parent="1" source="55" target="7" edge="1">
                    <mxGeometry relative="1" as="geometry"/>
                </mxCell>
                <mxCell id="55" value="A&lt;span style=&quot;font-size: 10px&quot;&gt;&lt;sub&gt;2&lt;/sub&gt;&lt;/span&gt;" style="text;html=1;align=center;verticalAlign=middle;resizable=0;points=[];autosize=1;strokeColor=none;fillColor=none;" parent="1" vertex="1">
                    <mxGeometry x="120" y="250" width="30" height="20" as="geometry"/>
                </mxCell>
                <mxCell id="58" style="edgeStyle=orthogonalEdgeStyle;rounded=0;html=1;entryX=0.75;entryY=0;entryDx=0;entryDy=0;endArrow=classic;endFill=1;" parent="1" source="57" target="4" edge="1">
                    <mxGeometry relative="1" as="geometry"/>
                </mxCell>
                <mxCell id="57" value="A&lt;span style=&quot;font-size: 8.33333px&quot;&gt;&lt;sub&gt;1&lt;/sub&gt;&lt;/span&gt;" style="text;html=1;align=center;verticalAlign=middle;resizable=0;points=[];autosize=1;strokeColor=none;fillColor=none;" parent="1" vertex="1">
                    <mxGeometry x="280" y="250" width="30" height="20" as="geometry"/>
                </mxCell>
                <mxCell id="60" style="edgeStyle=orthogonalEdgeStyle;rounded=0;html=1;entryX=0.75;entryY=0;entryDx=0;entryDy=0;endArrow=classic;endFill=1;" parent="1" source="59" target="3" edge="1">
                    <mxGeometry relative="1" as="geometry"/>
                </mxCell>
                <mxCell id="59" value="A&lt;sub&gt;0&lt;/sub&gt;" style="text;html=1;align=center;verticalAlign=middle;resizable=0;points=[];autosize=1;strokeColor=none;fillColor=none;" parent="1" vertex="1">
                    <mxGeometry x="440" y="250" width="30" height="20" as="geometry"/>
                </mxCell>
                <mxCell id="65" style="edgeStyle=orthogonalEdgeStyle;rounded=0;html=1;entryX=0;entryY=0.75;entryDx=0;entryDy=0;entryPerimeter=0;endArrow=none;endFill=0;" parent="1" source="61" target="24" edge="1">
                    <mxGeometry relative="1" as="geometry"/>
                </mxCell>
                <mxCell id="61" value="&lt;sub&gt;&lt;span style=&quot;font-size: 12px&quot;&gt;B&lt;sub&gt;3&lt;/sub&gt;&lt;/span&gt;&lt;/sub&gt;" style="text;html=1;align=center;verticalAlign=middle;resizable=0;points=[];autosize=1;strokeColor=none;fillColor=none;" parent="1" vertex="1">
                    <mxGeometry x="-96" y="105" width="30" height="30" as="geometry"/>
                </mxCell>
                <mxCell id="66" style="edgeStyle=orthogonalEdgeStyle;rounded=0;html=1;entryX=0;entryY=0.75;entryDx=0;entryDy=0;entryPerimeter=0;endArrow=none;endFill=0;" parent="1" source="62" target="26" edge="1">
                    <mxGeometry relative="1" as="geometry">
                        <Array as="points">
                            <mxPoint x="79" y="158"/>
                            <mxPoint x="85" y="158"/>
                        </Array>
                    </mxGeometry>
                </mxCell>
                <mxCell id="62" value="&lt;sub&gt;&lt;span style=&quot;font-size: 12px&quot;&gt;B&lt;sub&gt;2&lt;/sub&gt;&lt;/span&gt;&lt;/sub&gt;" style="text;html=1;align=center;verticalAlign=middle;resizable=0;points=[];autosize=1;strokeColor=none;fillColor=none;" parent="1" vertex="1">
                    <mxGeometry x="64" y="105" width="30" height="30" as="geometry"/>
                </mxCell>
                <mxCell id="67" style="edgeStyle=orthogonalEdgeStyle;rounded=0;html=1;entryX=0;entryY=0.75;entryDx=0;entryDy=0;entryPerimeter=0;endArrow=none;endFill=0;" parent="1" source="63" target="28" edge="1">
                    <mxGeometry relative="1" as="geometry">
                        <Array as="points">
                            <mxPoint x="239" y="160"/>
                            <mxPoint x="245" y="160"/>
                        </Array>
                    </mxGeometry>
                </mxCell>
                <mxCell id="63" value="&lt;sub&gt;&lt;span style=&quot;font-size: 12px&quot;&gt;B&lt;/span&gt;&lt;span style=&quot;font-size: 8.33333px&quot;&gt;1&lt;/span&gt;&lt;/sub&gt;" style="text;html=1;align=center;verticalAlign=middle;resizable=0;points=[];autosize=1;strokeColor=none;fillColor=none;" parent="1" vertex="1">
                    <mxGeometry x="224" y="110" width="30" height="20" as="geometry"/>
                </mxCell>
                <mxCell id="68" style="edgeStyle=orthogonalEdgeStyle;rounded=0;html=1;entryX=0;entryY=0.75;entryDx=0;entryDy=0;entryPerimeter=0;endArrow=none;endFill=0;" parent="1" source="64" target="30" edge="1">
                    <mxGeometry relative="1" as="geometry"/>
                </mxCell>
                <mxCell id="64" value="&lt;sub&gt;&lt;span style=&quot;font-size: 12px&quot;&gt;B&lt;sub&gt;0&lt;/sub&gt;&lt;/span&gt;&lt;/sub&gt;" style="text;html=1;align=center;verticalAlign=middle;resizable=0;points=[];autosize=1;strokeColor=none;fillColor=none;" parent="1" vertex="1">
                    <mxGeometry x="384" y="105" width="30" height="30" as="geometry"/>
                </mxCell>
                <mxCell id="69" value="2-bit Adder/Subtractor" style="text;html=1;align=center;verticalAlign=middle;resizable=0;points=[];autosize=1;strokeColor=none;fillColor=none;" parent="1" vertex="1">
                    <mxGeometry x="195" y="60" width="130" height="20" as="geometry"/>
                </mxCell>
                <mxCell id="70" value="Daria Bernice Calitis&lt;br&gt;TEJ3M&lt;br&gt;Unit4-20" style="text;html=1;align=center;verticalAlign=middle;resizable=0;points=[];autosize=1;strokeColor=none;fillColor=none;fontSize=11;fontFamily=Helvetica;fontColor=default;" parent="1" vertex="1">
                    <mxGeometry x="-120" y="50" width="110" height="40" as="geometry"/>
                </mxCell>
                <mxCell id="72" value="" style="shape=image;verticalLabelPosition=bottom;labelBackgroundColor=#ffffff;verticalAlign=top;aspect=fixed;imageAspect=0;image=data:image/png,iVBORw0KGgoAAAANSUhEUgAAAXUAAAIkCAIAAABupSxQAAAgAElEQVR4nOx9d3hU15n+uf3e6V0aadR7LwghAaJ3MB0bGxM7brGTbH6Jsylb0jZx2maTTZzE69ixsQE3MBhc6IiqAuq9d2lGbTR97tz6+2MwxjZoRkLC3o3eh0eP0HPO+U757nfa970HEkURAOD/OYc5zGEOMwgUAMCyrMPhEAThi67MHP5RIIqiKIoQBEEQNFMpbwu/VsMwHGTiaQuakqy7bNTn5c5UUTMIURRhGEb9v/E8L5PJghyGOczhLsHzvMfjIQgCx/HJUzIM4/P5cBwnCGKqUgRBcLvdMAxLpdKAiUVRdDqdOI6TJDlVQX5ZLpcLRVGKogJ+6izLer1egiCm0ajPy3U6nRRFYRh2l0XNLBiGoWka9f8HQRAcx1EU/WLrNId/ELAsyzAMhmEBP2YIgkRRJAhiGp89z/Mcx8EwTBBEwG9eEISbhmwaawGe51mWRVGUIIiA8zQMw4IgTK9Rn5fr9XqnZ39nGzzPzy1Y5jCHOcwWPr1gET1DrVePv3GqwwMAABCCKwxRaXkLF8+LgsYbTxw8Xmdlb6RECHVUZlFBKj5Uer56WBK75P7tC8MozNFbW3zieMWYdl5RQbzUfOV8WceI96as0JSCJYvT6frT58q73CKAYIRUGuIz8ouKCmKpifrLHx093eD4+KAZlRtSCpYXhHmunzhTO0KLAAAYlahCErIKFi3IjNZJP28aeZa2jVjsHKmRIaONF863sfFL7luWIEcgAADgaFd39eVrzaMh85cXpEXIbm9aWdtQa0nxtTFpwopV+eEy4jYTmegb7a4pfv9k5YCTv1lbSh2ft2J1UV6UZkaWqYJnrKeu9HJ5Q8+4ByiMcVn5BXmp0WrJTCwwRUfr1dMXa5xxCxfFwr1ldUOSxCVF2TGau51KARA9w939TqAMMWnF8caLxdUTVMKyJbkRWsmX62xgDvcKn9FXeqS77Mhrr3bps7KTjCjjHCs5d+5KpeWbTxeiNR/sf/UylLwoL0YOA4BQQOlyTQwPXzryyoEqMn08ZkHeljiuv+nyW3/54xlX5h6JEmgbjh8+0oMmZMboKAwCACPtTtdEf13xsbdODkdnp0cq+fHayyfOlrbYsH/brOwo/2D/gSp1em5KuBwGAGMJp8c91l/7wRuvX2Ej8rOjSZ62VV4qvni1Y++3Ht9SFCn/tNKKPD3RWXriwxY2ac2ShJHKM4fOelZGriyKkyPIJ4kgICIQmFTdIQggMLjzGhcCPMu4bBNWS29Pc01NjxiVlZudHGtwM9wMHZHT5oaT+//4lyO1XoneIENcF86ev1K1/atPbF+crKHueskpunurzx5+27LckBCRJMJAnKmPXxhvOffmm23KZbv3rlBaO66c/qBHtSI1Ky1SK5khCXP4X4bPzYcQQGUReesf+8GTSzWekaaz+/90pL68ti8zjQe4Ji5v1/d/sjUcAQDACE5Crr7TGEEppYizvbLesjkcGehq7bFTKt2NqZBUheeveubbW7P0UggACMMJYKurxyhDStGDTz21Ng3rvP7ef//ueE1l8/imBQCCFZHZ9z36va8uM0EAQDBGSkVzdSPAdQkLHvzBv24x8q6B68f/fvBEVXXrimRtW+XhD3tkKx59ckOiAoEE2tp8cv/zf/jrB71UXFXrmkLUARhHd8mBn7xd0SqY1u1+dEuB0drfUVvV447KSdD5rp0+dPjktW4XFr1gw+77ty5KUCEAAJGnncNt9ZV9SnTeonihs+rw/neKW0fx0KTl9+3cvGy+SYECgOui5217JmGdve30q/9l+YhftevJjfruM9dOn1QqVsby5YdeujIRuf6Rb64kq98++JE9af3mZaHdZ499cLbCzMqTC9ds3bouJxwZqD7/9sEjV7tt0oiM1Zt3blicESpFAQBAnGirPPXGGyV87sPPPrMzW+Ebai49c6XHah51jMkGms+8897ZmgGfJqFwy64dK9I0o9eOHSmuc1JKn6VvDIosWpQpH7587IolfOnuPRvzqa6PDp2tsiIKbmxohFYWbLz//vWR/tERecZh7qqrbVXAIVj/mdKqXkSu8PXUdYLYdWty4KGqS9XjpsJNu7csSVIyXdfPHjpyoqKPDp23ee/9axOhuiOHTrd7lGphrKtvXJOzfvvC0PaTf/v5i6ec0uJ+l21XPkagKIVhKDy3dvnHxe3X2xAEQUDkGM/YqNXNQlI5hSAwACKARABEEQAIQnCMhBAUQJRcFS5X2xtqasy5YT2tPYw2Kjrk5hwrAiCIQBQBgCFUghEiCvwLBBRBYUHw2uwegBuMYToIAgBAn4iAEBQhcRGBblYJiBxjG7faXCwpleIo5PG53D6IE/xbFAil9LEx8fGxYZA6f9n8DHVXm93c11DTmGdCHZfffoWVadWPq6zD/X198uG+FlvT/nfLxNQV2w0jZZfePYipjd/ckiABAIgsbR/u7+3zxI33NFx94+V3mjTrt26Fu8quvn9UoTVsXxQnARBKSNQGiVpi1yglGM4p9SGRJis4c7WtqSmKYysvl11yDeny1qbpGsprG5T63Orjpw8fuY4m5aRIxmuP7xu08d/YpC956aWTozGr1xb62q5deP+42qBdnxNJAgDcI4MdjR1i5PqV6zfMS5LAYnRMfNYSWhQ9PeVH//SXdwcU6cuLVG2X3v3Tf40Jz+yJG+2puHJxSJGSbeL7Sg/85/Wk5cuS1aD/9IEDGjW1EOqpuHJ5SLNo26J44fqZA68xEt1jUf4+FXjaPjLQ16eOsIUj3RVnzvhi8vPC4NGzr/2ytnbp4kTB3nn56Lv6aINX0nnorwfq0YRlC6iGCy+/yIl7lxKdVVfPdstyF6Vj/ODZY4cwcs+yiKhoncqWuKRoYbZJ0U1gGImhc5eS/8j4nH0RRd9o/eHfPHH89wgEIYQmtmjX019Zm6wa6Abu/rLX/3n5Wz+EAEQoQxfu+vY3dxUAgCrU4UlRbF1T+QeNGY1mlzE5zeAd9JflGGz48McPHPoPGAIAyOI3PfWvP3pEL3htrac/evL8yygMAK5KWf7o1zYXSGCzKHDD1R/84vHTv0EgAJPGtOVP/ejZxTgA7t6r+/55+cEfQgBCZSGZq/d8e0tRdmY4lvaLFQKEYBgCAQAgFFeEmyIiI0K9upTMlDjXME7qYwq2/9OPl/vel4/84Vqfedim8reRZxmXdWzUAqxe9ZoHf7T330Lk2OfvSUXW43YMWcZYD2zc8fh/PGPSyCn89vYYxajQCL1Wbu5r7+FFnyQ6TiMZ7Kqsp3scgi6JcvTUNLpDFj7z2NcKZb1ve3/7blN1RVKe0z5gGZex0rit/7Qt2qiWkdiNwn007XAypEqr1kpgf9MkSo2EsQx1VpZ3gsj1e5791mrFdQ3zu5eqrzfmyzWAUOrTF9+/Zx583jH4EZ1ctPuf4+r+OPSXEvPIuDMEkmjCsoo2bXsgYVAz3vBSe0tLd8ht2gAJKlNa0dbvLHa/MFR7iE5avuHRiM7XXjzROdzT08bW1Foladu2PfGA5pS7/bXKsjZTKiDlhozF93/1PlW/3vaXS2NOThkbHalXEInZGWnxholBHMcIHJuzL//I+Pz+CMLUCcu37N29TNN++v0rg7rla5YkG1VjgwBQoWkb7v/OE8vCEAChhNIYG0I6RgCEqTThmTLzO5dPHneSnsjMRUn2Cr99gaT62LWr7t+zLE1NwgCRGEzRergdImQRhds2P7RzcSw52lZ27J0Pn/sJQv78fghGVIlF63c/um1eKAIgQqaOTAxxt1QBKixz4+avfyXdevm9D67Y5i1Znp9uomAIwAT6mar7vYxu/IQJiVITGkbIrFKFmhI5IHx8OC0LTcje9VC35U8H//jowV8qohc99v0f/9PuQsOnTYwkOnPdnkdbe/573w93v0CG5W96/Pv/79Fl6YbbmRiMlISF65XXOlprPCQUl1xEeZuayi6MekR1kkkra/H4ILlSIZPJpFKNghD63XxI3pZHHu369Qt//c6OP8pjlu742j9/fXdBghYBAOAUIVOg9IjdbmdEgEOiyPMsw7kdLrvDjZBGrUaJYwqlXCVFXHa326OEUFwiUWrkUlYmkclxmUopJykpjgMRABHAOEopZHJKKqcUShKwNO2lkdu0ASclCoVaIReUcqmOUCqUCpKSICjGen201zHRefF//uXMKz9BIJaTpm9b5nICBJXJVXKJSkpKJRgCiQBAEAQABMEwDEEIiktlEpkEmbMv/8D4/McCIYQiLClv3dYFhVp+5C/vnv3gclHiBpkIAEwoQ2PmFc43wf50KGO1CgDAmMoUle5SHvnTh6WL1+5NS6BKKj4unZCrY7Ky5+capBAAAIIhdliAYFSqCktIzp6XrfOaVM6Oysaq1qYeNhrAhFwbl5JdUBABAAAQjKK0F4gAofQx6as27sKjJM7RP148e+ZadrIhW8u57S4OlipUUvxjDYaACESO8fkYRhDuHPHAA0weueLJX6544qeDVe+//NeXij/6ML9g/n2Jn+oNnic0KRv/df+mH9g6z72979ClK2cqFiQlGCJu42cAEZQiwqjlxy/XjasLtq3NVHT3Xim+1GlKWRUXk6w3X5CIw6MjoyMj3rGhcS8qiVYrJCHJO3/+9q5/HWk+dXDf+7WXi2vnx0VpQ3EAZIbwhOQ4sfTapXOXckOylJ7+2jNvHS5jVNFhHCp4bEODZofDMTw85BRUsWqlLMCdkkDTTrNlaNQsHbWMOGBCKpdTnsmzfBo4SWKakLiCjK8++MSGNIKjeUIlcVXur7762V4AAIYEjqF9PlGmy9zwkM6LacPVXzq/jDncM9xRNxFSZspatDzn+iuXTr13LWGDngeMtbvs7d/9qNp/VivTJWTnRrkEAACm1kdmpycQ1baI7LwkWVvJx4XQtsHrx174dbOBQiEAgDwiPT/dKHLe0baSQ6/6qg24a6S3sXHMkLUkPQp3VfDO/voPX/td73kZAAAm1LGZORka+oadgBFNfPaSovl1B8tPXsyPlsYPnXr5SJdi4zPf2ZqiQiAAIAihZBKMtzSVXS4jI+30nZrGuYfrThQf/7AeT8pPU0yIEmNkRLhB8ZljSNHZV/X2oVc/Gg5ZsjiJdUIKoylMp6BuN/MDABCC1IXrlbDPY8MMptQINSIj7F39oeviU5Iiw325OTWHSt959fmr5ER7L5q6ujCRrdz3s5dL6LiFeZFOGlWFhYZq5aS/cEiVnLduz66G3x9+7cedlyI18MTQEKPJ3LZ+SQ5hHBg4XPLOH9g6eV9VHZK+bnFWor63dvIx9jmGe0qO77PJR5qq4MiluRlxRPnkOT4NShsZMy+nqqm89txRrs7VO4glrt+Qw38+ISGXaRVcWfX5i5dSiGj75RMXRxQL9j6wWkHJpyJvDv93gPz0pz/leZ5hGJIkYVj0eZxunzR+3oLsRKMcl2mUOC8KsNSYHKkSPAwqpQSfz0f7fDQLMEV4fIxRRcl0Mbnz00I1cok0asm6dQkKxifg4ckZcSEU6xNgIPKMP4sPSPQx8UlGCU/7BIGnnS6vQBrSl2556OGdK2JIj8Ph9AIcF/2JfTwsCYlMiNFjQGJKzyvIjJRhEqVcgmICj+tiw7UYbXPA+oSMzBg1DkEAwDBMUAQK8xyPKAwmo1qmj07LyU3SwV6Xi5dGZeVkhEl5ntAk5hXOy0zQI+6BjuY2C2PI3vDg/ZvyY+QIAACIHEN7vEATnVpQmJMUqWfHelvaet1U1KJNO+5bnGGU3mKRBdbtdDFURG5+blK4AkJhUSBCY3OKluUlGqQoBIiInDWrlmVF6gwREUYN4R6xOIEub+2O3VuXZ8SEG0MU7uGe1o5BVpW4fNO2tfnJ+o+tFyoPjUnLTomUAZZmYGn0vBU79+y5b3F2QnRMXIRGtA93DzOG7PV79u5clKqHvC4voopOyU42SkTWR4Wl5GYnaQSHR5DGpKbqmb6mjjFpVIpRSpJh2Zt2bF+XbxJdTo4ITc3NilKhLKKKTkqL0VEopUvKyEwNwx0uhjRl5WXEq1Evg6ljUuflZaUkRmlEh6V3wCGLLbrvvmXp4ThNQ5rI1OzUSBnMeDkyIjkjLytOJaFYL03qIyMMMtrmhNWRqUmRaulnD7cEQWAYBkXRgF7tfh9cFEWn4VwuiiLLshAE4TgeTKCTz+dDEATDsGn474qiyDAMDMPBZL+bRn1eLk3TX0Lne47jOI6D/P3idDqVSuWXrYpzuEsI7rH6D/76+8O16tXf+fYDi6OVX3SFPgbLsi6XiyRJiqImT+nz+WiannZ8wM34o2DiAxwOB47jwQQQ3VbWzfijgEfaDMP4449mJD7AZrPJZLIvW3wATdNer3fu7G0Oc5jDbGFuwfJ/GRAhjyzY/nT4cjw0ST/nQzuHe45/OPsiCoLAsgLH3fwLjKJI0GtLf5gsz9/mdPNWIAgyvTDcmQWEEuqo9MKoL7YWt4GfEoTjOJZlJ0/p38Z/2cgH5hAkbpy/jI+PfwkpamYDjN3ef/Jk5zvveIeHAQC6efMyv/1teUxMkNmbmpqef/75+vr6yZMtW7bsBz/4gVw+d29yezgcjrq6urGxsYBHFTzPazSa1NRUnU43Vf28yc8QjHnyHwbDMIwgyPTOd/22EkUDuyzfJHOYkfNdf1FfNj9GlmURBPmE/0UmkyHIHW5fPweO4zweD4ZhAc/n/BBF0ev1MgyjUqkmSeYnEwqGFsQPP/kFAEAmkwWTHgDg4TjR4/H29jIDAxwAdESEnKImr9VNiKKIIIjZbO7o6Jg8ZUZGhlwuD7LYKcHfjXK5fPb0yel0iqI4q3xjgiDwPE/TdMAPjOd5QRAoilKpVP8I89//GfgP5qfJL4UgCM/zGIYFeWrtXw/7iYImSeYnEwqeLIfnef9WJfjDcx7HMQRBIYgHQPBfagctzl+3YL46GIZnifKH4zh/N87ex0/TNABgVkUQBOGfvQOuLCAIQlF02rRPc/ii4P/kv1xrqjnMYQ7/l3CbBYvAeazmvt5+K6KNiI4MU93JZfVWcN4JS3dzp5XQhcfEx2jumlSU8VqHuruHxpyMAAAEozip1pvCw0NVd2I/EUXGOdLf0z1gpUUAQTCCU3JtSJjJqJVgU7ChosB67WNDQ+Yxu4cVUYlSF2YKD7mj1KCKZL2OMcugZdTmYQEmUeqNYUadkkSDLFIUOJ/HTYsoRUkI9FPzt8h6bCPmQfOYw8sBQqIyGMNCdYqgSw5GOM+4bcPmoZFxh5eDcKkqJDzcqFPiX9CsxNoGO7v7hu0+ACMoTio0htDQEI2MRIKpj+i1dHeNuLGQyAi9cmoDKjgG27stnDIqKkwnwwEAos8+0t/bY7F5P2b8gTBKExEfY9TIsGDWWJxruK930E2aIiMMygAMxACIrHdisGfQg6rCI0IVZFASeK99wgukMhmFB3voMRv4vH0R6bG2E3/71e9ev65a/sj3v/ONdVm6QBUUfePt517+t289XxNTtP1bP//lAxmB6ZQnBWPtL9/3i1+8fqGXCAmVE4BjeVXUsj1f/+YDK+Juyzsniry18dwLz/301Uo21GiQYQIvkqa8jY8/89UNaQYkSAoSkXOPtF967+CbH5X2OziW5QAZunDnk08/tCZOOc1B4lzDtcVH3njrvbL2UZqHUYk2ceHGPQ/vXJ4aRiJB1Epg7YP1ly83ixHzFxWk6G4x3IJvovnC268dPFY14OYEUUCVqUu2PLJ3e36sFp8ZyhWRcQ3XnDn0xuGTdUNOluVZWJm8cvfXn7g/3/TF3HU7ao/8+kf/9UEHEhKikRCowphUtPGBXesXJxnlAY2qKFhrzxw626VYvXf3UiU1pRmQbnjvtz951Vb04x8/vTnLAAAQRxrO/uW5XxxupGVqjQyFAYQowgoe/t4zWxYmaYLpe6+l5uw773WF7Hr4gRVKbaDUnG3w2ivP/bldvfzrzz6yIEYX0CABwA6Vv7e/kdqwcXV2tDqICs0WPmtfRJGfGOjt6HFoktO1wkBzV19hqi4A5aPIjFu6qlrcUYtWxMPdtdUtG9Pnye5ewzFFeNb6B57alWNAekrf+/vfT3xwNnfBwrj0O+s2SqmSlyx7ZM+WNGqw6tRb+6+eO1WydE2yPlj7wnnGOq+dPHd9VFHwta+tioQGS4svdgwPmu3cdO0LP9J84fDrr1+ZiF318FfyTMhgfenlhsor1zNz4tSkrbfmWkWb2YHIjQnpORkxanqw4Xq7QxOfNz+RMDdeK613h5rkI5XvvnK0hkjv9eEPr82OujlgwkTr5VMflg6pNn3lG0ujhbaKkganfXh8pMddX1VvC5+3MD9e2l93ranPZ0yOk3r6OvodCIU7h4e9kujMRL1vqLHVIhpT5+elx+okt20dZx9rLz5zqckRuu7Jr+cb+ebSy1XWseERe5+1oqbFqs8uSAvDLQ0VzVY0OiNF4eioahwhlTLIPjjCqqITozDHUM+gUxmdnpudFKogZmTRgxLytFU79m4pNNDNl05+dPrN12FS9bUtqaK59Xpl/YAT6KIz8nLTIrQEPdbXVF3d1DPCUiEpeflZcYRcExrmlcmAu6/qXEu/A+CIe2yckUZlxKncA40tFig8szA/LULCjLbXVde397sgZWzG/Jy02NtrHKxKKlq8c9f6dC0BAQglVGFxRtQ+UFNT0dA9gWs1GOvx4pH5BZlY79XrXVxMQWGSRuirudbulifE60mVMcKokbhaz77bOa7KKspL1gJrc+W1HkaVkBgJRjvqGztHfUho0oLF82JuGR7eM9pVW1PV0D3KScOzChemGClz1fn6IV6qgm3DYz7ClJmbJB2veetvL7zSLB2yi089siY5XB2ESZoVfG79wtr6e5r6POqidUuIvus9TR2WRelqregcG+jqHfLCmoj4RJPqU/ZG9FrNrdXNjrD1D+3SVrx8pa6q3TYvW8G6x819/WYnUEQmxRo+F4ESGBBKyg3RcYmpEQRurlDJMIIgUMFrHRzqHxpnCHVETISG+lRNIBiRqUOj41JTFPKJxlClhKNIHHBu61Bf15AdVZuioiMnPV4GEALDEOdxjJsnfAnZ+bu+sYiH5TrDdJ0vRGd3c11LH5L9wEOPfnVDolx0L128tL3fpwgHI80n9//59UtmSq/HvY4zF2s3b1+hHTq97/3e5G2hGdGqtpJDf35ppOih9YahwcGRMbV9wu72scItAwbDEAKxXvuI1cFkZhbtzFiGUQqVp/bI+39+vrXo2cjMiNCGi++9XjxR+MDm8JFzrx5rIqMTVK7O+k5fRPaCJNVYc22vGNvz9W/uKQgHw4Nmt6gwRkaHf8JlCUEAwSDAep3jVpeYkrXmwewNEC7Xy+oOvr/vrbbsb4SFyeR1Z9452EKuefwrsX0n//b8R764BVlSc03DABaVmRCKj7Q2uwwFe5752rokiWOoz+zGw+PiIkMU0+xPACAEU5uScgpX5eoXxGixsT8cbaqrqomwNLz7xuleJFSP+S6Vd47u3VGg7y0+cOBkjR0ieJfz/dKOJ59aMlxx7mSDVhUfMtp55IWjjWhErNzZ0zYoRKRnp2gmqktb+KS+//fMfSGWC/sPFw/SkOCc8F5ue+KZJ9bdoSpyTUhMYnJKCAlBCIqRJHC2XDzy4ivHuzhDjBHura4cCtvxs8hoyfk3//YhvUEbE5rIVXx48IglYvsDS1zXzx1viYyO9HUcefE0t1pueDwTbjj++ivN8qxlg6rG4it9LEl4BwfeK7E8++1VETdk8rbesvPvHzzVLMgU4viH5+rHvvZQ0ciJfX8+bdZnZajdg63dXM6uPatMlq7eEfu4bmxswuPjvsC3Ez9rX1jrYG9djZWIW5WRxrnqmnsaui1LwgR3yTt/eatqmPVw2uytjz/1YMYnF6+ixzrcVNlslafk5UZ4LXpvaU1j+2hqEt988fDBY5eHqHmP/vDpVTEBF4GfA2vvqzj6m+/V6ijRNjLi1hY8viRLa2suPvreqdI2OyKNX7zt0e1LDSS4OTFyHltDxevP9VxWIW6r1SVNXbckL0qw9lw9+j8vFw9E5O965LGH0ya5IkMk+riCjet6J46cffO/f3xEaYhMyF1x3877Vuin+UGILrvN6ha0pvAQnRwGAEi1EZnaCCC6mk8dO/Z+NbL4a996fAmoPPzykcriEsMi1aedzWCYCknK1g1ldAghS9cU5capJTD9MbUCok5ctmF73+g7lw79vvS4Oiw6tXDlxk1rom9HAQzBAIiYPDJrwwZ9F/+XF+rs5JbdTyRSfz9a1VRXX+2paS4pqx+cgEJzNzy8d1fyjbt+VKlPWL5xzaDzvUsHfn/xkDI0KrlgzbbtG/NvtxKBIQgGDKKIXbBxPY7/5cVzw3zCphWLIuA3Swbburpj7MPnDh2+4jTtfOqZvWtTp9edn2oSptQZoiPUYo2js/RC06WrwzEPfefptbqSff9zvfRCGGxsvlhrU2btfmRTmKOrppOlBObjnoEgIIqYIjprwwp1x6FXD7R51bu37YmDfnPwWkP7yPLoqJxNDyYpQqUD59944XhTc8fgsujb1UCYaDy7/7m2C2oCASgZmrft0RUxfeXlfWzIkgcfX6PuecvcOgTDYNI7L1ifnZ8ZfelUU2tPtwJq7nHiYVkZ6ak6kzZBEREj73j73//zWHldf7bGv4IRJ3qbKs5fs2mKHnt8h6HyhZ+9caYsO9YgQgglj52/eaNx7MN9+5o6htcsyU1PjLqEZWzftionUvNFLV7A5+wLOzrUXnrpwpWW650tpwX7GKfMSOm05EbEZax6OCTPXPvhvsPl17t37PrEvgiecXNzeUl1U0flvz32EWcdsSMJifUta7Lmx2cXLu3qPlBtc9DsdCwojEm1EWm5BbFq3GFura1tv3jucmrExry1O0MSWi6f/KC2pcPsLtCRnyy8IRRXhsVkzCuMlnqGuhrrequLz95RWWAAACAASURBVFXkfGVB7sq1i3vfbBgadbGTeixDqEQbW7Tj6fjCjQN9XU0VV0+fev/3ncOc5N+fXB45rQ0SDCMoBBiGY3kRAAj4GZ8AcI6PDgzYFVlJ6emJ0bQj2iCr6LWMuDDfjXwiAAIAAIIQAkcJHMcJSiohsFtPbCBMlbRox7fjCnb097Q3VFw8W3xov8Uubs+lb+sRC1FKQ3hcZpJGCNOqh4wR8UlpdJtOhg4BSpOcvSU5KbXkg6Nnm5p7xnwf2xeASfXpyx/4bkrRA/19HQ1lZ0+d2fe8xYsRuXcYTkSiiYqNTUnHGo06DTAlxMeGko3K6w6BQcNSFi0vaqs51jpi984QCTrPcT6fD0KBz2Edtw609+z/bedJ3DZgQSLRmChPnx1SpcckJ6amqLNzFjMQOjTwSV6YUurDYtOSVVyoRuOIiIxNynKE66SI1cexLsdI9bkT5a29Az3dfXTsfIZmbl8BTG4wpWbPj1aQEIIq4sJIhB2zejFZTGxifLIej4kwUGOBNoWQJmd+dtiFk3UVbbDQ5iT189LilOhwbeVHF17ptY50Nvfa5tMcy/m1j7Pbx4dHBpor3/hN+wXS3tPaKzUN2QgfJlWExSYlpoTK6g2SJp4XERLHcRgjZXIpgX55zneZ8aGO8hZbxLo9u5clS5yWlvLS1raaFtfC5PiYSE9x8fnKsZj1Ty2MQQC44SAvuqyWxsoWwbT2q9uXxpL0SNv1qxWdDU3dEwsXhEbGmEKlTY5pVg2R6GIzNz/8yOJoDTRWe/gvzz1/9WrDijX5+ZrByp7+CTx97YJYtRwBn4w+gksj05du3fv4QpNoab746u/+83JpacOuFauj4+OMqvbeAAJ52jXUXH6tZUSaXFSwJHN+YWakhv7Jn5o7esw0iJzOkTWsCzNG6ciSxsbOHst8fahgabxy9O2TY2EpcTiEw16v1+MTRM7H0IIIS0gMh0We9jG06PN63S73pB+iq6/u6pVrVl3ewgVrsvKy4iNI518vDvUMJWsByvE+hvPxbsbjYn3+kYIgGIERBIYhGEYQBEYQGIJgCAKoRGY0GUY7ixsGmcjc/AUxJBA9AADA+2z9dVerOnya7EW5y3Py8+L0+Piv32/vHIjWigLv8zEMzfAer4/jbkyQEAKjKIzAEAxDCIogMAxDEAxECKByvSkm1qSRBvBLDB6Ce6S/tbZlHNVkR0ehHlwXU7TlkV1LEqUAJRVSbrx8/9U6F0P7eM5pGWhotpDRpPeW7BCMwAgKwzAMIygKIzAMwzAE8/bh5hPFF2uGNSse+6as+cT+40N3tBCwPCp71f1PPJwfSkEQgBDUN9JyDYM4nnH7BJZmfDTD+knOYFHgaJphaVZwe33cp4JLIHVWfkr46ZNV593iBJm0KkU6VvnhgXer8RX3f2c5dO6Xfzh8y5wC4yhBELrEBfmbN69IUJIwKtGE6BoPvANBCIJA/u4G/JfoLflP2RdmdKjtSpk1cvkTT/6/rfG83VxHuv78YWttU1/yWNexX//pJLrkqW9sSsVZCNw4xuAdE5baynbBsGDP04+sDpMwEw06aGx/SUNb60BKjHVoeNRm85j7LRNRevlUT3wFemKo6cLJ48M60tlbfeJctc+wFQfWq+8effVovaJg54qcaAUOAHdLDo62dFVfOHV4QO7pr7t6osYmW6TSkz77iHlgeNw6MWoxDzvC7tj7sMi4zQ3HXzlQS7+7YlVhOGouO3XeLM8xmcKne1+CJ8xfWJR97vk3fvn99ss5UfhATUm1VbvuiQ07E+X5se+/f/ytv5NDSPO5phFi0br0SGkb/tH16uJj+2lp1amyQZADIIAhnOAZ7Gysbc9L1ifqbhaN+IYqT722r+L1vJUrc0xQx7Xz9RPS1eGJYVKvkv2o7OzRgy5lw+XaXlcimFTfBPdI1Yniw29cZOJWPrQ8XYYgN7oUErzOwbJ3X/6wHUlftiwzhGu9eqqeVuw0RSdJOwiht+Tke7I+or6seRjPDdgRjGN81DLosNlG+wct1sRpx00ILN1befKtl3reHa27dOG6N2rVlmX3LXDh105WdPdZLGPkaHW1XT1/bV50SgT6bv2Fd9/wSTsvHG9RPvzPu4PwNBc41u2dsHo9lHuwZ7izc2Dc2WseHw/jbpNWdA+1lHz4jtCg9D++o4qNi9GGajwVtWfeOWCV9Z8rb/bELQCACtVpEPb6heNHkShPyfVOa8in4sFQedaCtNBjZWeuCvE71mVESfEO24TNq+ZdfdXdLZZRm8rcZ7eFciIAADGERSTHaevbx6w2+1DbqXMt1MqHt4m3M4EoAFxPU9n1xtRoZYTq9gf49wC32hd6ZLTzeqMzLDstNRZDUUwuN6XHhl1s77lSWicpPVra3EU3PNtWtfPZn/12b54cAAB4t32spckiaJOy0rQkiqJAGREVn6wrKauvL0PqSl/6+xuV/WzLqA369YtPzpvCNhCCERxmrc3n/qf2HIBgTK5PWfjQD558ZLmx98DB4osXa2xXayqr9/77c08XhspwCAAAIASFRaa39OifSo/CCCY3RM1fs/eJpx/Jdje99cJzv3ipgpWoR3CK2LvLdCehlDq26IFvMsgrrx88/sqvnUARN2/9vzz19QdXmqZ9G0aZCh7+3i81Ea+8euj0keusPqnoie8+uXdzvlHKPvUjBvz+T2/89jwRWbD1kW89srHQQEe725qfP3TiDX7B/MylBU1eCY5HJOWmmq6+V/LBifi0+PCim5eTZNyKh7/FwX//29un/3bOjYQmFG59/LG9O5ZEMuHj3XW/OXj4bcfaeRFZ6W4IRmEYJygSxlEYRjCCkkhIDIEgFCcoivBaByvaisuuXe49fbmsquG7//azB3KkAAAAU6HJq578Fid57fXD77942o2ExC/Y+/2nH9tZEOrGNza2vPje2fO2rKSo+EigRACEoDcLRjCCokgCRRAEIyiKwjFPy6XX/v6HV8622tA6O6GQPHxfYJN0mwFCcBTmekqP/u0aqtBH561+/CtfeWB1dpQM0n7bS//3n177jx9wUQvue3JDfvZ8U4IW+P724tuvvEjrc3Y/88yuJcZL10iKIjEUQXGSovy9gRKUhCIwBAIITlCUIiQsPWWNw/LK8XePcBuWr9jBXzh1+dwlTIlQEgr/5KkVGEEJghsoP/VSyUl/1ST6pO3f++XDKx/aYv7TG5eOuRJjKKNJiqMAQMkbdm9t7H3l9PHzo/Pi4hNgUoYABMNJCUVgCAyjkpS8gvgPmlg4JSM7RpOsK1y76XrL39/428j6x3Y/sAM/UX7slGkVJFIkiUtiF2x+jHS/8Pybzz3rUaRu/uaP8pMi266TFEViCAzBCE5QEgRH8fhFKxfnVL92+LVDMZkxO/LjPsvOeK8wTX6pacQfeTwen8+n0WgmSeZ/Ezv4N8b9z6QDAIKPJPSMjjbs29fw/PO+/n4WAMPKleuef16VkhJMXlEUy8vLv/vd75aUlEyecseOHS+99JJaPfOuB263m2EYpVI5e877drsdADCrIU5Wq/XChQtmszlgfADHcQaDYcGCBSaT6X9TfIC55IVf/3r/SO73f/jtrVkzH4b25cccv9Qc5jCH2cU/HP/LHOZwL0DpE+YtWWOPMan/oZlrbtgX/34n+PUwz/M+n4/juIBMS374yZM5jnO5XJMkY1mWYRg/pVAwxQqCQNP0lJhrvG63j2EYUWQA4ADgeN7t8aCT1uom/CwTwTSZ4zi32z0brEj+bnS73bO3WfD5fKIowjA8eyI8Hg/LsizLCkKA22o/+bzX63W5XP+b9keosWD70wUAACBOrvP/V8EwDM/zN+yLKIp+Jp4gM/uZewAAwWfxG6PJDYc/DQzDwdsXjuMgCAoyPfBTOoiiAIDgd0YRRS5QrW7iJstEkCmDr1Xw8FNS+Fs944XfFAEAmFURHMcJgiAIQjC0236ymCBnslvhP1v0vx8QTHo/H830OJ9ufX4gYGL/CCIIMiP8Un7KpODJm+4N/EN2o3koispksiBbe9MYYRgmkQR1detnZvL5fArFHV1h/UxcXq/Xz+EeTLE3beIkxX4GqM9H4jgOQQAA1t9wqTTI7IIgSCSSYAbS35/B1yp4+I/JZ/Xw1W9AZ0+EX39wHMdxPJjzXRzHJRLJNPiu/Jz+CIIE+X6AIAh3834AAGBK7wf47zHu0oj7P2OJRPKlej/Ab/W8Xu8NgwJBEAzDwY+f314gCBJkFv96O6AInuenVKw/MZjKMgq+4fQFoI//IUE3HLrx9GlghZhqfwaPmyXPnn3xlzzbIqCPMXnKm+2dBm2lX0v92YPJe7Njp8ePCd+CYATd1N67gSiKs6dsd4PZ1dE5zGEOc5izL3OYwxxmC3c+cBFFnmdZlhMAjGI4hgbBoSKKPMcwLA9gBEUxNJgswUAUOJZhOAGCERTDsSBomUSB51iW5UUIQXAcD4bI6ZbMIs+xLHej4fgM0sFNJgvBsJnrsduVj2IYhsAzf2IrftzZIOjhmTHRAseyLOeXjGFB0dhNFwLPsAzPixCCYRgaLKPQ9CHyLMtynCDCKI7PysDdE9zBvogCbeu/durwuyevWYAxe/UDX92cFyKfnJhPZMc7Lry778C5FlGXsHDTrq0rckLJSYZcFHiO4yE0QOfxzr6aEwdeOlQ5Jjdlrdi2e8uSBPmkm1aRc5mbrh59+9iVDpssNn/7I4+tSw7ePVrwjnWXffjOofPVE3D4vPW7H92xQDdrTkKMrePC0bfePdfgkkcvXL9z64rc8MnbNiWIgtfac+X9t4+drxknYgrXbd+5OtuowGdUUUXOMVh1/tjhE1d7PLLUVTv27lwVJ7s3Fxm8s6/u9HuHTpS3e2Qpax94aNuyZEVwkkWR5wUeglEYCtJOCBNNZ/a/cbS8y6FKWrx519ZFyWEydBa/eMHZc/Hwm4eKay2MvGD7Ew+uzYtQzqa8WyHyPi8jztDUevsSRI629ze325SrvvazX313g6r3et2wPUBYpujpbatrtKgf/vXLP3l4njhY39jlmCwH752wtFfVdLlck76wxYy2NdU0MIU/3/fKsxtjnM1Xa4cnv6cUfdaRrqYuKGfPL3/744eykdJTZRPBB5RyTnNvS6s99IEf/vYXT6+Qdl841xXgAbC7gDDSUNXj0W/+3n/99LFCxNza0Tt8ByqA6UDkfBPddV10+H3/9NN/f2yx1NLUPjzhmyFyhI/BWHo7Wi3Y4qee+8M/bzY4Wy5Xj86whDtKHm9rbR2lcr/+q//+l43hoy3XayxBegMILpe53dI4QDuCHVpxvPxiDZa1+99/9fNd6aCzpWtkwhcwE+ca72urr6qqrKisrKqpa+8f9zBBXrELI9VXa93h2//lxQP/sU5or2npMs+gYkwu2jPccvHUxdqeMXomBvL29kXgOMeEnSelWmO0VmkMk9v6hxl+cnm8a8I+4YUjEyMplcFAAeC0WifrFIG2j/c3tQ+5b89XcgOiy+aw2xlTWrxUEmJQkah31DI54YPgoT1WF9CFqpShBq1WJxnr6QneRPi8HoedVoQYVdpwg0ar5Pu6xoLOPFV4LWMegCtM0Tq5xqDgabvbOVPkKAAAgeds4xNArtSExhhUGiXuGp3wsVN2IpkUvNfpdjGQyqiT6SPDlQTmGDJ7A2ebAYgeh9NDQ6qQELkmNlID8+4Rc2AmEJ73Dlubr/UUn2g7eab7WtPEsJsPgs7ANzBkp7RarTFUqdbpBIfDTdMBO5IZ7629cuq9o0eOHD1y9P0TV+p6be4gLSA9aPGQSlVoiIyISDJyDqvT7ronZpux9Vz54IPyIQ8pU0y29wgat1/6i6LIMQwEIQiGwSKGo4CmQQC3Mp5lWR+HSygYglAcEUWeu4MyC6xnvK+x5np5dW19P8aw1tTsvIKsyNsv3DmO53wCSaAQwDAUggQfM7kpFwSBYVmAoQgMYyiMoyLjZQAILnhbFHiBYwQEhmEYxxAUAR7P7H0vPobhRFGGYzAC4SgksizPCzN25i6KIs8wMAwQDMcQFIVFrw+IM6umAsfxHA9jGAzDGI4BSGRoBoC7pHcPChwn8KyIIjAMkSTmJ6QJXF+Rc3pGzM7BYfeI224eVcZEybWBPbgYDw1QFYpjKIygKMyxnMALAEy+G5NE5d73WO59QTfoFvh8PgGGEAwFAEgIWGRZnuNn9TJGZBmOp63NV4prnYaFawpTjJKZ4Uu+7V8hCMIwDBJFnuMEwLEsIIjJif4AgFEUxRGWpgVRyjICEFHkrp0TAYBQFEUxyMnwAHAcLwIYxyf3yIJgGENRwLCCIHAczwmAlATtpg/BMIJiMC8IguBXIpIKKpJ7WsBxDAGAY1mRFzheRCQoMoNnlP5BBAIQOJbjeZ6HUCzQIE4VMIIgKCx4OUEQWB8nCjBG3Bs2RghFEASFGF4QRB/DQQiCE4GHGUPl8aYlMkKnsXRoTAsyVWGSYDoEIwnAczzLcrzAMQCRYVBgzw56qLGktLx+wC6IAMZlEWkLF+ckGBTBdA+O47BA8ywHAEozAkqh6Oyy0LET7dfLSq9WdPukGUs25MYZZuqU7vYWAEZRmVoJt5onzH0TlHnIqYrU4wF6FFVolBop39k+4I4ZHfMC1KTV3qF0TKKPm79MrQ1RS+qJ9WvmG/V3nvCkSrlSS7a0dbgSuFGrjyMMhsmpGBCKlCoVQtOo1T4Mj42PerRJEcGrPCGhlGrSOW6xW1Hn+LgDjpkGc3CwkOh1lGC2DfSNUvSwHSbDZPK7eWnpM4ARRK5Vi73OCUuvhBmfYGSxagKb2bNqWKKQykgwaLE6jHazgxHkYWGzZ48/BYlSLpWCkbERp3Wib1yEJSGhQXpLwypFRDamxiXqYL8iIiJc4e6xjpiHKeuYDVJESKjAA4VQqtDIOFbmFQGAEEIToiKDfYqLMhpJT4PNMuKKhlvMiCxHrpDOqicJDHzWzqr6bu3S+3PSopTEjBmzO6xfUEJpSoxVNH/0+q+Owbr4gq2ZRkWA82uIMiWkJtRXvvWLH2LK8JzlG1OiFZP1CaoIi52/IQTWqCZVSFwfl5SaWHngl98pluliF67ZkhESYP1CqnSxiVH1x478+oSLMqWv3DEvqCdpbtRKFmKKj1PUH/3zcw5Im7Zo0/aY2XO7hkNSsyI7jpx8/qcfKIyZSzfFRuhnMCASQgl1dGpU49FTfz/vIExZRRsTQlUz/DQahBsiYuIMDe/v/88jHjKuYN2uzICvZc0QcE1sfGxny/uv/OpDDxG1ZNO2zACKcRMQSajCiKlwssC6eYtTW48e/68zjCoya/V9UXoVEVCnMHV46vzwaVGZwyGZ+amdRz/64/fe4omkVQ8mxoTMrvM/okwq2vls8npCHRKioWbw8v0O0xmEkOqogvu+mrLUxYi4VKlSSQPaeojUJSx/6NnsjR4BpeRKpXzyHRyEkjJNaMBn6SFUGZWz5etRS1wMTEgVSpU8kBZBuDw8bcVe0zwXzSOUTKVSTuWbQiT62MU7nkxf7eYgQqZUqWZzYAlt4vKdz+Su8fAIKVcqZFRQT/MFCwihtHFLtj+ZtdrDwYRMoZJLZvzlRQhXmXLXPhxX6PIJqESuVMnvGeMHqozMXL83apGLFlCJUqWUzSIRAqxLW/NIeL7Lx6OkXKmUBfeG4vSBKhOW7XgqZ7WbAbhcrVZIZtar4PNAJCpj3CzQYN1RGyAYJWVqUjYVBjYYpRQ6aqZj+iAEl2lCZZPx3n0+h0Sll0yvuyAYpeQaSj4FedMGBKEShVaimK0tGASjlEJLzVr5AAAAIYRUZZB+ARRtEILLVHrZPZEMYZRKT927RkLIrA/cPcEn/Ax+BJlNvAUzlV78NIIvFnwc8juFmtzyFyFocYIgTFVQkImnhKkO1jTKB7NZf3DLeAUUMVWVmHbeuxEEpqi9N5MFw1ARsCgwy4M1Ddxs4A37wrLs+Ph48MHQgiCwLIuiaJDcOaIosiwriuIkLB6iKPqZpVAUDZKZyU8+BMMwTdPBpAcAeMfHHR6PWxBoAEQAvAwzbrVyo6PB5BUEYWJigmUDu9P4fL6xsbHZ4H/xU+T4Wz3jhfvBMIwoijRNzx4/g91u93g8wVCa8TzvdrttNhtBEFP9FP0dhSCIx+MJmFcURX+vTo/IShRFn88HQZDL5QrYKD+3FoZhd89A5q+2v5l3WdQMwv+9wzD8Cf+LXC4Pvop+CrXgiVpEUfR4PAzDTEJ5LX7M/0IQRPD83n4mt+D5vQmOk5IkCUEwABwABIaplEpVcETcoigG2UsYhqlUqtng9/Z3o0KhmD374nA4AADT4FuZEvyjHJByiOM4kiRlMplarZ6GfZkS/4vD4fDXanr8Ly6X6wvhf3E4HF92/hcYhqfE3OXnBAveAIuiiGGYIAgB0/M8H3yxMAz7qcmCnwcwDEMRBIUgHgABABiCsKCXS/5WBPPV+cm3ZoMfE0VRfzfO3sfvV4NZFeHnW/NzoEyeUhRF/3oWw7Cpfop+9fCPRTD2BcMwv6xpfPN+Kf7sAftNvIVha6qCPi/XT5o3G8p2N/BzS87xM8xhDnOYLczZlznMYQ6zhTttiESOtvfUXi2+UjMsGDKWrF6VEykN6DzhHW8pP3viShOjjs9bsrwgzTQjToesbaDu0gcnKsyUKaNw+Yr8BE3AXRzvmeisvHil0R65fNvyRMWUKEl493hn9aWzJQ02xJi5ZN2a+abZc3gXfNaW8uLi0iaHJCqvaNmC1Mig3MeDhch6JzoqLl4sa7LiptzFyxalR8iJGZ9RePdwW8mZ0gE8ZummRbGSexMeAAAArG2wrqz4UlWnT5lctGrlgqTZI9IAAufsLDt7uc4Tt2J5XlKYdPa5Emhz3cl3TwxHrl6/PDdy2u/pftG4g7bxjGuoubKuBxgSs+LQjitXW8ZdgQJGWUtnbUlZiyR9WZrG1VJd3jw4aWSgyLjtlt7eEdo36SWLYO9pvlZcPpGwcmUMOlpfcrXNHqAegLGb266fOX+9sam+2+oTpnRtJ3hH+puuVw3IEnJSQ0DH5ZPlQd0sTROO9orK+n40Yl66wddaU9M5ZJvJ8EOedfbXVzRaiPDERAPfXVXVOWZnZ/oSkxnrr7924UxJTUtbr42b2ejsSSE4elpqajtc4Tn50WCwoqy8JaBi3AVGq86evFp2rbp9eMJxL6gSrA3FFyrKS8vaBiy2wFQQMwre0VVd1zYwNiOh/HfiZ2Anhi0ORJ2Yv7owOyMC6m0d8gTgZxAcw5aBMTqqaPWC+VnxJOO0DI1P+haJZ2ywqeR6u9056Xi5xoeHhqwhCzcuLMhPM6L0UM+gO0CbUKk+Pn/1ulWZ0Wpsqnd2Ppd91GIlI3PnLVqWF69DR+paJqZYRPBgBnotXlSdtbwoJyte7hmzjI97Zu77Fzh2fGjAQ4Uk5a8qTI9TC+b+UXewDCRBA5GHphauXl+UG6mc+aXRZHBbR0atrDohP2/xipwQ3mHu7g/ymSGRpseHrN3jjDv4zlAmLtq4Ye38WC0ZtEY5m8//7adP79q5bduObTsffvxnr5zvGgk6Fl8aXbB2y5rCJE1Q17MzCF/X2TdfP10x5IaDDZaaFLdfUQo8T7tcAEFImZwQpXKS67YLwuTUAazX7XX5yEgthWASKSaKtNftm4yAU+A51uuDhUn9ggSfx+N1ciq1DIE5KYlAnNPhCkAAAKOETKVRK0gMDtYr5mOIHOOj3SwpJ3FcDpESEnSOTgAw89fMAAAA3E6XTwQqpYLAPXIK8F7axwQM+w8agiDQTheMyUipQiJQBMK7nALPz/CbnQhBKnCtSi5BrfeIWMoPwUfTDC1QFIFiGpVEFGxOhwuAgPEmAADB7jTXD3epTfPTMWlQ8dMAkEqtxqOkpsL+KUta8ugPCx++sX6GYBTDg5/uCJmakCkl99ZkA2BvOPVOqTVq4X25ceoZUZM7xwfc/G1aMyokAvRO5ohzjzZfOPj6wWNXWywu6PW30oo2P/6DJ5bIbncpCH+GuSXo4Z3eBhkCAPlM3nvHezrDkv53ErYGCxgABJpqG0WaHrnW+vZ7bReaHXaiKX158vZtSQsiCDKIF2emWc//JeAdVrtrpPncmRZFUsGKwqRA0czB4g4MCggikckQ3ku7HD7E7fCgKmWgS32MklIykh4d83A6l4MBIiq5Q8QZKtVnbPz2Lws3N1+/EJCfgZSgEjnaN+HkeZfby4uoXBnMHDVdYDhKyVDa5/X5HF6vhwF6wywtXgAAUrmMABNuu90n97loETeS5AxOWBAMy+QyyMrTbofH66FZVCaHv0xOnncHksIICprw0ixjtXkghFCoAgfLkmTIkqxvJIYtr5oS/8u04Gq99Obb75xpGOZEgFCajBV79m4qjDXc6w1PUKDN1Sf2//3AFXTB5kc2Z4dLZ8yV5k78L5giNFTWUNVWdtpGOfuguBVh0gDUR7DKaIzUU2cunCqN8PYyVGiYST/ZEgvCKKnaGIIHWDRK9cawSF1FybHLAtEzyJPRceEB2NFEzucYN7e1tXb1D/qUzW1aMSbWEKwaEXKVIUxbU1VReaXNYx5lQwqTZs++4OGxIURffeX54mHE7JCFZ+i01MypO4xhynAT2dLYUnZqALisSHiyXobPsH0RWa9jdKi1vauzb1CUN3XoEuLCtDNDfRYAUm2oXtfa1VF23ct3WzBFSrwpyIkHwjGpVqqXo0TQRASC3dLV1tzUPdAnae8IC9WmhGokgbpSnrLiqZ+ueCpICZ8G5xobHLK09JoHQEdrU0dIdrhWQc1iZDqpi03NKFwnN8xblm1SzOCTGXeoM4LLjCl5WeNnL1fViaE5yxYmawOywiOGuIyCwuEPLl5u1CQWLp2fEjrpVSUqN8blG+MCVRCWR6bkLh0d+rD4AhmRtWRpUUKg+GyecQ93VF2ra7B4RaH+6lUKU8cEbV8gUm9Kkt9I9gAAIABJREFUyssdPn25th8Ln7ds/XxdcBmnBWXc/PwxV/GV6mZ5TP7SrPjwKVFJBAKMKUwZ89PHz5c2WvCo+UtzE/TKmeYVEGn7cPP1suZBs9MDVV28piU1IffGvkCyyKSMrImxixWVXnXaisKCgIrxMWCNKnaBKnYqwrjhtory0upRjoGaG2qUhlCFjMJncC74LBhrb/WVC7V2TBB7aq+UhhrXzJtV+wLIiJxNz+TMfLmQPz7K6XQqlcrg4wM4jvN4PBiGTSn+yOfzaTST8R4wDEPTtD8uI5hieZ73eDwAgODjjzyjow379jU8/7yvv58FwLBy5brnn1elpASTVxTF8vLy7373uyUlJZOn3LFjx0svvTQb8Udut5thGKUy4H51+rDb7WA2358GAFit1gsXLpjN5mDenzYYDAsWLDCZTNOIP3K73TAMBx9/dDfvT081/ij4OLvJ5dpsNplM9qWKPwIA0DTt9Xrn/HfnMIc5zBbm7Msc5jCH2cIn/C82my34ZSHP8xzH+Zk1gknvDxjleX58fHySZBzH+WllggwGFQTBT7rBBHi05BN4JyZcXq9HEHwA8AAwLGu12fhJa3UTfuKSYPhfGIaZmJgQhJl3CWFZlud5nufvMq5/Evh8Pj9XxuyJsNvtNE3TNB1w4PxbYLvdPo1ti189EATx+QL7wPoPCvysAlOScjO7XxW9Xm/AenIcxzDMTPG/+Hw+nue/VPwvAAD/Z3LDvkAQRBBE8Pttnue9Xi+GYcHv+rxeryiKk284/XUKvlg/oVzAYm+FSJIYiiIQhAIAAQDDMBn0NlgURX+8f8CUCILMyO76Trh73pBJwPO8v0tnTwRN0wiCIAgS8MgPgiAEQaZHlcLzvCAIMAwHMxB+8rMpqfSt8NMRoCgaTD39XGsEQdw9P4Nfrp8s5S6LmlnAMOzz+W6MLoIgFEUFeb7rX4z4yVAkksCvU4GPWfz8J22TpPHPmVPilxJFEYKgSYr9DCCPh8AwHIIAACwAKIJQFBVkdkEQSJIMZqJAEEQikQRfqykBgiCJRDJ7h6/+wZ09EX5yPOxjTJ4YhmG/PgRzRvsZ+BsCw7BEIgnmfJdlWYIgpn2+KwhC8Oe7fgalGeGXYhiGJMnZm8ymAVEUEQQRRfFGR0ypkdAtmME6+UubapnTqwN0h98Dypq9KT143IM6zKqIaXTjNEd5ilp6jwd3BtXpy6CWt+Lmtzx3vjuHOcxhtnDHDZHAMy7rsHnY6hVJdWh4uFaKBvR25H22kcGBYZtAKHShRoNKOjNBDCJH20f6h2ywOjzaqAziFEtgPY4Rs3nUyeAybVhEeBCPYd0qzecYtwwNTzCwRBMaHq6bxZfzRN5nHzWbR2wMKtOFhBrUshkJWr1FgOBzW0dGrAyuMRo0M//8EQBAYFwTo2bLmJvHlIaw8BDVbD/Vc4tkt3XEMjzu4HFVSJhRr5yRF9nvLI7zTlgGLWMOFpVpQ4whGhk+JWKhqUOkbYP9g2MOGqY0oSajRk7OUFTQvcMd7IvIece7Sk+dvFrfT6Py/8/ee4fHdZz3/nP62bNnO3bROwgQhQ3svUnsaqS6rWZZjnvs+PnFiXPjG+fmuYmT3OvYurFjKVZzbFldpFjE3kFCLCAIgChE7wtgezl76vz+OBQsy8TuLLgLKQm+jx495MMz886ZM/PutPczjtLVD+9eW2SLHwamhkfaTr/39pk+iTUa8xZu2LZpVbFl6gUdqMpSLBrDjDxLxgs90ATvYMPh1359fMCx6pm/eHZVwkPgWiw42HT6wLErg4EYZspZuOWRB5dno66tQyU0evP8oUMXusdFzZBZufqBh7eUIC0xTUeCu/XMgUN17X7A8fnzN2zbsLQkAyHWDlWaFHW3nju0/+ilSMnOp/fcVZGV8im6Jnj6r5w4fKZ5MBTTLBUrdty7c5FrRhBTUPL0XD9++HjTSFBUzXPXbdt195IspJVZqKpiTJEIimNw5A6rKcHBa4fe/7BlwCdAU8HCTffuWFmcwaVzz0YaunTwtx9eGxVUDDfOvevBe9ZUZyU8RX/ngpJ/zK9xJjNvuHN3dvv+D2UxMNg1KFhWPXJ/taH36AdXm0cX5Fnj3loHo4PdbV0e1wN/9mT+0MkPr3Xf7KsqnJ8xpedQBe9IR3MvVbuo3GaJ0y6gGFMhZSmei3i2GMb8nr6uIWbezm8szei9cOT42Utjy+7NRqwpOTQ21N0r5ux45vG8UNOHJ66e71xbMj9NMWmqu611VM6469kvlQiXj9f39A0X5Wbkp84HQFWVVWDKysrxm9NzmB2KY0N9fV7D0ge/Wku3v3+i7UrT6PzNBTOxUyp6ent6/cb5j31jBd38wQedLS3D87KQLvOFofBot2+Yd84tNNqR94ogVKCzZvuX9mRH2i7W3RgaDUTyHFycEYw43tXY2NTpDqsA4KQhq3ThosoCexKhg0o4xtVsf/LxiszR068eHh7yBsuy+LT91t2S6m2/cPiSt3D56tqyFPiXKfhSqhoOBDWatThzzLzTaQyPTigJ+FJKOBgKxKicIhfD2x0sgOFAIN7ZBihFguN9Q56YFP+SIMKSU7ryrrtrMhH7nSqIEX8YszlMRofDarEb/MODyAQwKMWEcFDkbQ7e4nKYrSZtaADpaMy0FJ3wRSHJZ+ZajWYHD6VQJBJL5YkZwmDOm7ds+YLKXGOa7jPVYpFoVMJNGVajLTvTRFGRsXGkA1F3LCiEw4IAzHY7Z8rPsWBq1DMeSphKVkKdg6f3t/zujea33rj+wZmhmz5FQQKQ4JS1ZNnmDcuKrGRUEDSjycgmDS9LUlz5+l1bVlZmkGGfTzOZLSyb9h1oYeT60aMXhiDvykgNLmyK8QuEqqIAjMAJAocESQBJSgSC0VRFlVWSoXEMI0gcAqAqt+8sqhgcbD594tipS0033WRrx9VFa7buvquKnWINHMNAMsvQEEJFVQFB4DhGEBhJACWBB/ukLagBVQE4juMYReAEDkQxfThEWVY0AEmSwHCMJABU1EQQr6SF43g69xY0VdVUDSNJDMMIkgAAU1JOyJtCqgo0FRA4hmM0RUKoyXLiz4xjpIlzZZtyx0RotmQ7OTONvruEk5jo77xad60/lrtwRaGdj//zzjhLl91Vugwx99uWliZBbPTK0UPXhMzla0uzzenzL1AURDk8fOXUhSGyZN26xUW2ZNYsp9bt/QuG4wzD4FBTJEnFZEnEDAaQ4EMQFE2xlBiJqppJEhQACYq+fX3gJOsoXLBiHW7kTZ306tWLS8pyqZR1ApwgGIoCgqSqiiwrsooZzegHpgiCoBlc1lRVE2VVVqHRlJYzLAAAAFiGJjEoiaKmapICSZ4iyc/XIcxEIkiKpAg1LKmqJkZlTcUYw8yE2WEUSZAUJqiaCqOChBEkyyW2TBCGTPtcqGoi4O3ZNeXWzESB9ZH242//9t2jIxmbn3hwgzN4+fg1T9aCNasWllgTLbaGO+s++GD/mY4JBQKSsVasvn/35toCR4JheKi34cgHbx1thgvv27N7U97Nt35zejxjxd13LylxpjGAWnRfP/Hh/gMXvBkVm+9ZXpVrTdVC8u2LTJCEyWHFmnsnBjrHjX29oYyaLDYB/4W0ZtgyjLCxqStU7h4TAGVxuqbwXgTNZxSU4YocdMtMTVVFPL5U0iI4A2e3apeHxzxD6oh7OJK1pBDd77NGzurgQoP9XrcaGB33kuVz0gdoMORkG+uH3d03hxl5yEcYCkzW9OGO0iLcaDGZDVjvgNuXMTbkl6C9sGCGjnkZbRYTD4dGBgNuvHsc4pbcXAtaSiLDXr7eXExQLMJWl6Fw2a6vlq+XcBb3txy7PJE5f+3a5XOdCEsTXP78rV8oXB1TIAAYRrK8xWpKvPLN5VRsfuSbS++DnMUUPPXqiXHHyi07Vs/NYNK6dURzHCUEFCKvatmSiixj6nYxp3CJJGspqK52Nb70sz/7BSzZ9PjXF2ZZEr0gU1C1oObGxee//aics+S+x59aWBL3FgfKVlSz+YlKjIxPs4G+jgvvPf/XPz8+6ItS7zR2fuG5p5/YUBGPxsDYs+bUzG18+eXvvDyRsWjHl7+5DBUMAgDA+ZzCikrnpRf/+hsj1JytX/zalsL0jSgw57zlc9tffvXvvvKyff49jz9dXhyXyJWsVNHTdvzlF15680TThGw6uPrep77+lR0LsrhU2qCyiuZU9lx/+Wd/9vOIa92Dz+xeaJshD0nayyvn9jS/+s/ffDGcufrJZ3fVOlF7BUkwJIE4zMJZkyPb5NCkSPO5E/v2Hux+7RWTgS9ctuPxZ57cVBlvTIEzvN3Fx8OR3E4EzVldnBUAoHUcPnb2yMHWfW/9O2N0VGx69NtP7qjJQzmfkbwwU+XmL/94nYaRJEWmctd9lv8yy3/5tGb5L7P8lzvXLP9lVrOaVXo1619mNatZpUu3JkSqqoqiqChIG7l6JLskSZqmIY4k9VmYoiix2JRXEunx0zp8BCXPyWJjGBYn208pFotJiiJDqACgAqBqWkwUEZPrPBEUqouqqjrfBLFU6JJlWZblWCyWvsmLTg9Inwk9c0VRUNqbqqp6q4jFYtOYH0mShOM4QRCI8dNgumGHejn1HoEyP5IkSUeL3Hn8tKIoSfWaGdBkf7/lXzRNS6o96V9OxyMkZS8OvEfHPuhuC5HMpHdjlC86qZgo6v5F1v2LqsaQkULJ+pfpkYria7Ia0+1f0mpC/zHT+Qnxn5z0Lyjcpj9Oq4NmAEKEsd5E9bY3jT6vtw0cx3XiTPyH9TfS6UXJGvpju7p/UdUZvJw3kfSxgqqqv+e/8DyPjsCa3vquJEnxF2Knsb6rlxl9fZeIxQw0zWAYBoAMAEWSvNGImFynoqDUEkVRPM+jlwpdk9WYvs6vN3qe59PqwmiaRqEiKYrCMAzHcSaTaRr+Bcdx9PVdTdP0NdfpjV8AABRFsSyLMn5JFYFMLzbHcZ/D9d1YLHbLv+hjSPT9IwAA+bFQHoYQkiSpqmr853VCD3q2GIbpT6KXnCRJAscJDMMBwPUckF9cfwuUxqcXLKn6RNQk9i19nV93oGk1oWeuK/6Tky0TseY/Kf0r4DiOklZve7qtafgX3Rbip0m2nceR7kPT1NjuRHptzK7vzmpWs0qXZv3LrGY1q3RpKv8CpbD70vs//eaju3Y+9M1/fr/RLyRePYKhwfOv/c3jOzbv/vL3XzrR6k9VKLAa7Dv70p89/dT/eK0+gpZCDo7U//Yfv/PV/+/f6ybkJIuh+Ifqf/ePX96z/Z5Hv/3TD26kfoX2E1KjQ2d/8/fPPrD93mf+/MXDzeOp3m6CijDcuO9ffvjtv/rX/R3u1G9mAQAAUPw951/8y+9+729fvRpIa219WqK77cDPf/CFe7bc/+yP3rjQn744VF1QiQ5cfvPvv//NH/3qRM9Euq3pEtr2/+PXHvrWC6davJ+j3aEkNIV/UWLB/qamYXbz1/7uJz/YRjWdb3T7E8Wxx3pvXL7cQz32f974hycWCJ31DZ3heI9rMf94d3NzXyQa/7oPZfhG4/HDp2M5RWZZRarkmGfgxsXTLUEDj2NEkp9FDQ32NF0btjz8P5//8dc3Yo37D/en8cN6GutaPZZd3//5P355qdR7vaPHjRzpjSCoBD1tF89cnwjgrJFNEP4+XcWGuxou1bcEcY6eWQis4mltvt4Par710xf/aquz/+q5K2OIb6hFIu7esdZRMZRMbSvBiaazx1oiEkWzDEDY94GaIsWE6C0JMUnRktwt8px+c2+HX6KNHKHNmHvRYu6rx05f7hiOpGI/6vZrQqqi+Cd8Cmdx5Ve4CLzQ3NAzKq7IB/Gie9Wg1+cVQEl1GW8mc7ibvcHxCbmcn3J7QI16R25+1MQ4MjOMXJxNBDKreu2T33FkHfywOfG9QwAAABh78dJ7n7LmnTx6TEy2xYuRSMAfs+QVOjLzjaOZthvd7eOgwJVkLoiKDbojgDUXlWdbvNmWa23eUCAKM82p6qUYaXbN3/m4Pff88avRdE2E6cw56+5/wsKeuDQAZzQ2M+IPhgXcUZxndZlLHWdH/SODAeCyxk8EoSJI/r6JGw3uHmvOskUZJU7GgBa7T5ozF+9+1pV/+nAzGi4k3H7m9TfePNrsViAgDPZ5m77wxK6VJa4kWGWWlV/47uKON//pQGpYCQjSRM+Vd195dyDrnpJFhlREOk3Bf9E0WYxhGEEyNAFphoaRSCKXrUiiJMisiycwnGJIDcqyKAFwG88BVSniGx242drW2d9HN98wR8tKinKtU70OjgM8KfAFhmEEQeIJccG3EVRVRYqplJUgcJYmKQoLhcIApMm/RGOiDKGRZXASY2kMSpKiqHGYyEkLwwiCwNN68RZO4AAnMRxLxAdKsaAsy4oEKZLAMSPHQE0RhMQTQFkOtvcfO9Z1viXg4XxjgdItmwprMikkZPCtzSgCALQZt6ly01f+ZtNXkJ69vUiaVNQZci2qqmpydOCjD4/3G1dsWl9bbE7JL9IUBAUMIwgCg5imqhCoqgISb35hOEGQuCLLEBKqAgEkceL2iTQl5ulrvHhG50tFxNAiicnNsRCfgzsW9O1qXINQg4qmaRBMBbFJhUiSwPVLnDSoahBniGk5xf+WwnCcxHFM1aAGZEXFcJxE4MnRtH3RnIeyrdVXRzvtecvnW3MSATFkb1/bjfbeMFdUU1XmSubryL6hm52dA14BAoARjD2vvKIw05wI4iIF3D2dbb3jwDWnoqI4c0ZQxgCo4cH29vamhuvd/uyFG1fU5KWKAn37t8UJgreYcdkT8riDjGc8wmc64kK4AQAkb+YtBnmwfzyW6/PFAJFpsdy+axKMuXDxPV8srl586VQTs33L0pTyX+5MNEvzFjoS9EZCXDgYiGB5eclG2KOLs9tYOBZyjwa4iDeMMS7OyP7n4kt9huJ4g8EIhgN+IRgdDQCCdWQgnmbEjIaMkgzMwCYA0AEAAFAj3pHu9haPmc4vLHAlhMt/MqXgH+3vahsMaBDgNJ9PuQpznOZE0yM1Fhob6GrthbI9u7hoZlDpAGhRd9vpt9++ZFqz+64F5RmpI1lNMX4haXNuUXZL16W9L35EMYxr6ZocUwL/gvN5xeWFjdf3/vIXFpqwly8vK7DFS0FwjuyKZRRhNsavw+hYd+Ppd/ceaWgbBSM2p7Jh+fI5mfGOKqpCYKD1o8OHj52/3Cz1GOiJ9Zu3LXIhjvYokzOnKJ8+euTNX6kqbs5bcF9Z+nwfmV0xx9l9/PR//LKeo6ylK/KzM1J5BlNTIu72uhNHj5yu7445A6HI1q3rq/PMKb2kRItM9F2vP3LowLm2MXATgNCmjSsrM2fipBfjKCjI67xZ9+5rDaJAFC7eWJWDeBYWN/HZc/lstIfZ/EVbnly0BWhKZLj5yPvHjp2tH9BuCuHQ1rtXlWfFu0+GzanetKd6E5qZSRkyy9beX7YWAADkoYYj++tOfHjxBhGK+MLSzhVV2VZDWhbSKNucJXd9wVJrKqyscBlTCICZoiXgFJdRumwjYS8cCgFTbmlFYeLLZXBTzty1ux7J6HZrnLOgpLTAGreZ4azFWWRxJi4ha3IWzl97z5wVKs5m5GaaEtUwRlBGe3b18g1ZVSsgacnKsycx2MMoc2bZirtxR+9oFLfklVYUJ/OTlay47Jo1dxmye0dFxp5fUpqfkVLKP4aRBmtO+aKN5uLVGmV25tpTCCb72AbJ8M7cqrX3ZC2WAGHJcVnSc1HBbSwzrpJ56wgub9Ajc1llc0qz0wrOw3CSs+XPXXx3xhwZUrasXIsh8YVgdybcYM8pqVz3cM5KwPKOHLshjfctUbaC+esLUp/vlC4AJw2O/EpHPhJ46ePMOFfJAldJCor1CdFmZ9myLWXoCXCacxbVOItqpmfvDpMnJYzgMovnZRbPS1PujDW3emludVpyv2WDMTnLFjrLFqbRxlTCWUteRW1exYwYw3DGXrhgZeGCGbEGAACAsBfOX1U4f+YMpkGz53dnNatZpUu3xi+yLAcCgWT5DCRJIiJO9OB3VVV9Pl+cx3QuBk3TiGSDST4DIrkGACAEAiFBCGuaDIAGgCTLvkAAxi3VpCCEwWAQxZYsy36/H7FISWkSi5G+02yxWExnZaQVwakjXXTkShwpihKJRAKBAEoM9Kek44FwHJckCYXPEIvFpgeaAZ8gnKBwTnROAMMwdx70DCHUUQ+ft/hGHXZxq0z6hjQin0GP39epK+iRx4qixK8FPTpZb9bo8dP6t0SvXIIgiE8cYkgq9lTTNMQqSl/8tKqqejHS1/l1wFK6Q7T1b4cSPz0ZQj2N+GmdL4UYP633gunFT0+SpRDjp4mPdYe/E58s9p3kk1pBCAmCgBDeKhNJkjzPJ8X3JggiKf4LQRCiKCbkv1AUlW7+C8cwOoJZBoAkCFMy/Bej0YhSS3p9poP/one2tPJfdIBWWk0kxX8xGAx6Zaab/wIhvBO+NwAAne9NkmSq+N6KohiNxs8h/2WW7z2rWc0qjZr1L7Oa1azSpVn/MqtZzSpdmmopAapiaLDtav2VNg+0ly9Zvaoq25D4cJYaGGy9dP56NHPBmvXV9hTtbyih0bZLp840jbFZ5YuWr5xflOgKO6iEx3sb6+uvD4b5nKpV61eVThk7eRupgn/gxqW6qzeDpLNiydo187LSF4CkSf6exo8uXusMszk1S5YtKMuZOt58GoJKLNjX/NGlxq4AlVW1eFntnCxjSk/vAgAA0ARP79XzDW4qb+nG2nw2fbX1x5Zjnu7Gsw2DhqIFa2tLuHTCGGVP18Xzda1DEb5w3rKlCwozeCrN5wjF8fazh894clavW16V/bmJn0lWU3wSTQ6Pdly+3DwmUTzhaThVd9MbSRg1Krp7rpx4770Tl5uaOwMJg2mhHA2NDw15RCkuZ0ILDbRdOn6yg8rPJzydl+sudoUSZKyEPX2N9Vf6BLOJCfddOnSmIwkWEIx5BtvqL94IMmaDNHbt1LEGL3ripBXqbvjocvO4ZjXKQw2Xr3WPBlPF5AIAAE0ODbV8dLXdq1KUNNpUf6XHkxTxBEmyd/jG5ZMHDp++eLl1TEp59nGk+gY6Lp89dPhUXWPrsJgEIAVKUnAiOBKQY8iEE6Ht/PGG3jDFG0O9l+ube7wpgaPEkb+j7uzFEwcPXLzRMz6j0C4A1PDAjbaeUV8sFW3x9v5FkyX/6KAXWKvW3bdlTW2u0tU2ElES2cONGXOWbFy/uNyO8humRD1DrRcudwZDcbt/ZGJ4sH/MturBXds3LMzBgv3dQ9G4+WrRUGBoJGAtX7z5nrsXl1p916/1o9eUGPaNDY2R+SvXbdu5ptKh9je0B5ATJyt5uGcwhNmW7ti5fsVcPuQeGZ9IYVvSFNk71Beks+avv/eupeVWeahvPCym2gNgBmth9dLVS2vyLMzMxmbiBnvBvGVrFs8tNCFETn9CWjA80jLS1CMEUX94lKEb7SFryeKtOzfVFlv8Q6P+YDShPwt31r3+kx987Wtfee6rX/nan/75v7xZ1+9BRggyzoqlm9YsLrMniu9OtaT+c++9fuTSQEBLSTDCFAQFVRNCYUDinNnKQbPFIPX5NE1LsFxDGS2ZRcU5zZ1oJ8tUWRKCYU2Je52QFotGoyHZ4bSSJDAZSFwOBsIAcHGylaRoOIrxJpbhTEbWxMbGxgWAGKUIZTEWDcusi2NYK24wGkCf2weABSlx0ooEQiLEzDabgZHMBqBGBFFUgTFF3RSqmhAMYXSmwWwzYUYDoYSCqppSvgwAgDTwjpy8nAzLYGSGCY4Ya7Jm52Y5TN3jqD0BiuLEtc59B7rO3gh4Deb568p37iitzaET8ZuEcZ/MOI28iWdZIw8GoxFZVm7LNvqEuPz5W79QuDqmQAAwjGR5i9WEHA7NWrPzbaM2I0KEdyoVbD/57rlB64Kt1UXWlEwAp1x/mTxEp/8P6b4zxIvvlMh466nfvPabvefbRsPYa7+rXnvvs9//8jr+dmlxCEkIAY7fKgcGESCDGoQAxzAMYBiGYwCij50xAAgI9QNmOKa/eCqnLJ8qpwbhrdcCGKbXeeo6KQT69YAAw3AMYBiWrhv+9EYyw3ypj00n9zjDZCyZ+3i2fUGDu9uWt2y+Ld9MIPxOQ03Tz3LqTQpCHCSG9eEMb3fx06R7zCxrFAAtGhJivvbjR64TBYs3r6m2p2gwOgX/Bcc5jiM0SRKiMi5Eo7g56cNNcWwanfN2fud/r7y3FYH/wrKEwUgMh2IaFARRAyTPxxm8AAAIkuRYBgaisiwJghRTcGsGOpOQpAgDR4iyLCsRQRJlYHOkafACADAaORrzCeGIYlEESaOdLEOnbo6B4zhn5DA/lIVITBRFGTcYMfy/O18GIwiapQwGijOQLI2jrQkbbGZMionRaEyShbBKuxgi8WZHoOngSy+9uq9hWIaA5DJqdzz31Yc2lGfFb72fkYTBi+/9+qVfnwHLdj2zdXGBGQnoh6Ip/AtFmTNdTFNTT+N5jZvolgvX5nLx4LsAAAAVMeIZHXRPeLxBzT3mdVrNRjbO+I6gaM5iZhJwq3hnZmau9VLdkRaevjksYs6ivPiHYnEjz2dmUm09HTeI4eG+EVixuRC9U7Emc0aWNdrc2N44GOp2RyyL5jqQEycrJr/QcWmg4/qFy2HQ5TNYK2z2FNINcJKy5GSTbV3djed82sSElrXMyad8jUSVhbDfPTYx7vXCkZHxQiLLakxZ64wrTRLCwdGxCa/XQ7uHx3yM084h7Y4RrozqLRnJRJVTJXML1XMDrZcvB8IDAWPuArOJS2jJMm/Hd3+y47tJmPm9NDHsDwRHvQE/GHePjAd5K8+mnK3xCRkyisvn1KzFclZtrC2wUKkDT0wxPyIYU2714qqhfYcPXYW5K3Y8VOM0J2qZmn+g6eB//PJke0TGTeP/wWj3blkwlnKEAAAgAElEQVRe7pwyFWXJn7s2f26iAuKWkqrFawZuvvFvv+SKl227d1NVAoQzoCyusgVLBvv3v/+uz161bvf2eUmcwcYMmflza6v73jv6zgWqaPXOB1dnoidOWpaK5UtGJvYfe6vNXLF++4byAlsquz9BWwoWLp4ztP/Eh5eZsrXb1la4LKneVdXCY11nDr51pK5tPIK1hqTo7j33riiciT1qGB3tvHDo7YN1He4IaB0X5cd271panKaNXHbe5rv73t17ZO9VZ82GXfOKXeb0BvtEBxsP7Dt44upgQJvwj4Ths/evrspN5yY1V7zi4b9Ykfp8MT2yORQKWSyWpOKPpnH/tCiKdnu8Cek07p+ORqMgmfij6Ph48yuvND//vDgwIAPg2rx52/PPWyuRMDcQwvr6+u9973t1dXXxn9yzZ8+LL75os9kQS4WuSCQiSZLFYklrcDNIc/yR1+s9derUyMgISvyRy+Vavnx5Xl7eNOKPIpEIevxRMBi8k/ijcDiMHn8kCEKq4o/8fj/P87PxR7Oa1az+e+nWgEVVVUEQEOED4GOyhg4iQXleh2voo544j0mSpGeLuGujF1uPT0cqNwBRQYjJsgihBIAGgKppQixGxy3VpPS30CNlUQqWjp8UURRlWY5Go+kbXEiSBADQKzZNJgRBUBRFUZSE7UdRFP3XPhqNTmP8otNYMISdTX0gr0dRT4/PIIqizgZKmFwfp6O38/h2FUVBbJYzKUmSZFm+5V80TZNlGb2IqqrKsoz+JSCEev56241TJkmS0LPViwEASDjMnpQsSYqqKhCqAGgAaJomyXL8Uk1KfwsUl6ppmv4uiKVCl6IoejWmz7/onQSFyTRt6Y0B5fdJ5w/IsjyN8ujNQydaoPiXSe8wPf8iy/IkBSb+w3rbQHkSxa7eHtJ1+mC60kFot/wLQRBGoxF9FKBToCiKQpxA6vwXSZJ4Ph4vW+diJLX+on+h+Nl+UngsZqBpFsNwABQASIIwchxicgghx3EotaTzX9BLhS5BEHSMTvo6P4QQQsjzfFr9iw5/QVl/YVmW47hplGeS/8JxHIp/0TRNX39JyooufSSir7+gjF8IgkjJ+ovuXziO+7ytv+gkwFv+ZRIRhp5ep2+h8+t05Fr853XAHTr5TcesgWT4daTOr8MwHADs4wvVknoLlFaePqSY/qXSyq/Tc06riWT5dXqTmAa/brLVoazv3glTTkedIX6aZNt5fLtJMRhnTPoQZHZ9d1azmlW6NOtfZjWrWaVLU9O2NUWMhAKhiAwpzmy18AxKnIYiRoL+sErzVlvKSCZQkSJBrz8s4YzRZLbwhsQxX1BTYuFgKKrQFofFkFwgqJ42EIooGG00W618ouC3OxDUFCEcCISiKs7wZouJQ6nkpAxARYqEQhGFMFpMRjod0XJQFaOhQDAsagRnslpMCJ8nZaY1WQj5QiJh4K0mLn2XjwEAAFSFkD8U1ViLxWhIYRTHVObkaDAQCEUljTBa7RaeTeGZ2oS2pbDPExApnoUybjQZDcz0P+kU/gWqgrfv4pF9h8/f8OOO4iXbv3j/ilxLgp6mCr72ur2/fb0OVu967k/vK040CVVkSZIxhqWJOHUHZX/f1YO//c2JfpG3FS2+695dG2sS8B80OTzaeXbvmwev+mqe/qtnVzqTOFkN1Yi768Kh9z+80hXG7HNW7HjsoXW5aVs4Eyc6Tu177/Clfol31azZsWvDkgJbCk/YQjnmuXnh0PsHzwcLdz790N1zs1J+xSGUfANXThw4dL7ZHaPyl27Z88DWKtvMIKagGBq5cfrtlw50ulbu+cbja+3IlAZNkyRVwQmGwlGdUnT85sm9r+8/F1v13DO7Vs+1pRsu5W45/O57JxsGQ6KWteLBJ3dvmJtlnCEHA2Mt7/38/530LdhVOnKV2vTwjjXzcqcdtnJ7/wIVMTDY0ROyrHvq+zXGviP7GppGqzLNzvhtXw54fYEInVdmQ4nhUgXfaFdbPzVvXonVPHUPFsc725va4aq//Mk98sV9pzs+aqqsWJ8ftwUrQjQUCGIZedkyneyalxJyD3Z0hrMf+NbjecGmw6fqTnctf7wqTQ5GG2u9Pig6t3/rS3Nil49d7uwZzM+y5aXOmCaLAX8AWqwu0pI4XmY6guLoQHfnOLPiie/X0q17T9282DhWsSF3RoIotYg/FFEIe2aWlUzqB1YLhUf7A26joyyPsyESE6LDAyHWnuES0Yflsm/oZmfngFeAAGAEY88rryjMNKNdHR8d96pZq575q1Vzhf0//k1P7+C8kixj8g1DCw51dPS6QwppduU4DVpMxqzZuQ5W6G0ZhM4sC5jo7x0NyYTJWVCSyQS97kF3hMC85y/0GeesmptvDFwLQCXmGWwbGRgLS4Q9t8AOAxHKnp2TKfZe6hGd5QUZMDLhVS25Wbbbjuqm4L8oSsgf0BiDLTPfisUy+fND47JWBkDchkO7SpbcfT9Qjt1A4b9oYsg3crOXKSsvsIIpqw5GgqFAQMypLeZYX4aF6Q54xkIgP27UO2VyzVm2CZAnjxyNJel3oSQIoaBoynCZrdmM1W7Suns9oConuVxQFR3zRCFlysm3G8czTJo7EAkLGmBS5gkIg6V4yXqKJJUrkfT8+GlCOBqVMEum3eiwZJvp3vFRtwBy03ln96QIW/7cVbwyFqibQJ4aKUpkxNtyZeBy08Qw76pdnrukxpFjIhK7J1vN+q0ZNs39EbonUwX/aH9X22BAgwCn+XzKVZjjNKPtfduq1t03F+AEGL8YpnizwTCda+1htPfsvgPXAxpFApXgXRYqEMUr1m5fa+/Y9/6VzJVV5EDbSEAFmCZj7b4qZ9/1S9fcbHWl0R3w+dgxfyRbgWpkoudiw/VOH87IwQhfNEfr6eYWbdm2bHTfK3vH5z358Aql70oPu3yHxZKEf4EQqrIMMIIgSRySFAlEESQ8v4PjOEEi1IMqhd03L104e+7K9dZhanSse/6ydXevKrv97EtVoCpDhiYAIEkCwzQp0Y1/+gEpYnpnNzRNU2RI4DiOUyROEADxgsppSZJkFUCSIjECo0gAFSUxxCspYRiO41gaNwk1VVUVDSdJHMdJigQAyCkn5E0pDAMYAWZm1kCQBJbkCgibU71pT/Wm6dqjCHms6eS+U2OZ87eXF0xnzgmHL9UPsyvuv2e5y3/m8JEh1Y4rsnfY3TfYIjiyC/GBdy+0wuzCPJPsHnW3GqCi8OVLVt+zNbdhNNA3b+2C4mAv3uEb7/WOsbX33LfM2PW7fddFmpYCgdDg5V61NFfyjU64RR+019oYw+0LeHv/gmEYTdM41FRZ1jBZkgDLJsvymVoYThosmXlFxRM+P6RKiwtzXaapugBGkSTF4H5RgUCWFQhwhkGGgE2naARB0biiaaomyaqiAc44ndNWaGJomsSALEmaqskqJI0UieKfP0fCSZIgCS0qa5omxWSo4jSbxs9zxyJJY75rMYUZaLrTnrd8vjUnffzJaN/V48dPXOrxKRAQjLmk9u6tq6pzbIizHNndeOytI8343I07VldmmaZ1tiXiExiDkWGNNMPRBMZkZAJ3cLzh5GDAXlaZx3fEOGd5cUV1kWUhxWfS/kvXFdxkMn5yNRSqsiLIwGhgCdbEMjjAnIUZvqCnqW3ctqycuDYwPKCErBtshqmw7lPwX0jSZLdgrYOeoZ4Jbmgg5JjjYlKGZ8dJ1pZXVcuxBkzimXWr4/KleJvZ6mCbW1pDZdDticmGrCxzispxO7EcZ7GzodFB/wQIjk/48dLSjLQZM2S5OHV4oq/bzUojPpzN5c3TGQd/hiI4C29iwcDwuD/TMxwQoSU/L+VryKkWbreWrOCyScacxq1BAGhH4YI1W3MXShoEOEGZHLlWI6qbkAYuHz7bRZWt33X3wmx+unc+uPIskU5vOOQ1RiKCwmcXzXVIH109WecuuX91fmZh1EW6M8tq5lVbvf19AJCAID492MUoljUZcL8/JIXkYAziGY7KAsepIx+1g63bC7JMDRdvkjlbHRw3VU1OMX4hWXN+Zbm95c0X/sevsdwl259YmG1JNMlV3G1nX//Xf3j3ojsMbKcHRp595P51NVlT1ihpya9Y82ARzsVft6IyyirnVV154YfPfGAqWLR9z2MLXAlWD+Wgu+nU2796/YP6GwPKu61t9z3y3Ld3liB+IoLPKphTbmt44x++P0Hkrdz1hc1F6dsNwV01taUdr7/9z997w1q27p6HygqdqTSmSr6uc7/79W/ePXHNLVnOXdz1+Je+uKnKhbbCiCg6s7C0vLv5jRd++GrUsmjLQzvnO2bIQ8Jg99UT77z8m331XQHMfKblia8++ciaOSgrPxhNGe1UUjSV2NV3n3/lrQ8uNPnJk3WbHnjiS/etLnby8d+U5B0F5Y6CZMx8LKmv8dzpI3vbIocOvsrwriUPff2LmxcUmJL0hphzzfaF7a+/9rfvi0x+9ab7yvPLWeHa6ShlMGXmZTIu587lLb/59f/+QGWLFt710GrbbcbOGJ2RU5EFLhz59799J0IWr9y+pqIsl6x74YBpsY13ZhdwB9oMCxwGbsr9pan5LxCqqizLigZwkqIp8g9mn7flv0BNkURR0SAAGEZQNEWRH/ukO+K/QE2RJUnRMJykPpEnmIr/AqGqyJKsaFCDACdJmmZ+X3WJ+S8QqoosK7denP5EraeB/wJVWZIVFWIESVIkmXiKnxT/BWqKLMmyqkEACIKkKJpAWJdKkv8CNUWRZFkDOElSFIW01poK/gvUPv7MEACcoOhPN9IU8l+gKkuSrGgaBDhBkBRNETj2aVsp5L9oiiRJsgp1ODNB0RQ5xSGO+PwXTZEkRYUQ4ARFUQQONFmSVUBQFEngmKZIkqxqABAERRGYqmkAI0gCqLICcYLAoSJDnMQxqMqKCiGGkyRFkpgmxySVoGkS0xRJAeQfVwYAH/Nfpv4twzCCpAkyidk0hpOMgUz9Xi6GkzSbREEwjKBoAzXddQAMIyiamHbyJI0RFEOkbYSUbM1N1wjFkjN4rdqkXYJiDNSMRPVhM2cKAABAqr4bTtLsH3TxP2hun/pX/OPAXZK+ZZq+9cYE8clMCMpwazUX/1Tuf6xb/6wHjybFZ9A0LakkOlkj/vN6hujZ6jH+GIYlVQwNQg1CCID+n4psTq8llED4ZOsTXXrOiMWYnvRQ4HSbgB8r/pOTNal/6KSsTAJWUDArkxU7PSaL9gklfKnJvnPnLUQ3l6bGdifS3/GWf1EUJRQKoYc76nwpkiTRySk6DyIYDMZ5TJZlURRFUUQMNtcBQgCtAekSQqFILCZAKAOgASArSjgcxuOWalIQwkgkgvIhk61PdEmSpCjK9BgliIrFYnrPT5+JUCiks8R05Eoc6aSucDgcDAaTLY+maTpfCuWT6fAwWZblhAcg4tqSZRmRL8UwzJ0TgiCEoihCCD9v8dOyLCuK8ns+A03TiPwXfRiix5gjOoLJX6o4z+sNWmdwoPsXvemgwy9UiqJIksQwCIACAI5hFEUhJtc0jaIoFK+h12c6kBx6NdI0nb7Yd72DMQyTJv8CIdTLj4iw0JFA0yiP3jz0b4Gy/qIoim5renyGyeQJP81kO5+erU9KJ5lRFEXTn6ODAXorhRD+ni9lMBiS4nsDAJLiewMAMAzjuHixAzqWLSm+lP6H+Nn+gTiOpSjm449KEgRnMCAmhxCyLIvSsfX6TKJUyNK9MMdx6fYvKOuU05YoitTHiv8kjuMMw+iVOQ3/AiFE5Evp/uVO+N76Ly5Kvek8mlTxvUVRNBgMnze+lD5Y+c913GJWs5rVfybN+pdZzWpW6dKU90/Lgu9m/dEDR+uHtezF2+6/b0WpKXHgnTLecfHw+2eChesfeHh1dqom72pkpOn4G/sa2CV7ntpRk3g+BiX/QMupAwdOt/utc1be/9B9C1xJLH0pobG2i4f3HrvsIQuWbdv9wNri9I071dh406kD+080+PmyNVt2bKgttaZ0Eg1VcaL7o+MnP/LZlu/cvKzAno4puhoabj7+/olepnz7I3dV8DM4Slcjw02n3jnWztds3HPXAnN6YyugFB65cvidQ+daA1zpqi277l5Wak/pUcXbSew99+YbB9zlD+3eXFuSznPr6dIUn0QVw4MtDW2erCVbH9iUN3bh3I2JYMIleKH/xoWj75/oCYY9E7HEl9CLId9gV9eIEIu/g6C4O64f2/t+ayDmG0lcBgCA7B/rvna1j563Z8+2KqbvwOGGJCIUtchof8vllmD5lofuWeoavXDw7Ch64qQVaK2/1hnMX/vIvbXmwZZrN/s9Kd1jVMLejovHzzY19biD0Zh0p1dh3Faiu/faxVOnm3rdoxORO75tIxmp7pvNF8+fae5ze8fDarrp+Yo40Xy6rodctH331mqTu7Ghcywopdmm7+Le9z5qae0eDYUjcrK2At0X6650u5G6TPp0ewesyrJvbCzC2CrnraomO8dbDnQMCwuzrPH3l+isuRse+hOT/dxNlN1eNTox2HquhdlqthjindIhHWXL9jxnsBw53oZUVVokEh7xiM7SkoolmZww0nGupUtdWo2IJBEjoYnxIF+wvGJenqCNDp670eq5KytNV1CLA4MeibbWrliY45P7+jrH/N4odCR7DHxqEUZHxcb7DHbXqUYpXb+0lKNw2daHaHCqYWSGYc5ERtmSHVZaOVDvS+5qZk0QPBMRP2vKtjE8Mheeyazd+eVqimWkrgvhQW9IUPST6lOmuPP77fn5u75cXv6u7wibbM1KAx/88pf1/LrHy+fPCItnSk3BZ9A0MRrFcII2cBQ0cIw2Gkx82IqgaYPJSBFYoph5CDVVjglCNCoIWlQQRJmhpz5XTlIEaaRJHANoZ+4UJRqLYQaWokgDS3KMNuIXAEBDkkBFlsSoQpspkjSyNEMDny8AQJr8SyQSlSC0GjmSChoZTIvFZFmNwyxNVhiO06yBYRgcS/1FTLeEkyRDGGiaxMBMDl4AAIAgCcJAUfHoh38sqKriuL+vwd1ty6PmkwYzgRi3ixG02ULB2FhPz8BAzFaZazHGjzu8k/vtdVEch2HM7Q7fTykIIdAiLXt/d0aq3LFlXUXGzJ+r/gNN1ZZvHd+CEAIIoQZS+dukxLydde++9c7BupbBAHH4RM3KbY9/4/HlxpSdtsAxDMBbRYcQIEMQAcAAIDAMhxDqZ3whSOcVCziOYbfqGEAIMDyNh+ZmBQCAojhxrXPfga6zNwJeQ9/1deU7d5TW5tBx4qi1WMjn84ckwuSw8Viw/8KxE62BjDXbFubbjfFbhiaG/YFAOKZAADCMZHmL1cTRiRaJVCka8vuDMchZbFZzcucboOgfGPV4Ws8f6jCu3LxhVZnpsx28gCn5DARuNPGEEo4GfFEq4I8wdiuRso5GGhxzNz/3F4s2t1461cRs3xKXz5C0CJrmjBwcDQqxUDAUDUmsKxMd4UIzlNFECkIkFvNHo5EYyMxO/R31H8toMTPAE/Z6o7wQFCDjMBiYz7xF/FcWxjDO5dVPF7qWXR1F5L8IfR/t/+27R0cyNj26YwHW/1FLKHPNtk2Lih0JdzuiA9cPf7D/TMeEAgHJWCtW3797c22BI8GBl+hw+/EP3jraDBfet2f3ltq4oMZPS/XcPPbbV96+IKx9+Mml81IIWp2+pvAvFG3JzrM2X2g5/f4gK7mZ8q05xkSeV4v6RtobTtZfu94ftZkvldFzirPtU2NfMYa3ZpcWUQYm/nxACo73t9Wdu9zU1qeRF686aspKssxxRn04Z7bk5JlvtFw65iYDvoBt0epcdM9Im+yZeZnaxfOnDxli/gBRuKHcgpw4WVE5pXl83+X6A/u6qUDEMifTlaj1JSWoioHRjmuXLl5pbhM8FouZWVadazOkdJsFiqGJga4rl6813BgByvl8w4J5ZTnmGXGSUnB8qLvhcmNzi4cKZxVal1aVZ1tQpgOYgbHmWPN5GuVmCWPF5qd+tPkpqIqDH73xwvmbVLFhpP2K7M0tLivNtrJxcuDLVj323VWPJfFGAABgKlq051uL9gAAgOrta77YduF6Zxtlc5jM/LKyXBtHxyky6SysXbJWzTctXrsoh/tchAtM0dZwyphVvnRpTSYrhaFzyeaVcxKNBgGAshBwD44oRpsz0+DvH/VH48ZxkEZXwfz1qyvjwb0BAECJhcb7+gOkNb/QqQ0NukNCgnk+aXQUz1uxrMgYDsvW0uU71pUmEwPO2HPKl66otMohgcmp3bRlfvqGLwCYihatWDw/iwjG2PzFyxaWZE3J8ZuOIFQE/5jHF6MdLh6EvOPeiJzqNRKoiOHxYbfIGJ1ZfHhwZCwgzNQ1yGos7BkajXJ2p9OkDA2NBwXErRLcYs5fmL+kzIjKkgMAAIARrKN4TjYjeXrb27sGRgOCoqX3VTXBO9zf67eUFxjV6PiwV5DUBAYp18K7H33uiztrCy0po8HdmaZcfyFoc/78jfnzNyJnRVhyqrY9WbUtNQWbFOcqWfnQt1YmkQIjeWfZ6nvKVk/LHmGwFtXeXVR797RSJyecspYu2Vq6ZGt6cieN2dWb91RvTkvut2wYM4pX7iheuSONNqaQwVW8ZGfxkp0zYgwj6JxFO7+0aGas6aJyF217fFGq+9PM6vPh5WY1q1n9V9Ssf5nVrGaVLv2e/xIOh6fBf0GEZeiUCkVREvJfdD4mIhdDh4OAj+OzUSSEQlFRFDRNmi7/JSGyBHxcn4i8i6QkSZIsyziOp28rW69SAED6TITDYUmSdJZN/CfvhP+ipyUIApEvpfNfUL7vH0vTNEEQcBzX6TzxH9b5L3oNTMPWJ6WTlSKRiCiKd5hVaqV/3N+vvySF7fokrQvleR2xldDKJBYPMVv9SZ2mgfK8nkSFUANA+wS/Ltm3QNEkPC21muSVpfWojI74Sd/ZH/S3mISzTeOVJyl5KOw73ZAOo5pG3U42WpR6S7b7xJH+ginJKrXSK/+WfyFJ0mw2J8V/+WO+dxxN8r2tVmucx27P955aqqrqWJ0/4HvHFS3LJpY14jgJgAwATZIWszl+qSYFITSZTIhIJIvFgphtUkqK7z09Jcn3no40TdPpJyh8b6PRqFfmNMYvSfG99Wu/ps1/0XFZKeF7J2VX07Sp+N6foXS+9+z6y6xmNat0ada/zGpWs0qXphzqa4rgHe7t6h0OQz6ruHxOrpVOfNpRi3qHezoGREt++dw8PlXrA1AOj/W1dY4SWXPnlWagTOE0WfAOdvW4RWtpdWkGm1QAnCZFPUPdN/tGY7g5u6SiPM+SxtOoUBN8I73dAzE+r7g4z5rqEa4qRz2D3d397ihhzS0qKcqyMuj3s6PaiPlH+zt7Bv0K4yqcM6fQNXNXUEI5PNbf3uelMwoqilx0kvdDJ29OiXgHu3vdmrmgtCCTT4xDugNpsYm+zo6+0ZDGFZRXFmXbDP85A0em6K2aHB3vqj95/FqvH9A01eZ54MENpY6pD/sDAACQ/SNNZ95580AHP2/L0xWJ/AtUxFgkHMXNFiMV78i6Fh7rvXzw1TcuTLiWPzmnNCNxILQi+Pqbj+/dX9cRrH7yB0WOZPwLlAIjHReOHG/2xDQF49rd4NF7KlHXdpKWGhpuPn/0g0P1+PydD2ak2r9oSsTdfv74qdbhoEJy9l7f1q0rS5zGlDZULTLee+XMict9QVUSsKyhTTvvXZ47MzfEauGxvmun3nn91Ejuigdy8zPsOOKbQUURorJI0kaWQL96VYuFBq8d3/fh+VZiwcNP3mPnnWlc7xCHm04fPXtjQmNU75Xe0H3b1lTmJDxA/4eKefvdAu9wWPmk6Q4p1O39i6ZI/qHeEcm69L491WzPsX31LSNLimxc/HUrTcM4e27JXAhQal4VvMPtjd30sqVz7dZ4LVIDrCWrpLLSiIqJghCnTY6CitJoB5VsEIYcnhjpHVBz73p4Q174+ofHr1y8uamyNoXhl58W6ygsKnELqYO+TAoqkre/cwzLXrX7wXyxte6jnp6xqjy7MZW/hDA2PjI46Odqd95Ty3a8e/TG9ZbRxblFMxP6AjHWll1YUoSzaJdGTqYLhUdueodMrqoSPiMJJ4ETvL2wrDjsMyLdWx0bbqm7UN80GNAgwGk+v3rVmkVzXGaUYBVl+EbLEMze8Ni9S5lzv/hVR8/QnKKckiRaoeJrPrbvXDBv/eZVVjQySZo0hX9R1UgwCCnaZHeZsICDiw55FFUD8Tk+tC27fPGKwOixG34Ey1AWIr7hMUaU44eN4CZX/oIVK0bGP2xGvJeG4qx5FQuiYc9IXxLkOr1QUkyIhCQuw2bkMyjebIQdQ16QNv9CmHLLa7jQcFfLdK7cSSBNUyP+AMY6TbYsa3jISIn+oKKoAKTQv6ixiBCVcN5uNpgtTp4kxyYmoqBoRkiOOO/Mq6Jq2ruDE8gDVFn23xw6d6bnQrNvjLMvXF28YXVOuYOiENLjLJ9buUgNB0euQyRzhMGaVVAq8wIEACMYe6aVReVgCeMekebsdhtDMgUZsDEYDkdVgDzylIcvH9l/1Zu3fk229bMcvIAp50cQaqoKMAInCAwSBAFQzhxhGIa0o6nEfH1XPty//2h9S6+HOF8/b+mmB568byE3xaYghgEsyUrCMCwZKM8nEkKIqSrAMQzDSBzHcTC927aQ7WEYnq5lAwihpqoYDjCCIDAcx6CqgBRjJKGmaRrECALDMIIgAMDUlIdQTikMAwBPxDL7QxEEl5Mxb5Gk4nS/Jau2ypHDE+hjHxzHMYABgFaHlC23amluVTLF+1iKokAMwwkcAECTGFQ0qGkIPwyaFBJkaejKwfMjtvnr7l5abEnrIhGCbu9fMBxnGRaHqiJKKi6JMczIgZSd5yJoc96CrQ/ZCysv17UxGzcsKSjIYj8nYCWCIBgWl1VV1WKSIqvQZPlMx5d3IBzDWcgYnqsAACAASURBVJbFAkARY5IsywrGsCnlhAEACIoiaVINiaqqxSKSpmIsNzOrL9MTjtNWPq/QFvSImt1emGu0sQnaXah5/6sv/HrfQOaub37lkdW5SdgKtZ54/Y03jza7FQgIg33epi88sWtliQvlvJjBYCDUsCxKAJAhQaGtNJ2AYgIAAEAevr733fcOnhsuXnPPoyurXVxS08a06PalJkjS5LRhTV1jfW0ZfH9X0LU4m01ZxDeGEwxvd2ZmZbns40xOdqbTmvp7yKYpljfaMoyBnu6JEck/MuohKyqcn3WZpimcIiyZDq19bLy/jVBGx2O2+Q6OTu3SCG60mc0GrLNvxGOHAz4RZBQXfZ79CwAAACIzo3qLoxLDUMiafOXWr/x40zMQI2maBsF+dDN8xbqn/2LlF29BHDCcpGgKcYbDFhUaj1wY7xv05mtX+1hLkdVuRHAVlN1mJRRD9tylq1dUZCTynDOiKZobyVoK5i3Mb/nVv/3li7B0y5PfWJhlTbSzqQw3Hf3VP/3P964GRcL2QfPNrz3z+JZFOVO2Z8peMn9ryfxEBYS+jgvvPf/DX54eDcSo9693Pvrlp5/YUBFvR0cODF/58LV//Y/9V7vG1Fcv1N/35Hd+8GA54pfF+dzCynn5V3/5oz8dZip2PvWNLXlp/EwTjft/9cIv3jjbEwXW8uNNz37z8c0LClO2r0+w1uLamtbXXv3ZD0YM83d98ZmqbHs8PNF0RGaWVNQMtL78iz9/IZK1+eEvPbZgpm7RgIGbFw/++uevHbrWHwSGfRee/O5Xn95ciWQdw3ASdcqNERRtoGigShNN7/6/n//6QH1HULOc2LDn6a88tanSGeeGEgwnaZac3o0wtkV3bex66YW/eez/asUPfeO788ozkTi6XOmub/x417QspkmYHh8VCoUsFssMxAfY7fGIf9OID4hGoyCZ+IDo+HjzK680P/+8ODAgA+DavHnb889bKytR0kII6+vrv/e979XV1cV/cs+ePS+++KLNlno41X+N+ACv13vq1KmRkRGU+ACXy7V8+fK8vLx0xwcEg8E7iQ8Ih8OfSXyA3++fjQ+Y1axm9d9OtwYseogqejJFUfQ4dMRgdj2GVVXV+M/r2epB7ijZTmaIHlOvqKr6cQg1BABCqCQq1aT0t0BhQehPTi/SP770L6XXUsoznzShlz99IbmKoiAGEE++Lwr34FOarCiUtLohXUlZmbSlB16j1Jv+OgRB3HkL0etQz+0Os0qt9AohJ/+ijyTRE+s8F8SPofNf9DFknMd0IgY6g0NV1VgsBpIhlQiRSEySJAhFADQAFFWNRKNk3FJNSp/lobyyzn9Bn2+iS6+fSCSSPj5DLBbTfWj6XFg0GpVlWZblhJWpt7RoNBoOh6fBZ9CZLBBCFD6D3kSn4cgmbekuA2V+pHefO/cv+voGhmHpPUiRvCRJ+r1/wXGcoih0F6g7aZIkdTxCQk3CPlCepygKMdvJHw3E5wEAKkWRBEFgGAmAAgCOYTSyOQghRVEovQ7HcZqm0UuFLp33QdN0+vyLLMsQQoZh0mdCb2y64j+JYRhJknqTmN74hSAIlLQQQlmWKYqa3kLG5CACsd70j3jnLUTvhhRFJVzJmnnJsnzLvxAEYTAYklrf1Tsb+vouAEAURY6LtxVNkqTeM9HXd/U/xM/2D2QwMBRFY5g+ySEIwsCyiMkhhCzLovgXvT6TKBWy9JpEWUSctvRfwrSaiMViJEnqHSP+k4qi6GuuHMdNw79ACHEcR0mraZosy3eyvquqKuL6LkmSGIalan1XFEWWZT9v67v6sHF2fXdWs5pVujTrX2Y1q1mlS7P+ZVazmlW6NOWCC5Qjo62n3vjtO22WHd95ZtfcrMQTRc3fe/rtF37x9kUpe9G2R596aPM8R9wzvxBqEGJYgkvdoTDU/OFr//Jvh3vM5eseePKZB1YXGuLPjlXB3V739qu/PtA4Ya+5+0vf+JNNxeizXCh5++v3/8dL755xU6UbH/3KV3cvTAM74ZaUUN+Zt1959b06j6V6xyNP7N60MCvRfchJSZPDg9c+fP3tIxPZO559dBvKR0xWMDJ67fg7r75xsDXsWL776ece3ZiPRC9Imfmeur2vvPy7U61++5KHv/4nj2+ssidcRIQQQgAxDMNQoyNh+ObJl154+WiL17lox+NP7lk9Jyv9GC0Y6zr2i5++dOjaIFO47tE/+fLOZcVW9OVgqKkaxHB8eoG+qdJUlaREQgMtjd2iarbbeLSaFHraGhqHzM/87K1/enap1n+1sTMU76CIJvjcndcae8KRuFc0yONtzZeuhVf+8973/vr+En/jqQZ3gsMFone0q7kD1j77/M9//MxiePJAXQCp/AAAANTQUG9Liyfzi3/3i598Z6uh/fCRnumchkATHL9e3xl27fnhi//362vA4I2bve6U7jEqEX9Pc2O/DC1WK+JHTFbScE97yxC54ds/e/GHe1yB6yeuTMzU/bAAAKC5b17vjhXf/6N9B59/0DbefuX6SOILP7RIZLRrtGU4FkKtbei7cOwiUfv03//sJ1+cr3Y0d416E18Goolh79hQf39fX39f/8DQmC8sKUmdJwpePtlArHzup6+/9YMdfE9H24gnipoUyuHeS4cOn+8YCaav+aJoKl9P8vbydfdaXBkHj4yhtUwl6PN5Y1hxZbHRhGUb2nqCHo8MpsbpqIJ/rOfaDSY7L9PET/kUDPn8/oBYsLaS57zZdsPgwNhIEGTF4fKr0Vh0IgSc5XZrbnaG08Xd6OqWNy1C3LyLRaOBQMySk2dzFnAZTqvSc3MClGSiJU5WwvBYBDDmglKX2ZNpUVv9oUAUZllS9ntD8hlVmx8wZ9QdvxJJj3vRoqFwWATWcpcpy5xvuzLkGRwSgHPGwlXxzJodj1ZBjCKEFmAwUAY6/q+1pknB6Ej78LXG8X5L1pLazLn5nIVNuE0m9Q/6jBlznLm5VnXApfUEIoKgAib+1np04PrhD/af6ZhQICAZa8Xq+3dvri1woA8hLSu+8KfLSBzEvNdwlqWRNi4BAABo0ZFrb/9mv7tka42R/2xP3cUZS+IEnswGpSpLckxmMjkCwyia1KAqSwoAt/EcmhILjHZ3NF+91tDSSxmNanl1TU1Z5m0hP1CRVTmmcQyJYTRFYpgWS3CPlKaqoiwBmiIInKJwhoLeqAgAmn+BmqrKokbiBIEzFEGRWCQSQUo5HcVESYGQZ2icwBgKg5J+3Cx1h/IwjCCI9O0yA6AqsiKrBE0TBE4zFMCgKIgAzFw4PEZSFFBCo02nz/aQzhVzy+IHAqpqdHiiqWHoo2bfGCfjLGm2MTyTEMEjRgRAWkiaJgmCpHBFkjQ1IY+FL1v12HdXPZb0K/1epIGBcqiz6eKVIbJsdaErLuYRAACgKimaGhqs+/DMkGPpro2LC9IJj0ZR6toyTpAERSiipEFCkTUASYK8/ctBTREC7sHenr6BkRGqq8dudBZWld1+jIATBEmQWERWAVBUDQCMSsC8xDCMJAigKJqmqaqmaoBmkd8Sw3GCJHFV0zQoq5qqAYZN/Rm5j0VRJK6fJdKgqkGCJYg0+oJ0CCcInMBhTIEQKpIKNZxMw5nCTwnKofGexstNQzGuuKa20h5rrz95qhVbsH7Tsrmu+L8jFGWtKtpuNxYWjHba85bPt+YgrXeRDKUf1lM1TZUBQVNY4g8ljnc1NjZ1usMqADhpyCpduKiywG5M8EMX8wzcuH6ldQjmL6xdVGFzXzx6pH7AsmDjyup8W6IDLmpg8ErD9RsNzYNq9tqdK6qzZw61PpVS519Ik9Vs45S+7tFogccTAwRntd2+Lgmaz6neeG924ZziU03M9i1Ls51TAyiNFqPZznR290XmSB6fqLDFzvih0oSBNVpMsN3jD01QHp9HsBXloZ88og2MycpE/OMhPxPy+UN4QYEDOXGy4jIcBugODg96OWE8iDFZRv6zbxFJCTfwnJHRRsd9IU/IHZI1Y1Ya1pDjSPK0X75+sUurvmvnuvn5aARJ3MRnV2YbWIMFhYsJAABsbg4fHQ5MuMcNAW8A43M4dga4k+rE9WMf1g/YFm7ZurI8w4jQVdVA39XjHzYQdz22Y0EJ0k0b6daU9wdERttOH97/wdHz7SGre2Bg56MPrSkxx+P8Y1xuaUXJ9YZ3fvIPHGcpXryxvNAS7xsQvKtg/gYzYTXF7f1MRnHZ3NIr7/zkf102GuxVK7ZUZ8X/gcRYq6OwLKfpyMF/PRcjrPmLt9ZmoK9oULwrt6TIcODAyz+NQS6vet22UqQDytMSkTm3Krvr4PFf/Z+TvKVw0abCvIxU/vhrcmio6dj/z957h8d1Xfei+/TpHdMw6L2RBFjA3ptIiaRIFUu2ZMm2XOPYjm++m1uS9+53X/LlJn4370bpTixLtiyrUY29VxAkQBIkeiU6MMBgejl9vz8ORVE0Z+YMOEMy8fz+4Dfgd/ZZu66z99pr/dbBA4fOtIzS5tEJ96492xsKjUnMBikBoayuggJL16kP/uk4jeRUrXqy1prxHTlCaK3lq3eUAwCY0aa3Lp043sn0jvVf3K+tXP/UphV1jiTHM0SttBQpLSlIRHMWNZYMHD/yT5eg2lzYuCXfok/O3kTllCzbXLIsBTEAAKAw5zVsyGsAAIgTh//y8IkLPvPoVOcFQ27t6p0bGvLNibIIYIbitbteKdpAuYqKjI+aGVNCHP2CYJTBtWDNLmvNBlZElRqj3Zo0yweqtlWs3fetomm/SOmtdodVm3CmoaTG4NAkTaCKkKaiRTtfMS/wRHG1ye50mpMtQZTS5dWu32cqnw1xpM7icqU043GttWTlk88VuH0sqjI7XK7MqRcAlNaqdTsN5Ut9HK7NcTgs+rRe7SKYwlTQsPFpV/1WHmIqvcVhVSf6QsxLhsKU17DxaUe1JyyQRpsz1/JQo2BwS+X2r/3hIj+DIAiCEga7S5+R4xnuWLhln6XGE+IofY7TnqN9CHfwiLH+uR//2aaIgKEIRqiNdosmmVRM4yxb5Mx4zVJAPP2C4iqjq9ToSullGGWwFxvsaajW3UBJtSW/0pKfQglCacgtMaRClvoFEJzS2wr0toJ5lU5RFkoZ7IUGe2GG3k6ozQXl5sy2BCU15twy8/w6+0GBqUx5Zaa8zAtCFQZXiSG15fCAQFT20hp76cMUmX48FpuoLLLI4j8kbu9feJ6XmDJkFhMEIRaLcRwnk4IIQkjTtERckuAxjuOkx2TSykjVAKkwlcSiUZplGQhZAAQAeEGI0jQh7xIaQhiLxeTUTSLuzAQ/g9Q/0Wg0c+QJDMNACDEMy5wIafJIRBCJn+R5XuJ/mQfljTQKKIrKJEygaVri1kpJigRRFCXGWDlcMxIP7Ly5rO6Ry3FcLBbLBJnZg4BhGJZlv+Cvo2la/vhJbBcSF4nMIpLWkNRBgmckcgCZrxUEQSLXSfzauxGjaZbnBQh5AMTPG07KKy5REMlRqVLUvPxayYdEShSLxTK3+KWRlYi7MgRpdUksdomflGaa1Jnz4JeS2J5kDoQ0nebH2neH8U+OfuF5XprnD84QCCGU+udx0y/Sx+O2fiFJ8veF3xtCnUqlQlEMAA4AkiBMBoPBIus2AUJoMBjkEPmQJGk0GrP83vGAoqhCoVAqlXL4X9RqtdFotFgsWX7v+8rN8ntnkUUWv4/I6pcsssgiU8jqlyyyyCJTiG9wEdngZHfTheYJ5aIn1jU4DTL8pmJzPZdPHL7QxRpLl6zdsLzGlcjZUDY4//jNcwcOt04pXXUrNmxcVpac4EOI+gavnr3QGcjf8PSGcl1KaXiFyNzg9XMnmjr8mGPB2u1bl7oyF1AjMt6ey6dPX+oKqgqWrFnfWJ0fP958PoAC6xu70XTpRsCwaMOKhbIGMWUIEXdf0/FL42TRuidXFasyHn70ZXCe/pYzJ8/dGI3oK9Zu37qq2qHKxDdT5EODzSfO34yWbNywpMIpJ1trOsCOtx46eHq26IntK2vz/j0mQo/L/xINjFw9d+byxatdo54wLecWjZsevNHU3KOqXV9jCvdcv9w9kdBoD9lIYHpkZIZmEtq9xcBw95XTl31lmzYV4bPtTRf7krK5sIGpvpbjp1o6u9pveRkxpdtGMTYz1tVybVxTVl9tAwPnj1yeTaV4igj2t15tH8PzFtdamd62tsFJf1oTDgkR/2DLqTOXm9v6xudCsgYxZbCesfYrZ443tfX0jfj5h002Is72NjddGxYLNm2pQXovX7nS7Ul+iwIZxu/2j/m4mPzqzl47ceRi85Xr/W5fMDnDTJoQuH70QNPlSy3dk3N+JtVL89Do9avto57Q48n/glHa3EWrt5IEfiEs76MnBt3T4x664MktjeYR3t00MT05x+e54u41+Khnoqupi9q4vl5Bxd+RhOfck5Ne28rvrlzuV3iPtk0OT0Sq9fHjIQEAuDqndNmW7cSli00w1WAYJhyYnfYq8jcsXuWK3jhwrOlmj29NTvqvgQAAALDjI9Mx3LhwwxpXoNV76tb03FxZgSFt+acBqtTnL16/DVdd7IZyQ/lSBaa1V6/YEgsruzyPIOIFNRSseOLZpbjOopv2XRmaDAciyQkuxEB4ssM9bMhtqNbLu/4EQF++aqdSrzrQqZA9o0Ldp955973jHW4eAkxpqtv41ZeeXFFsTSHeRFG0ck+OBZ0+q0p1GrOTx998o5lc9kx+xaO1gMQbCgTDVTqjSa9VYDJJs7hYJBZmFPlmJUao1ASEdCzCJDyACTwXY1AxoauLyESjsRBvMGowlFcrMIQPBcMAJNQvKE5pDCajTkGgqbpwQJ5l6Ain0CpIUosoVAowOOsDIEP6JRIKMxAY9DqKjGqVQIjRDJuUViQFIBiuNpiMei2FhdL1znuBUQodaTZoVbg3U8keE4HQmq1aAEC461oXjRY4822JbmkhTc9c6X33474z3cEApa3dULn36YrGPCp5sKJCbzZF9UoihaO2pmLtK3+y4mu3988IihMkkdrQUgazhTKoUhEKAACA7jv87rE5x+Znl5dayEfJjpmcn2G+tUMgwOOdvvjIbPeZt996+5OLPdNh5K3f1qzZ9c3//K21mvs5HaD3MFTJrs/8Ko4AgN1T9uGNz6OdCf+OAEVR4FhOgAhOEDgKgj3Hf/F2C1W3e/PK0oSx04hCYVu78Aflzg3XUuJ/AQ9vcKAocBzLCwAjiGRUR78DPjLri4b7z+y/iS/ZuGl9dRyClIeI9HFEEEq1UqOgZz1R3hIOsgDiKs39m4erc+p2/vgvVuzqbknO/6JQ4SotPuoLCUI4EhMgrtVn0s5FkLhSg9NMjGGCsViUBTnWDG1eAABqrYYCvkggwGiZMA1Jh0LxeETVP94QaXfv2d/+4r1Wv2Xd3hc3WidPnLxBLX72uScX58gyLiM4RqlJjQLDM0p9He49N4/zUWio5ePf/vLTa3DZiy+/tHt5TioSuen2j99884MLoZXPfn3ZooLHwd8ujn6BIh8LTA73dfePjHuY3r5crarMpiUTUTSgBocjP0d5/MzRS3mxEVZpd7pyEmkvhFCqjQ4bmWTTqM5xOPMtrU2fnBep4QlBUViSm/BwBADkmeDcVF9f79DYBKPv7jPDomKr3M8UpTVYnea2a61XL/RFp2Y524qKzOkXMrfYRo22Xz112o1NBTW5dRZzktQIKQGKXNQ3PtTfMzAyEuX783IN6iKzhkx1t51YBhcLzk729g8Njk5AbdeApazEac7IDc4XQJWOqu0/+evtAABhruOTd64NR40rLfxox42gPd9hNaqSfDRRi6l8nak8FZFiYHqor7vr1vioqn/AaTdX2U0qMslhR1u18dv/98ZvpyIGAKArXf7yf1/+MgAAiOGZkZ6RjuGpcby/z5VrrXOa1VSijByENX9BTb3foF+1dkm+HD6qzCOefhEY/3hnW+u1W36Wj11vUWmdeTmahPoFYNaSuuUr3AfOnu80la9Yt7QqMREUrnWULHOUJKsgqs2valg3O3nw9BlF3sK169aU6ZKUENiIe+DalZsd0zEotl+8qCSMRbL1C6LIcVUsaXAfO39jjMhdvP6JpanwEKUKfcnSZZ7w6QvXu7VFy9YtLM1NyMiVKqBAe0dutl3rGPGHBfpmm8Fkt+pVpOwk47Jk0AF3d0tz98RUKIpcO3vFrDDZMq1f7gLPiKQGF8dGmg9PoLimcv1TmwxJ9ct85Lj7Wi9fuj7Ls0h3R5veatdplGQ6vwX3g+AZbD13ptmDc6Cvo0VjdWxsUCXUL4B0Nu75dmNma5UaEAghy7KhUOj3Jf5odrbjl7/seP11ZmyMA8C6adP21183VFXJKQshvHz58k9/+tOmpqbET+7bt+/nP/95Nv4oHrxe75kzZ6ampuTEH1mt1sbGRpfLlY0/uq/cbPxRFllk8fuIL/gZ5JO5gLsCzDF5u20IIcdxPM+zbCLvJJZlpQdkfjmlgHqpoJznAQAsx/GCwEMofM7PwHKczOJSK+T0ktSf8mslHxI/A8uymdtcSJH+HMdljgJCIusQBCGpCInGQerMeexfWJbFMExOWWlwEQSRv4v/XVkQQhzH5fC/SFV68EEURVEQhIwO1vwgca18wS8VDodT4n9hWTalJSQxawSDwcR1Sum1Es0KiqLyaWjoUCjKMAyEDAAiALwghCMRNGGt7gBCGIlE5HAC8TwfCoUyoQIk/QIAyNx8ktaJKIqZExEOh6VRTspaIooiwzCRSCQUStmHR1rzKIrKpHGSWFSkD2eqkBhzpNkrh/9FkvXgXyDJvpFpvp55QGrabf1CEIRWq5WpuSUqnXnYX1iWTWCSkD4gGbe/8LxGoVAiCAoADwCB4zqtVqahRBRFmb1EEIRer8+E/UXqRp1Ol7n9i/QN0Gg0GRIh0ZJJ1oekncnzvFKp1Gq1BoMhVX0nWQnl219QFJWm9PzsLziO4ziuUCRPtHjH/kJR1AMqcUEQgsGgSqV6rOwvEhMbTdO3RxdBEAzDZB52JGCfQ6Y8KZNg4udFUUzpteDzA1pKz6MoiiIICgDyeTY2mcWl+suZEPPoT5lAUVSqRkbJn8DnHZUhEVI3yjkg3Gnv/Pg678y6pGWlysxbEEhlaO5M8vmdxe5B5ibbg0BiDszad7PIIotMIatfssgii0wh/vYMimzUP+OeiWJml8OsImVoIoHxz0yMu/0ipbPYHVaDOqEzkGxAng7MjE36UWNuoUNOwm6RiwZnpqZmQyypMTvzcg2pZMOCPBOcm550+1hUZbLn5lrSQmITTxhkw1739CyrtNhtlmS5iVOGKDBBz/T0jJ9B1Wab3WZUpxwrl1wGG/bNTk17IgKhtzpzbYaHG1En0kHP9OT0XJgn9TZXrs2gSs+ku48kPuabnpj2BDlcY7Y5bKY0u0J/CZANuicnZnxRSFlz820mjZz19xginn4RuZhn4MqJAwdOjTme/IOvba9InlZYCE/1nP3og3MjrEKtdi1av33jyiJ9Av0lcCwdpRG1RoFjCTpPjHnHrx9961cnx8wrX/2Tb65MGn0k0sHx9rMHT1wdD9CI1rlo6/PPNDrknk0hH5ruv3j48KWhWUZU2qpWPf3c1uIk+UbnDyE609107ONPzws1Tz733K7a9PoKQz4603/+8JErPVM0YSqoXb1z69KCNDvXirG50aunjp7rGA/Ror5i+Y5dO+utD49iCkbdHecPH73QFeToMCzatG/f1uWFmiQthILA0DyLESoKla2MRD443nb44yOdY74Y1OYv2rhrx4oiS8rECTLBzvSc+ezo5SG/wNP6up17t68ot6boLswG3V5GqddrlY8yhDre+oeCyHFQZXe4Ynp5DYPR8aGewTnr03/0ct7E6SNtQ/0j1QULLHHHWoh5p/o6homG+nKjPoHpGzK0AAl9UaVMSxik/XMjgxNU3c4fLLUMXzp28nzLzLJdDpl9zIVmJoaGGeeOV190hdqPnLp2cWBN8YKM5YhloxxmsDjzxLQGBkiAPOsd6Z0UnBu+us/F9l5qGRicKbcbVco0ioLMzMTIiFe59JnvNpC9H5/qudo+vWBT/sOzNLI01BaufGZjY2Xss795f3Jo2LukUJNEv8FQeHrIN6nJqSxQm2RfukDIw5zaJ76xzxHpaW7qmpgORFxmVYIdDDM7eONG+4A7LACA4kp7yaL6qnyTrD2qMN1+/Zbg3PKt7zYS5/7+ra7B0aI8a1EKnzkhOHDxyPlZ8/J1yyseqX6JN9cwhcZRvWR5fW2eWmb1+HAwFKAJZ6GV0pjMCgDDgUCiy33IRoKzIxNzNJvYAwLTO0tWbN5Sa5PpSS3EmIg/jBjNWrXZbNCblP7JcUZeUQAgS8fCQUZjNGv0VrPOoBUnxubkFk4dmKGwdtmq+gq7IgO7X1EQQj4/olLrzLlmrV5DxnwBLs1JckQ6Eo2yqNZiUBsdNi1BRGZmZfIFpQWIPr9h1bq19QVY0ONFSKVBn3hHwfGhgfGzBzp/+27H++/e/OzcRL+P52W5TqGEoXjZpvXLCg14NBYT1Vq1IkU2lxQQc3sYUq21mJRETpFVjAbC4UgKPHT8zM0zn164BQ2OHF06vybzQIJNAYoiqdzTiQIvcAJOkSiCYDgKARD4+zu6CkxwvOPsqRNnWtr73Xh337X61dv2bq5WxBGGIABJoZMghLwgAAxDUQTDEBwDfBINdrcsKAKBByiKogiBoRgKGCaTdIgIgqIJg0YfABBCkecRFKA4jqEYhkCWA/PKTRgfoiCIgojgOIIgGI4BgPDsQyVkRDAMA8x0x9FPL/hMlU/UlxkTLnoUwbUqq0ObO8NAnd6Ro9KRsqc4guII4x+41tQ2SucuWl5g0iQ+XFE5Jcs2lyyT3ZS7wHGciCIojgEAKAKBvCCKcojHRC5C85z75rFzg2TF6i3Ly8yPWL2kkf8FI0hC0s8BogAAIABJREFUQTCRqCBq2RgPIEaQ998LorjCXLBw+VpUrdEOkKtWLS4uzSXS5iqKYhhFECDGCgLPcTwnIGqdfM8jDMNICuVEQRAZTuAEqNYmoYN4bIEiKEVRSAAILMPxPM8jJJWSppYBDCdwAhPCrCCITJQTBYRSZtzNS6Rnhi5/+u6B9qCpcce+zfmhphNn+2DVjqc2VDs0idcghiltpkooiAzQmBy15QZbssD6SO/JD36z//iUZdNLz6zPCbaebJuzL1y9clGxQZHEdhMeaPrsswPn+jw8BDhlqFi1Z++mhnyznG24QqFAxSjPsgDgEVogdQSRjA0CAAB4d9eRw0dONY0aa9fvXbUgV5cpUlT5SJ9+wQ0Wo0UNb7QPhsrdMzFA6HOs9387gpEaS34pynNBN0fVVlck4pdKGZhKqTIZxNbJmbkJYco9GbEvKZB/L6NQqwxmVWh81OsWAtOzXry8LJMEDZkEimM6q0kc8HrG+wnO7WH01SYlmV7uAlSt1+qUyPCY22eZmfCz0FSQ/6ARwcmFkqa8xXu+WbpNwNRE8MbptlGxeNvuzTX2JBuKz4FZTOXrdEUYoZBx9FcWLHvyu+XrWFSB+jtPtHpsC9asaazMUSYXpcpbsO2rBatoHgKAILhCozdoZVq+Ffl56hMtnrEpfz68MUZqVxqMcm4xMa0Sj3jClGNd47IqWzIz90NBnOkm0L7Bpt/84l9/dah1ilYfO7jxpT/+k+cX5yS8JKPyqxfWdjW//odf4ZxLdr/49UXFCbM4EMbC2k0vVSE4nrAfoK/v0kev/+k/nBz3RYkPbwx89bVXXlpfkSgagDLZy2orb7zxxo/f8Fjqd3zrD5YlY4y5C6jGWVBRldPy8z/9wRRRtu1r39takEFjpefGgX/9539850xfGBqrTrS/9sMXNy0sSBu/N64wFi2qaH/zrZ/9ZlpZs+OFb1Q5TKnc1MsBYS8sq7p1842//aN/iFjXPvPq3kXGzH8zUZzSWOwaAECkt/1a00e/Pj/52zd/hpPG1S//5NV9G8v0ScrjGIVjMrdZqEJrdmjNIhvpuHDq008ODb31S61SU7Bsx4uvvryxKkcZX1+jlMZk1SSiI4kLxNywfkXfL/7tvz37V0L+7u/+pLYsMZfS58U0pTu/+/9sEyXa0Ee+dwEgy/+S5X/5XWT5X7L8Lw8Oif/ltkKR4o/lRyHDu5BqkTS+9s6TKVUDAHD301B28ZTam1KtUkKqTX4MRaT65lR7/u5S8tsyj+l0T/F7fiStWLp6OI2vSiMghLf1iyAIsVhMfoiUFGAuM+wdfB5PyXFcLBY36RqEUHqtKIoyO0viZwAAyN950TTNcBwHIQcADwAvCDGapuLX6p4a0jQtp9VSf2bikyJ1oxQWnPaXS5Di/TMqgqZpiR8k6UBLHAsMw8RisXnsXyT6DhRF5exfpIaDeXFfSMUFQYAQJu03juMYhkmLUpCYhmialk/e9BAgnYp4nv9i/0LTtPz5JLH+pLTRkJiZEugX8Dm5iUQ+Iue10qCiKJr4tXeDpmmO5wUIOQBEAARRpBlGZvE7XBtJnxQEQdofyqyVfEhdRNN05shZeJ4XRTGjIqSPk7QaEz8p8SdJB4pU6yOtPTnKBXz+eZv3mpeKSy2SSZol1XAesu6RK/WP/I/9w4HU81/wv/y+2F9EUfP5EZkDgCIIk15vMJvllIUQyuwlkiSNRmPW/hIPCIIoFAqFQiHH/qJUKnU6ndlsztpf7iv3cba/PA53WFlkkcV/TGT1SxZZZJEpZPVLFllkkSnENSVAgfHeunzwk8MD6nWvPLOh2CLjdBeeajnym19+cpmxLdz89HM7VpTp0qK+hNB468F/+22zctXLf/BMg5woUj7kvnly/yfNnopnfvBcgymxB9+9ZYNTN09/9JsDTbN40Zq9L39tS1nmHFKhyHu6z326//hc3uY9uzeVp9lcA9nwTNuJD/YfvjJNlW3Y/cyulWVGZdrdBYXA6LUDbx8cUFTv/dauOm3G3Xe/DGay7fgHv/3oXE/AvPjpV762a1mRNkMOkZCPTXWe+PBgM1e049ltS/NMGaehCPedeOON9y70e1T5y3d/7cWNdS7dw0goLQwd/Zf/773eoidqmVHd2p3rGsptivka+uOtPC7s67t08mL/oI8WobwQU2a05+rl7uiGH//sh9vy5rqb225FEj0uMsG5kd7eiWgscfQhP9l1/egnByZIDQzQsqzt9Nxo58VjzaNRJhQThNQuA8TwxHDHtUFk/Wv/+Q/31kVaPjs5kVL51MBNXT175srNsSiKxtIfFygwgVvXb05Qjc9/5zu7K2Ld1/rcPjbdThL05MDVprPNI36GjnEP3QVDnLx57lK/WPvS//n7ny5n+65fanPPh/xfDvig58bpQ5cnpsO0APkUp9V8IE5dPtlGNnz1z/73668uRrpvdk160n8deT+53t7rnoLtezbVO5BgIMLIiy+Pg3j7F0Jjrt7yvDk/7/CxWXnfAyHomZuJCCX1dTn64TzlyIjf7eFK4tNdCBHPRM/FduoJk0GVwMsa4PaatS//kcVx6EiHzKlDmQqX7HrFkHfm+AkmVb1LRyJeb0SfX5Zb4DIF+vv6+3o8O3MzFYJE2pfs/GqJw/ZRVwZWhcDzc+4ZQZ+TW7KoICKOD7VNzsVqckGcqNN5grSVrX366wbVyZaxR3DYRh2L9n5zAURIEhnW65RRRGBkJKeKRGZnI16F3mWhtLLjsXCdbcneb9ryzx3tQGStiED7oV/84s1Pr09yEOAqS8OO17777Ppyu2wWF9Sx6Xv/aaPAhmdHxyKsQksRqRJCiNGOT/7pX/ZfHImqSlZsXuYQPEG0ZvOTK+yTb/3lZ2DVhgrh0qf7L94KkoXL9nxtvbm39czBCxMaDT3S3T9L9vHfXjrHKvjQ1KUP39t/4NJ4kKzZvGcx7L6lXbz1iQ3et7//1tyqHzy7XBi53MbUPLlxkcN0n61r3O5FEAzHMFR+i3iGZmKs0qrFUZRUECJkWZoF4D6TGYoCGw3MuaenZ7xz1OSUGyfsZkNcXjUUBWhKSwJBUBwn5sV7AAWeY2MCoccwTEnhJIEEA0EAMhbiiGFYkvir+QOKIheLoZgepxQUQxIojEVh2p2wUAxFURxBUQAehX8XQpAkENnoZOv5TlZZU1zsTHiOh5CPsf4RT9d19y2Dc1m9pTiHUsqM3UcQnCBQFJPbUH3djp/8zY6fyHo2LsJtH/6vf3yvC9S/8FpBjj61L4PoPvdZM1j7/b9stAUuHTnlDhpYBsxM+AKem9MGxwrFwIVj3JLn/vhlc+T6hcttPXTQQ9Rte+HZXSWd//jr0QVbNy8IftIzMDve7RsCW/7gZ8sVPe+d6A1DPuQNB9wdtyIOrW9u0jvL+hlNiY2IEzafvnBaBEVRDBEEHkJMFCCAOBJHOwlscPzG0QMHjl/uHJ7Dugc6lm58+uXdi1SPQQI6BEFwKV0bhIIIRQgw/PFK+yAfCEBQFAUQQFEUIRQhgko5Wf69AwpMxDs5NhXgSJMj16biJ9pOfnRq0rVs57r6/MRmQo4L9o6eODF4sTMwp/LNBEq2biyotREJ4qj50Mz46LibpmwF+Y5kgZNfLhmem5yc9IRZEQIUI7Tm3FybQZWMZ4GP+KenxtwBYHDYTFq1su6Z/+tvN1478KvT19rHnObqPG0KAzgz7NUacrT6HLWo1RAziM4kBiPuvoveMa19YS46fGu0rfP9kRYDhWoc9XaMMJv1OVbj3aGRIhej/VGgNxlIvd6gQRHEZFeO+UO95yc0NdXG/qnpSdanrrMolHECZ9PIz6DWqnVKdnLCxzr8fgagCl0caxSuMJaseuH7VY0bWs60U09sXZpWfoYHA0ERGh0RDQeikblIKBRFnLnzioB9DIBiqMagA24m4psN0MEIS1p0+L9bbXk3+PDcUMvp0z1hff2q1UXCwLnWKeeqPU+srTQkm84kaaove9ZhqLk2PWByNS4wOJPxv7CzA1dPHL04Y1q596lNtakY4Nm5kRsXTrXc8vEQYJSuuGHLtpWapPqF8U90XDx6sR9Wr1+kC0dUrpqFVTZjjhmdjjEsK4dk6guotBQXjHEszXMiL1LW/GL1UO/kpdPDusbNubnOQE5B45p9e9fWWJhgEIQGj1zoguiXQ4QQFMcoHLAMK7IxhkcQylJVPnuzr+VGtO6VQtPY+eFBhFq8SaOKR8AYZ0AgT/smOlounDrVfN0/oEAhu3lNlT0R2yhANbn5JS79p4d//Y4ZiWL2usI8c6K+QBV6S2FtFa5WJt710d6JvtZjR05dvjEOo0dKFMsW1OYnNN2LTHh6qP3c6TMXWtpY36EctnH5qkqTTLVPas32fCdy7syh9zGWBprybaVyPYPngejMwLXLTcfPNY+JVgY3U2trCm1puyJAcNLgKjZ2NbUeefsqipPmmiU2HZVm/QJj/sn+9gunzp/rmgYeo15csWxhUcJxf3AglLmg8bnvNwIAuOmr77558doIUau7fGCqI69uaV1FQTJOXUSttBRbEKVCDl+Mqnjlvh+t3AegEJsZaD517vT5K8PiDImK61fXF5hVCQ63qoKGp77R8FSKjVPn1mz/es12AAD0XH3nV4cOdl2/YkL8M4qSDSZ9aqkskNzF9aYDnU0Hxyk+EtVWLi6opOihmydnoMPidGrzqMWW926cOzjRoSYoQ12Jgoe/o7wQymDJV0U7288dHRO8PtRenl+ex944eJ4uWqO1m21c82VqyRatMi4raSKFj1Jae8WydQJhlGUFwwz51au2slTHOK+trKipKzYnLIWpzM4Ks1PGiwEAClvVknVlqEr+laA6x7VwtQmS6tRySCCk0VHWuJ4lu0bCmLmkrqEypT1x6sBJZcHC5bmAMqV9D4cSGkfVitW8pmc0jFtLaxcUmdSZWfnK3OpFuhKAKx7G9emXQJorlq4Q7Cml+ka1GkelxjEPaajKVFi3wgkpkzq9PF33A2JZuG0PZ74+OBOh8tfX1i9wGFO7JkZUZRue3HC9dyTAEmWuyuqSHDOON275ihM6awsNqNK88ekdhs4xH4eZ8yryC5QqtQOoHAqKqtq0LTenIMfIbtjqzCm0YyU5vX1jAdZWUVJZVWTVGNfvEaqcCwryNYbdu3PxwlKDJu64Z/lfsvwv9yLL/5KNP3pwZOOPssgii8ziC/4XKRBeZjEpuB5F0VSLJH5euAvy3yn9kFkNiVxGIpiRmKUECGUWl4gjZMbvp9Sf8iG9Vn415gGp2pkWcXsgkl2Yi6IoNVkQhHnsXyTCBDk0CBLRgVSxlKTcqae0IuT0250WPfgMubt/HvBV6YVUq9v6heO4mZmZlAqLoigx98h5Xho8BEEkOqjEdcIwTP5reZ5HUTQcDsuqNwCM1+sPhyMQSml6aIZxu90xnSyKXgjh7OwsyybPWBKLxaanpzPB/yL1/DzIUFIVEYlEMiciGAxGo9FwOJxUBIRQo9F4vV75h/c7uLPmQ6GQnOelKSodD+cBidIFwzA5Z7GU5nliSGRDmRus+UEQBIqibo+ZQqH4fbG/UNScVqtFURIADgClQuG02w0ul5yyEMKJiQk5B12lUul0OrP2l3jwer0ajUar1cqxv2g0mpycnNzc3Kz95b5ys/aXLLLI4vcRWf2SRRZZZApZ/ZJFFllkCvENLiIf9Y31dPV5yaKG2mJ5DkVCaOZW1/V+2ly+aHGJPk32JiEyN9zZcnXAR5oLKusWlDmT5AAFkI/6pvra2/vdUaW1eNHiRS5tCmpUpEPTQ51tPSMRzFRYU19fasmcK5XIhSb6Otp7RqMKa2l1bXlejiq9wkQ+7LnV3TscVRXVVRZmxitMpP2TPW09c7itZmmVncq849mXARnfcGdr+6yqYuHiCnum2Gf4wHj79RuDs1G1vay2ttxhUMnLFfmgYucGWlvbg7bFDRX5FlmWzscM8WaDQEcmOy6eOHHqykzBU3kF+XKmJjs31nb6ww9OTprr2PyGZPoF8nQ0GAijRpOWTBB4LkYm+1qOHrgYyy9UTF/xBFlqx/qihK6uQsQ3erPp/HU3RoLY2NgUq3tla6lcx1LIeCd7L529NCqQODsxNuknLM8uMsgsnDIiozebz18ajKh05KQ7wJHUykpnGtN6CrHQWNvZYyeaOvmKp+y5rkzoFy4w03ft1P79LVFrg6Gu9GHrFxgc7mw9u/+dE+HyXaZqefoFclwkzMQIhU6FU/J6mx5oPnG+0wsoSpycCgJqY0N5ToZ8oe9CZODy8VOHjx4NrTY68vIsypQ0WnRmYDyis9kt+keZ4z7ebEAwQm3Nr6qr8d9EZecUxdX2kgWLZtUxOatZiM5N9lwdoFYur7EY4w9V1DM+emtCu+JHX9sQaTl4onOgf7KxqCyBKoexkH98bE5TuWrbspzRpmPHWq+Pby4tktnHbNg7PToFXGt3rHOFbx4+2dLaH1q0NEMhSPzk4C0fNK3cu6cg3HrywuS421Po1MgmCEkKBCM1jsLqOi89pkl3Ytg7MnCFOa+8rjY0TlOPIiUpprYULVi44NYtmZoCAACD4alez5jOXleqzZF3TznV0eHRla3etCJ34srxq6OTvtI8izpJIt/oyLWTJ++Jb6xxGlO45UEUOZVLlo/3tKX8XeA9rQc+uEiXbt1uz0mxaHoRr+IooTC5ikvD0729brmzhtBZCqoWuIfcXX4ZT0OeiYU8XpbjE/kFiXQkEg5yOU4LSeB6NYHOBHxhABLoF4FhI6EootOrlDq9VqVTRGfdNCiSt2ohx9DRMKfK0SlVJkytUcGeKS8AGdIvEX+AhqjWbNEoRYMKjkZiMUYAcWPFUgZKKi35paVe960Zue5BKQNXGZzF5aW9I94R+AjUC6LKyStReV36qTk5j7Ost3Pk2G1+BsOC1cn5GQAAAMRm5hiFWasz6JR+rRZMRSIsKyQjHyDNBQtXb8td9AU/gyFFPaF0ltWYhA5td4ozgh29cOBQD1+1tSovxZCltCNBgxEEQVKiC0EQBJHzCeNjcwNN+9//8FBT53gA++xI7YrtL/7gxUb1/ZwOUFHEoAgwDAUARRGAQCGJe+Vtd00URRCAIgiGAlGQ7ZCJQIiKIkAQBEEwFEERICRUfw8GQRAhACiKAgSgKIAZ8JhFEARk1vEKAQiKAIB8OenuQ0NqDSQIXUX+Zoq0OT/nlzLjRPLSIi8ABEWkTG0oKoqIjMbiGnN+uTlfbtXuA0RWYri7IDLBCMeMXPq02Z+3dOPmhlyNjMZlFA/bGgcAALjCVL7u6z+uWrW15VyXYuumJbkOAxmvIykKpVTYTIyDkGY4CDCVKrGdC8MwJUXCMM3zHMNwrIDoTPItYxiOUkqUFQReiDE8K0CdQZZr77ygVioIBNKxmMALDCcSOopMRg+SBQBidLzj2C9e/2WT17rtpe+/vKVWvlEXQXAVZTSpLEal36Q2GSiVrAWo1KkBx7I0zXI8ExEIC4klZx2cHz+mv+fcO7/4+3ebxTXf+t53Xlhnl9kwAAAA3Pi1d9/+zUfnZhfufOHrjZVG8tHfDsfPHyDyLMvQNMsxDE0znEARyZgOoMizdIxmWJZlaZrlKQK/fxEEQXFSoVSp1Wq1QqVSUgnsu1qLJcembmm+MOEghiejvK4+L/GCRzUadY4F6RkdHdeHRsbHo0XrCuUvWqVGa7Zqr/X2TNwKBEanvcraqoyRYwIqL093eXy0+0YfFG/NkeoSvTE1G14yQJFnGYZmWJZlaIblBQrD0rybgaLAszTNMCwLYzTDqigyU4SfnwNVuRbs+bOf75HE8zznp1mWZRk6xnBaAseT7aExe07djpy6FCQSpeXOzy5PDfX0iN4JH5VTo9Ukp2KZHz+moXLt9/5q7fcAAAAIPBOLxViOAwxNs5xA4FjCthFWR4HFVLyobO3aFaWGh86VcT/E0S8CExxp/ei37+w/2znHKjquX3/6Oz/YvcBMJOpUfqbv/Dv/8LPDHSEW1be6515+fs/aWntcBUYYC2s3F9YmqyBqLKtdsqL/X3/+R/9JXb5m71e21iXzuScMtrKF9QPvvve/j81ZFm596dWGFC72ELWjoHJRaffbP//rabJk07OvbJgPT4hcGGtW1o9MvPf2X5401G7b92xFYVqZmQTWP3jh3bffPXip38+r2m72PPPyVzdWWxORqacuwz924+gHb3xyun06hBzqHHzhpZe/sq4k45k77iB46+LBD3/10ememRh18srYS999/slVRenfcSobtm7uf+udfz7xqa3+iefXF9v0D2Hjz/Qe/ac3Pjh0rS8MOtpbO57/9nMbKx0JU/4oCre+9j+2Zr5m8pHlf8nyv9yLLP9LNv7owZGNP8oiiywyi9sbFvg5ZBaDdyGNz8/vtdIPOc/fLvLlq455tCKluqUdqQ7WPN5/z49MiJjHZJufFJllU5179y1+53dGZWXoVWkHhPAL/pdgMCifdUUURZZlcRxPzOdydxGGYURR9Pvj+sZACHme53meYRiapuW8VhAElmURBJFPrhMLBKI0TYsiA4AAAMtx/lAIxK/V3RBFMRQKyZHFcVwgEMgEJQfLsjzPQwgzd3ihaRpCKDGnZOL9EMJgMCiNMsclySwnkZuEQiG/3z+P8xHLsiiKchwnh2iGpmmWZRmGmcfAiaLIMAyKojRNJ+03nuclQQ/O4yPJFUUx6UnzYQJCKPX5bf2CYRhJkvLnk0QLhuM4Scq15UnqI/HzEjcPQRAyO0viCkMQRH41BIoiMAxHECkrLYqiFEHILA4hJAhCzoRAUZQkSfm1kg/pM0VRVOb4hCT9lVERJEliGIZhWFKTH4Ig0jQjSTLV+kjTA0VRObYJaX7iOD4/Q4akkTEMk9NvUootQvbESyyX4ziSJB8r/QIAkL76X+gXpVKZkn0XAJCSfRcAwDCMWp0odkjajKRk35V+JH7t3UCiUZIgCAQRAeAAwDFMpVTKLA4hVCqVGJb8kgfDMJVKJb9WKQFBEJVKlbn9izS4GRXBMAzxOZJWhiAIhUIhx0Z7D6SvIIqiKpVKjn1X+v7N274rCIJ8+y4AIF32XYZhlErl42bfxTAsa9/NIossMoisfskiiywyhUQHIijyHMeLCE4SSX0iPy8i8BzHQxQn0ujFCUWeY1leRFAMJ8ikbsQAAAChwHOcADGZz/9uWZ4XAYoTZKa9UaHAczwPEZyQ3cmpvP1OWzCcIAgMTb9FBUJR4DmOE4D84UlvBUSeYzkRIQgyjr94esQInDSjknnRplEcz4sQxUkyIwP3UBBPv0CBDY3fPPXhe58NmHb86JWdcpg1RDY0eOWzX79xgq7Z/d0f705GiQBFgecFBE/SeUJotO3wr3/+/lWP1rVw49Nf2b22TJvYAAKFmGf44sdvf9Q8V/fqf//mypyEbsf3NiLmudV88L33T133obmLn/jKK/saM0cwJbLh4ZYj775zOFi++6sv7qpNbygCFGPe4QufvfvJqbY5qmjF9r3PbFnk0CWLFU5RBh+cuHbqkw8OXxyOaqo373vpmc0lyfi/0go+4u468au/+/WA85lv/ej5pbIcGiEUBFFAUByVFY8LAACMf+T8R29+eDqy/Nvf2LWq0pjh1S6Ghs9+8M77p29Ms9rle7/1wrYlefoUCa0ENsoIOEnGC9J5OIjLL8VEZ0aH5zDKZDIm4bm4A2Z2fGR4NGYrzZVj1hRivunh/gm8uqpQp41vRWdn+7raOtgV//OXT/OXPj3fffFGRfFqZ8IZzIa806OjIbXdTpOp2tT50NRIT2/A/vyf/JUr2H7szJmTQw3Pl2fKMi/6h4cmQrzabjOlf5cEecZ36+YQnfvUD/e4+MHma1397gKTxhYvFfm8wE6PDPROE6u//ec/wjs/Od9z/vrCojX2h3fqFv23BiYitMbptMjWamI4PDUenFWZihxKg8z7G3/fzRFWoTNT8tOD8+G5yclJT/gLfoZcmyFpfnuphjPXL96I5O79L99fiZ342/fbespybfV5KdhvRdrT3XR2CKtZWl/m0D3CmNl4+gVXGYqXb1Eb1ODojFz1R9krVu/6qoI8KYv/RaQDc2Nd/VRBUW4C/QLD/mAgwLrWlqpVPqtBMTI2Ox0EzoSfKVLvrF77JKk9dew4k6rqZmLRYIDW2RwGc67CZNYLI0MeUJ6pGCTcUr16m0OF7u9M4gUyH4gC75/zAa3JZC+yhn16cnjWx3ACSKd+EWKhSJhFDA6LJkeXq6dG5yanYsCekWuz+wI1Va/cWqCOTJ+Xxf8iCDFPYKhj4toNz7jOtniJY2GZzqLCkn/hLfXbn3Y4j4SuyN9FsHMjNy7cwy+lkadf6InpqEJvs9s0lLLCwQ95Q4GwmCebQUsIDrfs/+h8tPqJRk3mWfYSIsHWH0VRFEllLqIYiiWIhL4DkYvOjXa2tVy+fqN9jGA5b/WiJcsX5t9/487zAs+ICgpHAEHgCCIySdObIQgiJ8nV/QBFQeRZEUNRFCUJDMdANJr+HGlfAEVRGZN7foAQCiyLogAjSALDcRTGGADnk5swPkSeF3gBJQgURQmSAAhkaRaAh6dfAIqiQP41ugj5UHRmKjThjsxEAlOz+qICrVkO9RhGYGiKA6UqaHjqGw1PpVTmNhiGEVEEI3AAgIpCIccJvCDjMgbyNCsK/qFzJ1r8ucufWrsgN4kpIeN4FPwvqQDBcRwnkBArAMDzAgQomfKZJxVxKIrhBCqIoihyvCiIQKHMFGV0piF5KgIRiDzHC4IgIDiRbq4pFMMwHBVjvCiKHMNDESWojAdPQ9Y/2XPpbPNQVFu1bE1jpVN+UQLXlrrWaiiLaXrA5GpcYHCqMmacoCc7my5dbh8PiBCgpCavZuXq+jKrTk73kCSJirTA8QDgNCviShzHZSgKwXur6dKVa609YW3Fpl1LynIeMXkdeDQOi+0XAAAgAElEQVT6BSVUOSVL1xvNNqOqnXpi61JHTvwPnlqv1ZsVPX0D4TJ+1svwlNWaIbZKAAAAlEqpNypCc9MBLx6amwuiRUXmDIrLJFAM05qNcCTkmx5RsXM+VlNspIj0Djiq0qk1CjAx7Q06AlNBVtQ6nZnXxyipMjgLywhWYTeocPS2K7b84gZd3iLCSKqM6bV13wNMabDnl3CaGAQAwSiTzaCQe9GgdDgU0Q7/9Ey4EO2ZwjT1Wl1yvhkAEJSd629tHaG2vthQl298HPYOceogsqHxm0c+/mD/0UuDEX1vR+fTr76ypdKYsH8Ez8Dlj9/6u08vjvtF441g+Ku7tjaW58RVu7jOWbx0hw01GRJOSDKnpKK6/Oqv/+InpzWW4pVbd9fZknl8hj09zQd/8+Hh5ptD/OnpqZ27X3x1Y77MkcU1Nldpia79o7/78yBirln15N6iDLpF+vsvfPzBux+dujEHzdd6577y4rZl5fZ0paFAcMpYWF3Q+dHRfzsVpFwL1+wssxvSTGmGkNa8ohJrx2e/+uv9UUXJ8u3PLpBvZ523UFxlzF+4Mh8AAEIjlw+89/7+T88PhnVn2me+/spTm5bkaZKUV1AGJ5VSUgim48gb7316+OLVWfxaZ9dTz31l69J8c5KtD2HMrV6aW52KmM+B2hYsqx786ND/+ePfClTF5hfKi2xyZiGqL9703A8XPEVY7Db9Y0BeB+LqF5RQ2as3v/CHy3Z9R4AIQal0Jl0yRxDUkLfw6e/9xeZXRQgwQqU16BNy4SC4QmOyJ5kKACC4vqB+9/cL1oZZlFLr9AZtsuMRpjKULHvyh5XrX2MFiJJqjd6YQldjqpzi1fteq90S4RFKozcYMul1rc1f9NQ3Ctd/hRMBSio1BqMundIQTGkuWbv3tYVbojxKaXQGrSrtkw4hDa6GbV8rWRFmRFyl1Ru0D/erqXLUrt/natj+fR4iKKExmPTpS79wF8iSlc98r3bbqywEOKXS6o3azB49cH3Z+n3frt8SYQGpNRp1Knk7LVRpyi1ORLD00BE/PwmpMuaojClkN0BwSm12qNN+nEAwUmOya2R3G4LiSp1ZqZtnRRAUV2pNSu3DGCaM0phtmswdwB6wK+TJwCi1warOWI6oxMBItSFHbch0Eg5EqbModZljSv1dgVjGB+6h4LHYRN2NVGks5snWEed3Fv/B8BiyotxBGuv22Dbz9v5FFEWO48QkqT9uQwpFl5g75AQTg8+jyCU+jsTP8DyPoqjMyF1BEKRg3wSvvQcsxwmiKEIoACBKDed5mcUl1hs5vSQ9Kb9W8iFR5Ei0Jml/+R0RAICMimBZVgo4TupFID3GcZwUW5+SFGl6QAjllJXip+ft23D3VJQTPy3Ro0gZT1KVdY9cqX8yN1jzgLSWRVH8gl/K7/enxP/C87wUgi1THs/zoigmXpzSa2malskUIc0JAEBSmqI7oP3+CE0zEMYAEAFged4fCECfT05ZCGE4HJbJL5WASetBwPO81EsZXfzSmsycCIlfimGYpCpYFEWJX8rn882D/0VSGTRNy+GX4jhOYo2dx5q/w6gkp7g0ghK/VKqCfleuRDkmEVE/PpDIdG4vY4qifl/4vVHUrVKpUBQDgANAQZJWs9lgs8kpCyE0mUxyiHwoirJarVl+73ggCEKlUqlUKjn8L2q12mQy2Wy2LL/3feVm+b2zyCKL30dk9UsWWWSRKWT1SxZZZJEpxDe4CKxvrO3UsdMjqsZndqzMN8mJm+Bn+5qPfnwuWLDu6edWOdLlgSREptpPvvvpdcWSfV/fUZvc3gNZ/1jnmYMHz/b6DWUr9jy7e6E1BacvPjTT03z0kxOtc3j+su17n16TQQdeKAregcsnjpz3OVZv27qqSJ/m13PRuc4Lh46cbpulilZueWLz4iK9Iu3utUJosuPkx6eGqfInnt9coXnYVgAxMt565N0Dg8b1u57dWJm52BHIhqeuHv3w8IXugKpk5dYntywrMaU1FebvInLrwvvvHWwZnlM6G7Y+vXtlpUPzMLwXhdGzv/m3g7fy1pezk5rGDctrSyzzHtR4+xc+HBi8cvrczZtDU/4ozcq6t46Ndl06/vGpW8HwnIdOeh8vMiHf+ODgVIxOHD7Cu/tunvjk4+4A7ZsKyslCwvlnhtqujZB1+/Ztr6ZGDh69LivXye1aRaZHO1s7g+Vbn31qqXX60qHz0/ILpwx+5sbFs02XOycCEV8k7RQNAhsYbrs+GCtYuW1bg2n25rX+mQCXbj8Jxj3c1nzmbPuwe9oTkeffkE6IMzeaLl4+3z7uDcyFZMYhQZqem/TemmMjcpPaAAB4xtNxtukWXv/E3m01WveN6wMzQTajTifizLVTrdHc1S9+54cbnYG2691TcylM5AeQ6+u5MqyoWVJXqAyMTXkjjPgAzYynDzG1oWTNk89azMdOeeXqTNJeuf7Z72hNF/qDMp4Wop7x7gud1DadXqlIIAI3ly7b95pSf+xkj6zpIEYi4ak5JqekuGKJTRWb6rvQOSgsrZH52WYiIc9sUJPfWFHnionT4xe6uuc22zPlRolbajfsset0n/VlYGGKPDc3PcVqbNW1Kwuibf7pm+OeSKXTlN4QR8JcsGzbsyQ4c33qUThgoKaatbvytJBpDsjeLouB0FS7e8joWlpLqOXGT+OUrWHnt2oIBcUOXgqPe0MxnhchAPGLB9oP/eIXb356fZKDAFdZGna89t1n15fbZccvoDkrXvr+chQTw9NN13gMRWST7X0OyPYd/pd/fu/sUERdvnpbo4P3hNDqjU8stU7/9mcH+BUbqmHzR++fHQxQJSv3vbTO1Hvt3KFzIwpF9FZX3yzZh1JLfZxSiMy0fvbx/o/PjwSphdv31cOeEU39pq1r/e/96Nfeld/ds1QYbblBV25ft8Buus9dWNz4AAQlKYWColIg/sRIUqlVExiSoNOldkNR4OhYLBqNxcRoLMZwVALeVpzAcDWJowiQpV8Eno/SNKJUEASuVOAqSpzyxwBIGugk1YznWCbKkzoCx9UKkiKBzxcAIFP6BcFJSqmiMBTJhH4RRTYSRXEdoVQrOIrExFgEikKaY+ZRHKcwJUniCHjomxcAAMBJClcqcZmZAWl65krvux/3nekOBqiu2g2Ve5+uaMyj5AQTIRip0xOQnrl1a2yMNlbl6tWJo7n0dTt+8jc7fiKvGfeViJNkoPnf/vSvf9Wj2vi9PypzmFI7poizZz86Qze+9ud/aA9cOnJ6wmOgWTA15g97bg4rTMuJ3nOnhLWv/s8fWMKXT5y61mn3jfNl6/c9u6e8+x9/Pbpg6+YFwU96BmfHuvoH6bXf+1/Lye73Tvf7xbAn6vfNdA95dejk9PjcDOcNEwUWTHH/uj2KGG6e9g407X//w0NNneMB7Oip2hXbX/zBi43qtHGToAgi5YGVsmamQAyEAIAhCAohhFCUCj9ObpEpAQEIgiAAgttNgZlLl/aQIfJM1O8LxARMrTfoVfJXHaJQ2NYu/EG5c8M1ufwvIh3y+fwhFtOajRokOHrpxKnugGX19kV5piSUCSIT9gcCYZqHACAIrtDoDVpVUrp4gY2G/P4gDVV6nYoiVUte+X/f2nHl4zfPXW6rtBorc9UpjOHUoEdnWq43WDVQryU8QGMMhELTg82BWxp7XS4cebfn9PnOZrMWR7V5y+tzUFOOzWo33c0zL7LRmDcMjBYjZdSbdCiCmK3UuD/cf35MVVujH5p2TzFeZdUShYq6f70ehX7BlebKTa/9Sf2m7pYzSflfUgZGkiq1Ck4HY3QoGIqGWIXVJp/ygKQItRaPxSI07Y9GIzSwOdLvI/dwgGCoRqcFHi4W9IWikShHGHQywzkeb4isd+zqp+8eaA+aGnfs27msJMVJjJCE2qzO0eKUjANHbOTKgd/sPz5l2fiVHQuR0SudIdvq7Rvri8xJ2SqjYzePfnbgXJ+HhwCnDBWr9uzd1JBvTuJQF53sPfnZ+8c74KKdawpI3OiqqC4x2VxO/EYkSsdEkArfJaUkeJrleV7goSASZleRYnhgrunkkKJ+gzPX4c8p3/z8vqfX1lq4aBT4ew6c6RCxL7vYIiiGEhjgOV7kWF5AENJcUeruHmq5Hqn4Wr1xvHl4CMHq1mlUVJxqxRkaKLChmcH2q02tHT3eGZtRi62sLzIrEo6HGPVN9V4/fbnt5mjUqGspJcuKHCZV3FFAKI3BUVJIKKnE04MNzo72NF1obe8ZEfHma+ba0mJ7IpJlVKXTO126rs6WE2484AsY61flyt+CkFqTzWUTmy+ePayk/QGsYH15mi917gbjHe9uv97c1jEszJKmAv3SYodJnS6Vj+KEwVWg7b568/RHPQjPUIULcrRJOjtlQCbkGRu82tp2vWsK8BfzlAvrSp0ZJpRGFdbSdd/6b+sAAIANTo7cbL9ys7vb7wXnig2NpQX2ZBRxqMlQ3GgolidMXbHp6/9j09ehwIxfefdfLvYTRcqp3qucN7eotMRhUCTYGmtKV77wk5UvyG6WBG1h/b4f1u8DAIjupl++cfxad1exU5wcxawr9Vo5JFNfAHHV16iP9Vw/61eznpAyf0FhFcmM7D89xi/e7MzV5+N1mv0dV84ERtWQx0vySFb8HXWAkHqTiwr19rRcCkC3H9UW5Vbm0R0/ezuU16h1Gq2x1qtU/TqdUhWXx/v+/w0hT4dmPZ4QZs4zYkHP1FykrjCJFQJysYB7fIpXG3O0Sv/otD/X5UgQDICrrfkLrPmJ3wkA4OnQ7MhoADfkFWDixLi7ILfQrktUAFebi+qWL4s03xwLG0oaV68tSYGxEaFMzvKlywMXr/b7KWfD2rULMrl94aL+2elxRpVjARTtmfJFc63p0y8AJbS5NY1Lws1t/UEid9HShhJL2tlZIM+EZyfdDKXOsSPh8amZwtISZ8LhSS/4WGB2YjSqcTlJgp4Ynw26XIlnx7yBYApzUZljNjo33BsK0Jgpt8CmBxnM/YHalu7cHTlzsXNiTJGzcMOqRS6zMiVpiLp6yw7fhbb+uTDhWrimocxmI9AFy7arQWFVgRFVW7bu9p1v7Z/18LaSRU6XGsX0UGMhSWVx40qDw2nUmZauMDgqXUS+ru3mgIfW1y5uWFBq0xmXrfHlFla6cvXKzet0ZEWRXhP3e49I8VGhUOj3Jf5odrbjl7/seP11ZmyMA8C6adP21183VFXJKQshvHz58k9/+tOmpqbET+7bt+/nP/95Nv4oHrxe75kzZ6ampuTEH1mt1sbGRpfLlY0/uq/cbPxRFllk8fuI2xsWlmXn5ubkq20p8h3DsFAoJOd5iZ9B+jfBY1LcOo7jMu2QEm0NiqLy49xprzcYjUZFUeJnoDlu1utlZ2bklIUQ+nw+OVwQDMN4PB75rBHyIfEzzIMMRT44joMQyuE0mDcCgUA0Go1Go0k/9aIoRqNRn89HkuQ8+Bmk6SGTu0CipAiHwylJkXCHnyEcDsvkZ8AwTP6JIYFciWnocTPd326g9AeGYWq1Wn4V77C0yNzgQQhjsRjHcTpdotMxx3EMwxAEIXOzJwgCTdMAALVa7g0UwbJKkiQRBALAA0BgmE6jSVyrO4AQqlQqOb1EEIRWq5X52pRA0zTLslqtNnOLPxwOQwg1Gk3mRAiCQJIkRVFJFxjP8yRJqtVqnU43j/NRLBZDUVSlSu7VBiEMhULyz+b3QBTFSCQirYik9ZSIZiiKIskHzeYiimIoFFIqlQ/+qvRCIvf5Qr/IGew7kL6i8gcDQigxSyV4HkKIoqgoivLPpXc40OTPCZGiCBzHEAQHAAKAoWhKraAoSo5VAkXRtJyufxeCIEhdlDnjCMMwAICMipAmm8wPOI7jBEHIWbf34M42gaIoOfYXyfYn5+H7yuI4DsdxOf0mzXPpO/rg/HWxWGzeajFDkPg6BUGY/wRK+8dNemGqr51fNZA4v/9d4D+Mn5x8zLvJKRV8yB2LIEi6JD5uU+LOWs7ad7PIIotMIatfssgii0wh/ukXCnRwZuTWSIBwVpbk6mTxhohR7+StvjFGn1de6dKka8sGufDMSM/ANGavrCuxyDERiVzMOz54y80YSmpKLIndjn+nLBudmxjqH5mmUZ2juKLcpc+gXR6KMd/U8NAYrXEVFbnSn8sNClH/5MjIFK1wlhQ4dMoMNEWg/dOjA7fG/TxlLSgrK7AqH+43C3KhqaHuQb8iv7SywJxJGyfkI97xoWG3qMsvybdpkgYIPDDEiLuvu398LoxpHMUVpU6TWm6C2ccG8VaryEbdPc3Hjxw9P+l66gcvWnX25FOT80+1n/vwvYN9mrqtr1Qk0y+QZ+hIOIrq9GoiUdCXGJ4Zbj305ruXPNbGl8tKLMkDofmYb7Tj5CcHmvqCNS//18IkYQ331IoNTPVdOnayY44WeUTV6wZfeaoqY6RFQmiy4+Lxzw5fRhfsfMaSdv0iMuHJjvOHjpxpY0qffHmvJQP6RYzMDl89d6p1JCiwMcQ+sXHnrsbch2hohOGJvmtn3n/rkLdkz0t58vQL5PlYlGNwUq3A5Ce0FOnQeNvJT49c7MYWPvfyUyZNTqb92ejhpkOfXByOYQSkuR7f7l1rF+TqZN9n095Rd0xjNhs0ikeolOJVFwIEU+ocJcVFnEJuKkxRRFSm3OJKCOT0vBDzTvbeGCKXLa1MnIJaBAq9vbiqSi2XXQdClNSa8ytKon0pc51wYc/U8JiQu/m59a7wzSMnrzb3b6xqSGP45b1QmAsKi90xbWbscyiuNrhKCn1uXWbymUJ6dmp83K9q2PlUg6Jv//Gum53Ti3MLH2LULASkqbCovEihlb2KYCg81e+d0FqrizWpMLOhmMZUUFoU9qnjBAt/GfRkZ9Oly+3jAREClNTk1axcXV9mTRYc9SWo81fsWl1RaJw4/eaRGXcgzMrVL7yv48SnF4KudZtWGuQxk2QIcfmlSJW1pGYBGxgbccudmaTRUb54eWD6RJeczD+Qi0V8kzMUwyWmdUG11ryFy5dPzR7pkOmtRqgMroqF0fDc1EiqhF+QpWOREKuyGNUaC6HRqWHfhBdkTL9g2tzyWlVocrAz/Y54AACUUtvL6xZEg+5gODP6S6Ajsf+fvfcOj+s47/1nTt1egV30XggQINh7702VqpYlSy5yFKfYsXPt5N7kpt845efr6DqOrchWiSRLVjEpir0XsACsAEgQBIheFmV7OXXm98ehKFIids8u9oC0g++jRw+ehzPzzpmZ8+6cmXk/ExUIk8Oit1gzTRQ1PDoaBUWTF4AETbllNbbItbOBMTXJRdF/vf/Esc5Tzb5hg2PmkuKVS3IqnDStonUInSm3apYcDg5exqoak9TbsgpKRVMMAwBJ1uG26ZL7vNEVzV9ZCIHg7zw3LFrcDoNBpW8SBxr37TzvzVuxNNt2LycvIC6fIentM+U+usTpJM7XfW7Pzp37z7R0jZEnz9TOW/3Icw/NNIxjDEKQ7DYXhDAJLtbtGTGGsgwICCGkCIIgkri5LRVBCIlkqWTJGgAa7l1ihBDCkCSVew8BgLI4uZip5B6QJA05GbWzBJlgeqxZs6udOSZSfYgiQRAQQLU3CtP23Op5udVqC7+bPYpE0f76ndsvyQWr6sqyE0anIiEUE4X+c7tODtpnLF83r9iq/SJRfN0L/gvJWPLqNjzuKKxqrG9lV62cW1CQpbtPNvBJkmR1hCjLMuIESZSx2XpP55f3uUiaphhKDvGyjLiIgGSoM2i++oJig9eO/uoX7zX6M1Zs+8rjy6ep/+QgCMZmyiu0B8d45HAU5hrtib4bQ807X//5mzt63Vv/4MUnl+QmUc3Q1UPvvPve/maPhAGpd9SufubZrYtKXAnigYPtp3/zq9d2nMfzv/Tcs5uLrr756olo+bqt62cXOZhEq2fiwOXtH36068RA8dIHnlo03WXQMLpbpe6Ff4EEyZocme6sLJdjhM3JdmfaVENJtZbOZLRnGAOdN0YHBf/g0BhVWZl5r+t0H4sw2i0WPWzvHhxz4F4fDzKKizT3L4TOXbn29/92hYwhRdM0SSZ5MSrpzpi+3lkFIali6miq2vDiD1e/gCHFMAwI9qg3Y6pc/vwPFn35Jh0bEhTN0InX180l857607rHZEDSsG/Xvx2JlK5/YMvCMouaWS7tsNtISZ89bd6ShZUZ2qy4Jalx/IvM+Trq3/7Fq2/tuzjC6w/sXvHMd3/w5JzMuKvt0kDT/lf/+X9/dD7Ik/aPm6+/9MKX1s/KGdeB0Y6SGRtKZiSqIPa1nfro5b/82dGhAEf/5nL7U19//tmVlfF2dMTAwLk9b/zkv3ae7xiWXz915qHnvv3nj1Wo3DkhTLmFVbX553/21388wFZu+cq31udp2E2jl3a++vOfvnu8MwpsFQebvvYHX1pTV5i2fX2ZH2s9+MtXXnv/6BWfaNxzYMuzL724uS5rXBZQKqLcJZU1vVd/+dP/8fNI1ponvvp03SSsvUCCoFiFCe+/tu/Xb/7s7b1NQxHdG9vP/973Xnh8dXkiIhiEBKX2kxuSNKOnGSALo00f/r9/f/OTM21BZD20ctvzL35ldVVmnBtKIEExOirZDXNIkAyrZwAAqO3sqaaTe36174OfUnpn5eqn/ui5zTXxT0sYSrd+64dbk7Soqab4L1P8l89riv8yxX+ZuKb4L1Oa0pS01c0JiwI6UP97Jcsyz/MIISVQMqEwxjzPi6IYn8QhiqIgCAghpO6mLoSQEuyrniwRi8UEURQxFgGQAJARinIco44PolBRZDnxPSlKVKsWPymCIIiiGIvFtAtpEwQBAKCpiVgsJkmSggSKn1KJS+Y4LhqNpjB/4XmeIAg1A1uZyKscz18UQkgQBGVsqOEz8Dx/CyowESkkJpXDcjKltMZN/6K8qEn5F4VCpN6/KPYUdzCeJElS+lhlsUqnQgjjF3u7eEEQZVnCWAQAKUNQEFRmVz8ElfZUXyv1EgRBGU/afbwoPavytUxNymCQJCnhC4YQUnhaPM+n4F8UZJSaoxa3EGip3eSisKxkWVaaLn5iSZKUcw8pu7Pb7SpvzcRdVRql0LbArfkLRVEWSxK3V6S8/mK1xlt8m4T1F1oQDCzLEgQEQASApiir2Ry/VrekUJdU8qWsVqvKYpPSrWbU+mKmFHhO6nWLL6Vm/YVlWZPJZLVatV5/AQAwDKMGRnXX7KFQSHkjEtpK4/qL8g1hNBrvt/UXnuej0ehN/6I4ePVDlrhNatLf+j2Mnz61YpWMatIrKRUsBVT+g5BQ/eCKOZWjPKn2VC+lWE0nF0rJGtX/lgn4qeKnvDUy1bf8Ld0+6tTkvZUyBcd6a2yoabdkx3l8u7faZ4JFpVc3a3WvqzGlKU3pd1ZT/mVKU5qSVho3floID1868KvXf7W/Uy5a9cw3vr6hxpYouh+H+uo/+s+f/Oo4lzN365eef3RllS0d7ov3XD3w1o9/8vF1S9Wqbc9/9aH5OQnOLCFutP3sR6+/vv3CqLNu4ze+9fWleQk+8u/MHvNcOfzmm7u6M9f++be2ZOuTyZukMJI8l/e/+9aO0cKtTz+9pTrBDXZJF8+HBht2vvlfHx4f0FdveurZJ1ZWOw3pRjTERpqO/OaNd3Y0hTOXPv7C1x9bmqUmWjAd4j2tBz544+3djRHXkqe//sIjiwq0o79wXSde+/mrey6PZs598NlnH55fkqnt8Vhh+OwHv/j5+4evC7mPfPPbT6+ZkcQdx/eTxnEAEhfsaWoa0K156e9+9Ocb6aaTlzx+KcFSN9d1pbGxk376X9/9x2frYu1nLrSncs/DF2oyevXymYbhur/78IPvb84fbth/fiRBPQTvUPulltj05/7vj//2y9Njez6ujyRhD/n6OhtOnPZAnVnLy/kUiYPnTpxq7g7rbVaMJrqT8AVJnP/G+SvezAe+83d//Y1FZMfF1iGvkGYr4uCNq5e6pYUv/ein399qHWncf96bXgPjShq72ny5B9T84Y9f+Z8bMnvOnzg3nPYWvKVA/d6j4vQv/fW//vMTlZGWy9eHvELCPBhJAheL3lSMEySkerfId+7ACY/rkf/99s6/XxVsOtNyfTDJKFskeS7v33eidcAf7z4g7XV3/yJLkn/UJxmsrvxKl6Og0DLWOcTL8fe/5KDX542BkullJkdOjoEAwZHRNIQeh7x+r58rmltrMebkOAx0zNMfjF+PSCw6EsTuvAx7QW5mlts4cL09iTYmbPnVG7/09UeXVFvGu7M7fWKy5m55+oVta6rUY4PUS5Zk3/AYtjozcytynS67LuDxxoT0DjcUDYTCAnbkZVlySwvtOtbX06f2JqoJKuIPhmOEMy/P5qosdZJyaLAvoJUtobtnzJjpcuXnO1xut+wPRKLRhLvB4WvHXvvH73zluWeeefaZ5178gx/+17GuEZW8EK6rP6Jz2PNyrfry2lzePxrwhpJwnljwXnnvlXdO9fOU3nQvIgw/092tY4REnoOQpFiGxAzL4EgEJHC+ksALMVHnMpGQoFkKYVHkBQAm+HWBREEUY8iooyFkGRpCOcZxAMTZ90WyzAkCZBiSJBiG0NHYF+YAUB0FDSGgSC2ZBreLJEkqHrxvIsIYiRxHkIBidQxP0wSOxUCaD0nIoigJEsmwJEmwOgZAxEU5ACZhLo9FUZQETFMkAY0GFiMpFlPz9iJRCo6ERvyCQDOOTFOmJS488aa4UBTQFpplaZKkGSjyPJLlRIuX5qrVL/7V6hdVPs8disViMknQLA0AMBtIxAuSKKl4lzCSZIRiw2d37rlmnrN17aIS+711L+P4F4XmATFEsoyBLEsgcWQSJEiSIiRRxJiUJQwwRZDjZsJSLOjpuHp9MEJmlk6fnm+nx/kWIUiCJkjISQgAGSEAIEXFn1ZACEmSAJKMMJYRkjGgEwa2/07qJpIFAazcmYQgmRBcfQcAACAASURBVHa/CQmCICAWZIyxLMkYk2SiAy3ps0wRBJQRRkCUZEgQlIroZADkGD/Y2ne6xR80O2bMLzAbKVPi0GSSppSDfgghWYIETau4eUP09V9vb+/1fsqXyquoLHRb4gREfiaKoiAWkYwAAKKESZogSBW/Qig81Hz1esflC1fG7Is3LpmZb7jn2zd3f1qCJE1WCyGOhcY8QXZsJGJyO6kET0iZLCarXuzrGeFyfT4OkG6rdfyhhkQuMNDVfs1HCfbiqrzx4wANFr3FznT19McqOG9QkBmHM/5ROlLHGs0mfMMbCnu9vqCfs+Tk3l8njyZJBEGa7VYwEAuNDfm4QEjQZVnpBM45WZF6k97IotGxYMQfGw5Lst6VOUn0XYNJrzeCgYA/FowOBQCpc2aoOWNJW4xVq2urVidlS5ftNsRGg95RryHkDwCTW88m5sLJMf9QT0frLT4m7SrMybSomtrpMzNY7kZozBvjqc4RYJxmMqtZl8fccMvRD95vxKufem5muWtyHH18jTN/oRhLblF2S0fD9lfO0izrmrc0x5zAvxCmvOKKwkuXt//sp1aGdFQsKCuwj5sDMhZ39fqnqtcnrKAuo7C4vLBxz3+8fE2PyLyapdXZ8b0F1Fvt+SWu5uMH3rgoyYy1dOksVxJuXAh42s8d2Lvn6NnmUQswcqtXbZhfrBUfM9zXfOLIgd0HTg2gjOEogzbMrcxzpMsZQpqx5Ze5rhw++dErEmnKKJ5f4rameSoHdZk5eXn2K6d3/tdpXmRyZ6ybnj1JM3LWWVCQ1369/sM3LvAxsnDOquoczTwbmV03O3f7qUNvNFGM3l69LN9pTbx9pMuZvnrb9OQc2U1ROTXTc7uOHnn7J/VyABetLsp3qXk20l68eN3jmfP0pdXVmVrcFZG8xhkMBG3IKJ2/inQU9oeAObe0stCa0GET5pxpy7Y+mXHDgwyZBSWlBbZ0jDSoc5XO2viE7mpvkLZll5SVuxO1NKG3FdQs26zL7hnjdRl5ldPGZ9DcLTets2aVzV5tKVkoE6aMnAwtF8hogy2vvHadpVgCjCUj225I65IypIzuysVrKFe3J0ba80rKCuxpH3TQkFE4e/kGc16fX9RnFZdVuCfrFmTIukpql5OGvL4x0ZBVVl6areHEicqfs26juajPyxsyCspK8hK/DRMTm1W7aq0+t2sghE2F06qLMtV96VDW4pnLijWtWZIa9+UhKL0zv8qZrwqM8mlhBldJnaskDdW6oyY6a171wrwkQKakzuwun+UuT8UaZbDmVi+YEDZVvVhHXs2CvBrNyidoQ2ZRbWZRrWYWACB1tpyKeTkVGpoYR4TOmlc5O69yMmyRRlflLNekmAIAAAB1GcU1GcXaDY1J0j1fAJrSlKb0O6sp/zKlKU1JK938PuI4juM49WGjCnWCJEmVSAcFrqEYipNMkiRZlimKUlmsAt0gCCIUCqlJDwDgvF5fOBxCiAMAA8Dx/ODwcFQ1n2FkZEQN1YXjuKGhoVgs/WfNlL3mFGBL6qVgWcLhsHYmAoFAOBwOh8MJI2wRQnq9fnR0NIX4aQUxQ5JkMBj/TOZNKWNJPaXkdt0intA0nbCeCj6Joij1RNo4diVJisVi91ussiiKNP3p/YY0TVsslqT4u5FIRIGVqkmvhr+r9FBSXAwF8AEhTIK/C6HHYDBASAEgAsAwTIbTaXe51ORFCNntdoZJvITJsmxGRoYW/N1J4L8EAgGMscVi0c4ERVEGg8FgMCQccrIsGwwGm83mcrlS8C/hcJgkSZX8l0AgwLLspPF3Fc7RBJ24LMuBQOB+478ovMpYLHazd0mSTNab0jStPgvGmKIoZW4SP1lSxUIIFUCR+ppTFEUSBAkhAQABAAEhTZJJPYWaAQEhTMuv0xd1q6c0ffmV/2tqQkGWJJwsYIxvPXKyr6IyPAiCUJMXIXRr7KXwzt/qcTXthhCiKIqm6YR4LTV2U3h5J0HKy35/zammNKUp/S5pyr9MaUpT0krj8l9kPtTXev7MudYx7KiYu2RxdbY+4e3cnP/G5fpjje2itbBm3oKZ5Vn6dKwPSqGh1oYjx5qGdVkVsxYsmlEU94opAAAAMhfobW441x7KXrBuQZEpOc4CFkODbWcbWrymaeuXT7eqimpJUUjwd146e/pie1iXUzN3fl1Zjimth7oxEoODrecvtobNVQtmTXMlvMA4FaHYWNf5kxc8dN68VbPzdZN3Kl0KeVovnmls6RHMJXMXL5pRrGEwH5IiPZfqz13jChYuqCl2pWVgq5DoaT565Iw3b/mymeXZWp0i11LjuAwkhofaGhubhwXaRI5dOFJ/3RtJFHkrjnQ1nTx61mfMNca6LzSebRtKBz0fhXpbGw4ebqPz88mx9sb60x0Jd4qE0HDHhQN7j5w4caJlKJYkVwWFR/suHd+z/9jxU+duRCVtmeyhGxfONjaPIJtR7L/QePHGUDCt9uRYoOv8kYNH9h85e7XPF9GEBCJ6B640Hv5k79HTjVeH00x/iCsU7r12qfFiN7I64FBL/anGxANjAvI2H9t35OD+Qw0dHq9KyMLEFWo5uvvY4d176q8NjHLJwm0iAy3NbQO+yL29teTuHh+Jgn+ozwts1cs3Tmc6Dm0/3DoYmZZpjnc/LAoN9XcPRfLXP7zB1XPikzND/f1jNdk5E/31j4wO9PUM2xd/b+vSYOOu/Zd7bvRHK6bFJbyTrDV72pzFUdB4LvlwPsiYXOWzliwSmCav1iA2caCzLwTt8zZvKQg1HjzSMzgyWppvSd/PFKQNmRV1C6Mi0cEwGj0L1NsKp89bMih3BLXn5dyuqHfQM8zbKteuXqBv2/Griz0dfZHKKq1+4/XZ1YuWIinaoZ7/F26v//jjncfaRiUMKNZWueThR9fMLnAmEcVAZ05bugaGus4Yk21Z0XP8vbdP4ZoHHijITjJrejWOf5FRLBQGFGGw2AzYYtUL3T6EUNzlGjEWjoZ4NtdtommThcGD0UiYB2CCN9cjLhqNhkRnpo2igFlPEWIwEE5QKskY7O78HHebjkr+pwYyeqMrN8dtN171az0JjgRCPIYWu13PChY9kCMxnpdB0oNpXBE0a3Xn5bq6TD3pQAneVZTe5MzJy8mw9kW0w8fdRYiPxXgOG4wGhs1wmDAaDPjDACT0L4I3cHF/867TI167e+mGaRtm2axqXK/BlZsvjdr03erHhCF/xoZnCpdwEgYAQkpnstrMyQVnsZm5ReaQPfHCxOfE3zj40Z5ew4IHZhU72Ht7y/246y/KzU8QKnd4qOESYYwRJggCAgghxIDEeOLPRmBMYQwI4mY9IFYFGUzlhonbcqeeNSkhhPHNxwIQKm2e5pcUAqA5K0sZJCDdVY8vAmMSYwAhgIAgIMAYqfoSZuyWOY8umPEgxpCgaIJSuTandFJyNWRNDpcp3nXraowmJcT5wyLXcfSjRr5qyYY1dS5dYraNtrq7ZyQIwmAwkAgKsagoxKJRwmJO9LCUTq8zsjGfX5DlaEgEmNKNj8ZG0aHW3f/40mPrtjzzV+9eDPPjey+djtQbSX+IQzgW4xGgTKYJTonuHxmNBgbiWDgiiVJMQIxJx/73RGGlIpYlGR3kBFGSA8EYQdEmi6qBASFJUzo9rdeRNKml6w007frRd55ctXLZ0hXLVm565E9e3tU2lPgaYn/rsZ/+jydXLn/8L9441Ccmt3gi9p7/1Y+/98yfvunNKF84t8x4r50LGJcvRdMWt4ttauq8dBIZRm+IhctyDQnWMkhbljvXzhw5caK1NNjH0RZ3jnv86GxD1rRNP/jpph8krKAp0+3OtTXU72sxMdcHeJhZlJfgqC5GEhcOeDyeUZ+fGxryjOlcmeonpkgSYsGR4eGRMZ+PGBga0We5rVqhNNj8QmdDb9vlU41h0OHT2yrtjrRuTGCZj/hGh4dGxrxh4/DIWLbNbWSp9I46WYyF/Z7h0RGvFw8OjhSSWTajVms9d8jodDnt17puXGql0NVBQl9ckm/RzBiOBUc9g4OjPi83PDzqyzNaDEyis2PW2s3f+dHm7yRpyTZt+Uv/tPwlAADAfMg7NDwwFvDRw8PDY0GTzcTGNUpn5VeVli+k7GtWzC8y3xe/VON4AJI1506fU92/Y+/u8zh34ebHazItiepLZVfUzR/sevfjV69k1qzeNL8mLx0HlglrSfWcpb3X3/2PnxmK5298cHW1LUEOOervOPvJr3eduNbvQx2vyyObn3phdYHKT1gs+Acu7/v1jiOXOkcF+tXXw1u2Pbu5Nv3XvCqyVi6YOzi688CvWy2VKzatrCiwp3NQICncf3nvjp2Hzt8IyVd8gZCw7ZHF5U5dWm2EhzuO7fr1vvrWkQi8GhKij257cGHhZOxRE5aSqprRoV27P3w3mjF760NLEw6MCUjoqP/Nh3uOX+3jidGAL4wfWzevwGnQevm/p2H7e7sON/dG4SehEb/8pa2LS12meAOZzV/xpe+t0LZWyQkqd7aHQiGr1ZpU/FFq90/HiT8Ck3L/dHRkpPm115pffpnv7RUBcK1Zs/Hll21VqjA3GOMzZ85897vfra+vj59y27Ztr7zyihbxR5FIRBAEreOPAABms1k7E16v98iRI4ODg2run3a5XAsWLMjLy9P6/ulgMKiE1E1O/FFa7p+WZdnv95tMpvsq/ggAwHFcLBabOr87pSlNSStN+ZcpTWlKWunmB5EoioFAICn+iyiKJEmqR5wIgiDLstcb734/SZIUbITy1aOmGoIgQAgV9IYacX5/hONiCPEAyAAIougLBFDcWt0SxjgYDCogm/gSRdHv92PV9/WplyiKCgJGOzgLz/MKVURT/gvP8xzHJew4WZY5jgsGgz6fL1krCCGe50mSFITE1y0CADiOU77QkzUEPiUSQAjVcJRkWVYMqRzn8e1yHIcQSg1bo52Unr3pX5RIdvVVVEBQJEmq/OrDGCOEMMZx0mOMCYJQQtdVFqu8aQAA9R+fiGFIkiQgJAHAAJAEwTCM+qdQQw8CABDJFJuUMMYYY4ZhtFscUUaGpiYUbIJKPhlBEDRNMwyTwvqLLMtKX6hZfxEEgSTJFAyBT39xKYpS027Kj0RqDxXH7kTKSa+UX1ZRFD/jv+j1+qTWdwEASa3vAgAghAZDvEMKymQkqfVd5Y/4xd4hvV5H0wyEAAAIAEmSBr1eZXaMsU6nU/NKKO2ZRK2SkdKMWvsXNWuiKYvjOIV+ooYvRdO0TqczGAwp+BflR0tNXgXJyDBMar2m+DLljUhoS5lPpWt9VxAEvV5/v63vUhQVjUY/m78oUpkZ3qZks6Sx2Fspk6oGuPOELkw+e1J1S7uSbfkUyv/cH/fWRAqD7YsZE+a9PVlqfCn1D5XyE921KKDlYJuIoIpbLqc0pSlNKUWNf0M0kvhIKBCKiJg2WGxWE5s4UgNJsZDfF4piSm+yWE2GNB12x0iMhXyBKDTYnFa9Co+IZSEWCgTDvESyJpvdqqeSA8BIfCQYjIikwWk3UVr+LGAkxcKBQCgqE6zJYjUbVDRycgawJERCoYhEGq1mI5NcO6g0IfPRUCAY5hFpMNus5iQbeyKWJSESCgQjHCL1FpvVrNc23h0jMRr0BcLcrc5K81HoO4yJ0WAgEIoKiDTaHFaTjp68w/5YCPvGAjxt0mGRMJqNejb1Lh3Hv2A55u0+vW/H3pNX/ISzeO6mLz+8MNcaPxYTccNthz98++MLHtKWNX355q2r5+enIRYY86HB5v1vvvrxNduyb/z51xabEmYQQv1Nx3d8fLh5MMy6p6169NkHZzpVz9OwGPV2Nu5+56MTHtf6//XtB3LGD6KauPjRtiM7Ptrb0COYXDVLN29dObfAnsaXBIvc2PVTu3+z62SwcMvzj6+blpX2Kw6x4Os9d+iT3SebPRydP2/9tkc2VNsnBTGFRX/3pQOf7DzROsBReQs2P/LQmhlO7SxjOTRweff7H55s6QuRrpplWx/dNL/QoebXLhXxnpa9H350+EJfiEdZCx977tGV07KMk+RgMNfy0b//v8O+uq2lg+fp1U9sXlqbm3LYyt39C5b4QF9bZ8i6/CvfrzF279txoWmo2m3JjDf2cbSnveXaiPPJv/he4eDBvZevtXZW5tY4JtwBKOILeENyVmWpupcDc77RrrYeum7bn309o+v0vkOHziyu2+xS20CYj0QDQcGSkyOT8XA36RAavnq5j8/c9IdfLecaDzS2d/blZ9nTElVxs3yRD/gD2GpzUVZ1F4wmK8wP9d5oH2EXPvv92czV7Ueun740XLkydzJ2SoWxjvb2McPMr/7ZS8yljz9pv9hUXbWyQDMHg2Qh6KdL1n7zoULh+tlTV7r7fdXZdn2ca6hFX//19vZebwwDAEnWkVdRWei26FVtoURHvHLW4hf+5+JpsZ0/fKuzq6+2JMuY/MBAwf62ti5PSKIsrpxMPeJEaMvOdepiXS19ODPLCkZ7uoZCImnOLChxs0Gvp88TIaH35KluY/niafnGwMUAlrixvtbB3uGwQDpyCxw4EKEd2Tluvquhk8+sKMjAkVGvbM3Nsuvv9rkyDv9FkkL+AGL1dne+DXJu08n+ERGVARBn4Ehhf9AfI/NLcnRGMVMHgmGfTwQTv62dtBdUr34QiDv3NKs64yLH+IgvDBz5VrMrw25z6i/19grApbYehDEjf86KtTI4cKRT68Wp6PBYFNPmnHyHcSTDjDyBSDiGAJs2s6TeWjx3BU1R0rmINj9+KBaORgVodTuMTmu2hekaGfLEQG7COebEhaOhcIyD1rwMo9Webyc6Rkc8QVDgTJRPjnGD1z3XeiNRnamoIrM8R6dT9U1K0s5pyx+oICHvOXdFxEajPlGAoxzzD/V0tPYFEAYEY8qnXYU5mRZV263AXr38oWmAIMHI6TBtsuj1qUyUcLTr+I5PLgcQTQGZNLmsdCBKVC7btMzRtuM359yLqqne1sGADCAS4TVfdWb35YaLHt30KqMn4PPphv2RbAnLkdHO0xcut/sIVgxGTEXlqPOGYdb6jfOHdry2faT2uScWSt3nOnULNlutSfgXjLEsigCSJEURmKIpwPMgwWExJEmSINM6HQEhSZMYYFlKC5sPQpDM0SGMkChJgKIIAlIUQVNY5EQAVPs5CMFkrXoLgigDTNEUJCFNASxJiSBeSQpCgiCghhdvIVmWJURQFEEQFE0BAER+khiZsoxkCZMkQUCWoTCWBUHtGcuUBCFBk0Kws6mhqTuSWTWzwGGK/ymry5m+etv01alZIymaFIebDu84MuyesamiIJVvTjzQcGZAt/DhBxa4/Mf27uuXHYQkegc83X0tMWd2IdH74amrOLswzyx6hjxX9ViSTBVzlzywIffCUKC7dlldcbCLaPONdHmHdbMfeGi+seNXOy7zDCMEAqG+xi65NFfwDY16eB92zLaz4ywj3N2/KIdQCIxkUURQFASg0yXCFJE0TbOUEI3J2CTwMsAkRY+/esz7+lsOf3Lg8gg9bdXDD80vTJrRNa4IgmBoCnCCjGRRkiUE9ab76OTR7WIZhoJAFAQkI1HGlJH+bbswhqAokiJRVEQICZyIZYLRTU5jQ4qiKBpyMkKY40RIkqwqy6RelzejMG+GWjvRG/W7P957ctix+OGNCxzBi4cb+43l8xbNKncYEqyURbvPHzx4qKHTJ2FAspaS2es2LJ6eY1f5Qyd6Lh349b5mYtqqzUuqslIDs0d8MVZvZHVGhjUwJGQz3MATHLlwuC/gKKvKM7VxhsyK4srpRdaZtMnN+BsuS4TZbCRvW0nGsijFRGDU60idWccSAGYWZviCY02tI/b5FeTF3oFeKWRbadePh3Ufh/9CUWaHFV7tG+vvHDX094ac5S6WjD/0SYvT5jSiq1e7Q2XDIzFAF2RkjOt0IWW0F85esamYg9bsDCaduyaEQW+wWdElz5hvEHhGhiKZtdp9lU9M+iyXQR4Y7b7h0QmDPkKXa7JotWCokUiD1WTWgd6BEb97bCDAY2t+XtrXkO8uo81sNILB4cHg6HDXKCZM2Tla8F+YzLI5a3V5HOO0Ce2nGvpMZfOXLqrNMTMJ93MYZ2Hd0g25MwWEAUHSZmeuzajWTQi9jXuPd9BlK7aum5ltSnUd0JVnjbR7wyGvMRKJSabsomlO4ez5w/WekoeX5LsLoy7K4y6rqZ1u8/Z0A0ABkvz8ZBfSOp1ZT/j9ISEkBjlMZDirCpxH9p29BjZsKsgyXzh9ncrZ4DQYxtv6GWf+Quks+VUVjpb3fv6/3oS5czc9OzPbmsAJQF1+ZW1Vc8Prf/Z7OGPaqgcfry02j5+DZIzOomnOogQtBAAO3Di3+xc/fPVgpydIHugefvKZJx5bXBoHswpZu6u0uvTyO2//z1/7rRVLHnt+nk29+8IxT8eZ7a++8dGxS11hXeP180995VuPzUk/ZgEAAADhqpld2vbO+//y3XdtZcsfeLysMDOdnlAWfB0nfvXmWx8euugRrCdOb/3SV7+8utqlboVRpRh3YWnFjeZ3f/6Xr0ets9Y/vmWG+q26iYl2lFWW37j63k/+7J2ItfbBp9bOdGlxPQlldhVNdxUhIXp159s7d+7r57a/Y7Hmz1r9yJOPLYkL06FMzoIKZ0EqRoXuSyeO7tveGtm963XW5Jr7+O9/eU1dQZzX6a6CmUs3zbz2zht/8xuezZ+++qGK/Apd7OLRKK03u/PcrCtzy4KWt978h49lXdHMtY8vsd9l7gyZjJzKLHBq33/+zQcRqnjRpqWVZblU/c8/Mc+xmzKzCwyftOrrnHrDuPtL4/NfMJZlURQlBAiKZug79/rvzn/BWJYEQZQBQVI0Td020ZoA/wUjWRJ4QcYYA4KkKIambxU8Hv8FI1kSRVFGBEnTDH27Z0zEf8EYyaIgSjJCGBAkRTOf5deA/4IVYxiSFEVTKg5UJMV/wUgSBVGUEQaAJCmaZkgVSMgk+S8YSZIgiggQFEXTtKq5aHr4LxhJoihKMiZIhma+iNJNK/8FI1HgRQlhACGEBEUzNEl8li69/BckCYIgyljh/pI0c8fb9LlnjMN/QZIgSDLGgCBpmiYJgERBlAGpvJ1IEgRRRgCQJE2TUEYIQJIigSxKmCBJAksiJigCYlmUZIwhQVE0RUEkcoJMMgwFkSRIgLqzIT6Vwn8Z3+VDSFIMSSXzNQ0hSY+30JOyIEHSOkNyhUKCpFkypYpASFCMLqnHnohgyhVVVfpkPAskKFpH3YtPUEhQDDtZXQUJmtXTkxTjk65+IyhGd8crfsdw+9y/Ep9uo1CfhkoyNx+XJG8vhKT1N19y4nOlf1E3/1mJb74VLphQSuCyEtOlJr1SfkIT8m1SWQ1ZliGEydYcYYwBwMpOmeoHxxgrIXMqU6qvlXrdakYt4A+3TIBPgwM1MqEUroyKhJW5NdJSi59W+kLN/OWWrRRieW6OK3Vdk+w4j1+UdoNtIlJa46Z/kSQpGAyqb1YlapOiKJ5Xe0mjwn/x+/1x0oiiKAgCTdMqGRyyLCvQDTVMFkVcMBjhuBjGPAAIAEGSgsEgiFurW8IYh8NhlfyXpNpTvURRlCQJY6xdPJvCf0ntNVOpUCjE8zzP8wnJLAihWCwWCoWUr7akpAwPkiRVDg+F/6J+SN8uhcMCIVQGZPzEoigqj58aa+ZzdnmeV1ppgkWlV4IgYIw/4zMYDIak+C8KlUNlgLkSJi8IgskU7+zVLQCHej6D8q0bv9jbRcRiLMMofAYJAJokDQaDyuwYY71er6aVKIoyGo3qa6VesVhMEASj0agdn0H5+dXUhEIRU4MckmVZWRNJgRehuEj16y8IIWVIpzZ/wRhTFKXT6dSsvyhUGpV4kzhSqq3X6+8r/gsAQPGeN/2L8rTq+S8kSSq0C/VkJqUD4qeHECrwJPV8KWVaqB5+IbMsQ1E0hAgADABBEGwyfCmV1CXt+FLK5IVlWe1efuVHVVMTDMMocKmE67sQQmWYsSybgn9RfgjV5FVgd0qvpeZfFM6TmnaDECKElIdK1tAX7So/yfcb/0V55X+7jltMaUpT+m3SlH+Z0pSmpJWm/MuUpjQlrTTu/fZidLTl2I73tx/tRvlLHnnm6ZWV1oQX/4UHG/a8/dr2M7y7bu0jT2xeVG5Ji/uSQ32Nn7z6q9P6Jc/9wWOz1cBRpZDn8sEPt58erXzsW0/MdiQX1IO4kbb6Dz442Odc9ofPr3GPF1mRDsmxocbdv37vkzNey7S1Dz+2ceE0Zzo/orEQHr544P0Pd58dYstXPfTYg4vL7em/61YO9Jzf+dYn7brqR7/+YK15ksIDAADCSPvxXe9/dOhyNGPuw196cuOcXE1XOLEUG2w58MEnp8XizY9vmJfv0HY9NdJ54o2Xf9lT+eXnn1hVqdEBcu01zpsnccGe5ks3hBmPvPS9F+bGGk80jQQSba/zPa3nzlyNrvr2v/zhhvyxq6cvdkbSUUNp4MqFvdt39jMmHOASHJZQxI31tJzcd7onyodispzkEQ7k6+s4fehQmy8qhUSk1fmPm/I11zf1w/lf/vM/fqDUd+1SW9dIOs8wyHyg88LlfnbBk9/85kOVsavn2zw+Id1PxA20n6s/errbz3MxUbPzMneR7LvWfPF6OOfx7//F87PotoYTl8Y0tScFRy8d3nWmfyjMyVhKdlglK8+ZHfsvd3r8GMb41MaEr+3Y4dNtg/5JCmcfR3f3L7Ik+UbGeIM9p6yuILukyOzpGOAS0Bbk4OjYcEQunVWbmVuYrwey3zOajoB5Kmv68uf+5M8fnu5Qu6bPOormPvj884/OKbEnD/YjbPnTNz3z4uMram3qwCATEN87EESstbyu2F2QZxNDY0FfJH3jVpakMc+wbM3MLZ1Zkp3tZL0DYzEh3cONcZcvf+QrL2xeWGhJH7hGjcI+XzAKnUWl7sK6aS5S/wttrAAAIABJREFUCPT1qDogg7EsSlxMjHGyKCfhECmLe+6jX/valuVVKueAgaZdP/rOk6tWLlu6YtnKTY/8ycu72oZU33bknPP41775xJoaa0qzZxTteP8nP993zYcYkxZBWeo1Dv8FIZGLQUjSLEthVsfggXAi/ovEc3xM0LvMFEEwOhphQeAEACb+dUEQgEiqFAgJiqKJFIGlEAKKSgSjSI8iMU7E2KhnSQrqGYh5XpLkOEzk5IQREmMxgrRSrI7lGZrAsShOdFw2aREkQRAUJAgA0l10XCFRECUeMRRJEiYji5AYjcYAsCbKJ/iCF/c37zo94rW7l26YtmGWzcqo62sIKZomCFLtg1prN3/nR5u/oyrtF0RRVCqLoxghjATfxd98dJ6dvWXDsgrnvXUv441lBUyk1BcgJKsgPEGCIEgoyxLGJJIxwBQkxs8kCxH/QO+Aj4PW7MLCTNM40Vu/2yJJAirH8TFGGBMkkc4TsxBAgiAABsrVdghDgrjzZpbfZhEEpAiCkDHGQJYRgJBMABBRxDis859cMv9JtXak0HBfT5+HY92FBdkJvdcdOcNjAwMDo+HP+Ay5blu6mPd3FY6OXu/s6285W99tWbRu2bxi0z3fvhmH/0ISJouZEANh32iE8Y1F9JkOMsGhIcpoNlr0wkC/T8j2+3lA6CyWcacdWIr4us8fvcmXynYY9f8d/YvRZtPh0dDIcMgY8Ucgk2EwJlxDVy+CJEw2C/DwEd9IgAtGBCbDQlH31yWiE5DeqNPpgScUikXE4SCkdI4Mc+JcSUsYaT93YO/JYcfiRx9YU5PMOqsw1n3pxOf4Umm7U+OukoM9Z3b+8v0z0oqnnptTlXM/nOcdjy/FWHIKMlqOXdz79lUWcOaqLdnmBLswhCm3oDTPumP3f73jhFEyq7Yo3zluW0LWnjf70W/OfjRxDTlvf1vjvj2Hzlzqw9E9pbr5M2oK4i7dIz48dKPp2OEjJxouCr5dmcKChUumqV68EcNjvVdOHTl45NTFYZsjj1k8f0lN7kQPcY8jKqes2N55ov7Dt1tYEbhm5LjTuX0EKcaWV2K/Ut+4561zBMU4p891W9g0D28c8w9cbzpx6PixK0Ng1G5Fi+bXFY/f72mUzpmbm9PWfmH3b9oFX8RauWhajhbdZChZvO2PF28DWI4Nt58+dOzw8bNdaJgh0MqlswqdhjgvhaFw9gNfnf1ASlb5kY4Ll5oOnmm6iKMUYaDWzyzNtiUcG5SzaN6yTboqY82cWrfhvvglGef7iKANrvL5S0Rdyw0/sBfXzC61JySrkbaC6iXrBba5TzJPq5xeW5LGbz+du2ruinLCoN4lGzPz6pY6MGNMZZGWsRdWz3dWkGZa204y5s9YvASaW3tiOnd5TW2Ry5jOCS1Bm7KrFi2VTK09YcpVVjOj2JGG+2LuJn1u9UxLKaC03Mv/vKA+u6x2sQya24eE4tm1dbV5mlzGe4cIg6OodlEOZh2qSXQTUd68DU5Mm+PA1D4n2lm1eEtV4nSTp/GaCZK0Mat8Xlb5vCQKo81505flTU9HvT6TzpE7Y/3TqnmpABCsKadqUU7VopTM0SZnyfz1JfNTypysCMqcP31x/vTFGpVPMqbcqkW5KTaFGkG9LXfGstwZyzSzML5Ig7N01srSWZNiDJJ6d+WyTZWT86BsZunCtaULJ8WWprrnC0BTmtKUfmd1c/4iiqLf71cfL6tEi5IkqZI6gTEWRVGWZa/XGyeZwn9hGEahXqqphoLbEEW1R21ifn8wFosgJCj8F1H0BYMobq1uCWMcDAZV8l/8fr8WfCalGRFCWvNfJEnSzoTf71fi9xN2nCRJkUjE7/cbDIZk66OERCtgkISJFZBKykwWhf9CEIRCgYmfWOG/MAwzcaiCYhchpB6uMjkSRfEz/osSBa+yigrM5VZguMosCqgiTnrlbUyqWEmSlLddfT9JynNCqDwqhJCmKJXZlV5UM8qV9tQCyXELU6IpnAVjrJ0JpXCFzJJwyCmDTWnMZP2LJEmiKCrZ1fAZFPyQmsRflIIiUrKraTdJkiiKSs3W7bpV7fuK/6LACQVBuOlfFB6Sev7LLb6USkCOMkp4nk/Il6IoKim+lDJAk+JL6RlGIQiJANAUZUqGL2U0Gu8tXwpCSJKkyWTSzr8oSB1NTYiiqPx6J+S/kCSpwKVMJlMK/BeCIJLiS43P905sCwCgnu9NkmQcvndSdkVRNBqN9xv/RZnNTa2/TGlKU9JKU/5lSlOaklaa8i9TmtKUtNK4/BdZiA53XW260unH1sLpM+tKMnWJg5Hl0HDnlQvXOWfFzDml1jRtPsiRsa6WhnPtPsZZOK12RnmOKdGSoBT1DbY1NV33RPWukplzZuaZk3GjWIqMdjc3dwQMRYvnlJk0vREao8hw59WW9qi1rLq6NCPdB1BlITzQ3txyrTdMOUuqa6sKnOm75/uWEOcfaL3YOka5p8+rymInMaAO8f7+tgutHjancnZVnk7LEBMp0Nd04VLHSNSYVV5TU5FtMyQfmp+cBF/Xhfpz/sxZc2pL0j4wJk3jjAYkRoevnz1Z3+6VWbaveyBqfmLdtMwEp0uFsd6Lhz94/+CAs1YomJ0m/4IiA20Ne3eejBUU6YbOjgYFdvPK4rgnGuWIr+dy/fELHpIBsd6eQcHy/Poy1QdLcdQ32Hxi1/bj16LutbUzijX1L1Kg68KJg7sPXGBnbXYUptu/IDE8cPX0yTO9IUSQAx6voN+4pMJtTu82phgYbjt/6MMPG6Ku2bbaskn0LygweOP80e3v13sLFtLTKnJ0ccJpJyqu/fSB4y1ewLJoYDAI2NWzKzI1OgutKNh17uTJT95+L7hQl12Skn+JDrf3RSzurAzrvbzT/O6jAUmCb6BnRLbXrV83nb1xcPuJq4OLypzGBBdtU8as0hkzR4yxNB4Tj4729XT2mxf98ZdXRRo+OdDSfn1gQXF5nPbGsZC/r3fMNG3JhvmZPfV79zVe6FtbVqy6jUnGnFVcXeeVroVprWMuCcrkLpkxvTroN6XfFJIEb98NL5k9d+OyAr7lxJkbXSMzCjPM6Q1MgZTOmV9RWxPq49jJjVGFlN5ZVFlbPdxB0BpPJuTB5uZRS/nSNYty+8/uP9cz4CvLzzAm6LNo9/mDBz8X3zg9x65ul4fUu8rnzKppaEltYEijjTvfP8mVrd+YlZlK/rRpHP8io1gohGnSZHMagddu4Hq9MkIJlmtoS0Zh1QzPDc8VVbeVqRLiIpFwUMzMyWBoymqkieGALwxAHP8i80IkFIUWq0FvsZqNVl10xMOBYrXBKZA12QrKygf7ujujmr8uhDGzoIwe7WhqTgeJ63PCMooEglDnMtoyLSGzgRKCAUmSAUirf6EMtpySirJr3d5uPLkh8NBgdxWXl+a2eEaSMCz6Q1eOXzt8weu3ZsxdUbpiusWc+GckNjzG65xmi82i95vNYDASEYSEoB7GWVi3dEPuzM/4DDb1UUsGV0mFK5BlbUulTYWeEzt3tUpV66vy7bp7yyUY54FvXtxJQoKAmCAIoObySQghTPdPGIEQiREgSQIAgoAAYjkBIunmpaMEASEgCEgSAMlJko8mBS5105J2Z2QxwBghqGBgICQgRsqdT+kVBJCAAEANik5kGaaAs6HMhorl1dlzJZmkDCZW3TIKkmQACaUdIUEgBFU8LGVyFlQ4C5KtoKLUhgXigxGR7z6147Q/f97qtbNzTZpPwRNoHD4DQeh1ehJLIs9LBM/FoMmU1rcORYfajr7241cP9rBLnvvT7z08wzQeXJFlCdZADsdEjDlexIA0GOJ/jJIkqWcZHOYkSeR5QZChxfFbuzw2EREEodfrYQBIPMeLgihBnR7+tz/wBElSbzXokyJFAb3FCERB4DhBlPiITGcwZOJluUDTrl/84vUdFwZEDChDxuzN3/i9x1dWZGkY5S32nX/3rbc/OjZSt+XpryyYZk+wnDEZGse/0JTZ7SSbWgfaLpqMAx2RnIU5hoRoIowkgYtxvCAIAscJEktT48ERCEPWtE0/+OmmHySsoDkjI9NtbDh9oj+b7hqISpZZ+Za4GQiTyZiZAVt7evqsoe7+3mjxyqIkvggwRrLIczwvCAIX43iRoWjNOLxY/rTFRIHjBUmmyPSB/AiKsma7wLW+/rYLIuofFjLmZBiYdC+/YiRLAsfxvCDgGMcLBpbRdMftTssix/OCwBNcjBPMpI7SaAWILqvI+fjM4I3WVuTt97GZ082mxCSNifAxMZJEQeQEUYA8x/GiTFMqBgbtyi7McJTMLF++fFGZbRJZGeNrnOFG6ix5NbPLOt756Cc7cOHKx56f4bIkekml4bbj7/z7v+xuDgmEtdEz9tyTDy+vyZroeCbs5TVzF13/z1f+5HvGimWPPrW+NhFDjLa5y+tmtb/73v+3byxjxrpnvzo7iekL5oZvnNn+y7d3N1wf5umWnquPP/f7j83R6noIX+uRd956Y8eZnhi0NjYPPPXCI8uqcw3pekdI1lY0a2Z++6/f/3ePrmrdo09Oy7KrZM2qluzvvbT3/V9uP9w0FIK7Wjqefva5p1aUTkYkDA51XTz0wevvH2rpDwNdQ/tjLz775NLy9AdkAAAA0M9ev/b6G+/87MAO96xNT64scVu13SYLXz/65jvv7zre5EWNl09dffbbX15TV2BO2He6ovXf+Ov1mtYsSUElDCkUClmt1qTij6LRaFLxR9FolOd5h8MRJ5kgCBzHJRV/pERam81q2YjRkZHm115rfvllvrdXBMC1Zs3Gl1+2VamC8mCMz5w5893vfre+vj5+ym3btr3yyit2e/odUyQSEQTBarVqF9sRCAQAAGazWTsTXq/3yJEjg4ODCeOPJElyuVwLFizIy8tLIf4oEomojz8KBoMTiT8Kh8Pq449isVi64o/8fr/JZLoP449isdi9/0Kb0pSm9LuqmxMWWZY5jlOPkJBlWRAEpPq2CwWuIYpifF6MIAg8zyOEVJJTlGpDCNXPvGIcx4uigLEIgASAjFCM51nVFBuleiorphKOk5QEQVCaUWs+g6YmOI67xdaIL0mSlFltLBZLYf6i8F+UjZ/4iZWJvDLwUpi/KJwEJYpazfyF4zgFYpCsoS/alSRJQcBMsKj0iud5SZJuvpZK6yTFl0rWvyitz/N8nGSKf1Hf6Lf4Uur9i8DzoixLGEsAyADICClG1eRVnkLNUytkI5XFJiVRFCVJUl6btBd+y4TiSbUzoQwGSZIS9rWSTOmjFPyLMqpV+pdb/i5l/6L8QqvxL+kaG4p/UbosLQWmS4IgfOZfSJI0GAzq5y8K3IymafUfkApGzGiMd7ZfYT8ltf6iDIX4xd5RjVhMzzDsLf4LSRr0epXZMcZ6vV49/0V9rdRLacYUYCjqpThQTU0IgqAgoxL+MEiSxLKswWBQs4byOSmUP2X9JWFi5dyU+iXFL9pSuFk6nS5hPZMd5/HtyrKs1+vvK74UAICiKI7jbvYuQRAURamfBShISgXApSY9xpiiKFmW46fHGCtpVBarMK4AACrTAwBEiiIJgoSQAID4lF+X1FOo5Nepb5ykpPxIUhSl3eRCcaCamlAKV8mvU543BdSbLMuKITW9psAJlbcgtfVdiqJUdo0yV1I/zuPbVR5Qi8E2ESnst6n13SlNaUpaacq/TGlKU9JK4/kXxAf769/7l997fNOmbb/3D+82jkUSL/VjxHU3fPC3X/vKn/7r9s60LWbjWH/TR//naxtWrn78xb96+0R3LPEyFhZ8vcd++XcvvfBH/35iREyyJlgK95//6O+//Y0X/+H9gZgGcYd32OL7zm7/pz/86vf/7/bm0fQXzwV6Dr3xd19/dPOWL33nx785PxxO3IlJ24gMXdjxk28/s2XDQ8/95euHevnJW2XEgq/t4M//6MWX/uq1w15RRYDcBCRGh46/8TcvPfu91463+rR/RMz1n3j9b59/eP2KLc/904fnBsLJm8RIlmV0rxd9x/EvEhfoaWkds2z6439++S8fslw/fdETkBJVNdbX1nThgsdWmpvGZU1xpLW54WJ40b9s/+gvHi7xXzpywZPIYXC+oRvNl/tBpsvIJv1NigKegatNbZwlI5MdLyYqbZJGWy5e6QuQGVlaXKkqcf6Oi9cjedu+/8P/862Vhr6max5vul9/YaDzWks/tfKP/u2Vv9zmClw+dG50ska0PNzZ3to5QNgy7ZTmYXyj549cGEM6u8OiehUV8WHvcH9PT3d3T3dPb/+wLyxIKn/r8Ni5Iw2B/Kf+/t1P/nmT0HruSvtA4gtW7ihADHc17N57sm0wqK3fTaS7L+jKkhzw+iW9JSO3NIPA+ZbGbg8vF4L4IUi63Jo1T9ptew+mkc+AQz6/P8AXLKsyGbzZDn1f7/BgEGTZ4uVh7fkz1z9uzDi8/wCX9LgjrDkVqx552nj0wNEuzS+UoV0z1zxSaDd9eEWDeZIsyb5RLzDbM7LLsiMhO9s77OWEApC8zx1fKBoKh3lgq3CZsyz59nP9Y339MZCp/U2tAAAys3zelky9tKN+VGuWHACZCx75cuHlPe82qPdk0d7Lez/eeaxtVMKAYm2VSx5+dM3sAqeaDSOuZyCis7lyssw6Q3WusG8s6AuhXKfanzsUHbz4/ls7PSUbaoyJYI8a6+7+BSMk8TyEJMUwJKYZGseiIOFUiyAJikn3/emSKIscMrAUhAxNQYi4hAcHIIQkSREpxrpBCEhyshANBKHdGjvGSOJ5ggQkw9IcRRE4xgGc3kNYsiRKokwyDEkSDEsDiPkYD8Ck+BdAEACQyRIaZF4Y6/V2e2I8q8/Ot+dnMIya8FWKpogkO8pUtvjp7yx+OrnqKeI4DhEExdAAAJOORIIoS7KKxVIsCxKSQ331e471O+dtXTWnwHqPL127u39RtlchBkiWEZAlCTB0CqyN8YXFsLe3qeFiV5DKq12woMI1XicTJEmRFIyIMgCSjACAND2JhNffZt08dogAkiQZyTKCFJVuv0mQJEESmJMwxpIgY0RQ99kxjM8Li1JoNNjTGYwYrLTdnO3UrL78SMelS03tnrAMAEHps0pnzqoqcBjVzB5pmiaQgCQZAIoXEcWq+xWSA33nLly+cqG5T85etmXh9Ox7ScZUNA6fgSRNNgtxfTgw3B9gPUMhS1YmfW/2so1Wo8XBtt/ojpQLYz5e0hVnqg1l/G8ugiTNDhvoiwRH+kZ5f5A35NsY1SecVNrQmwxGFg2N+EJjIU9IRMasrImeGNNWlMlQurDiPr86Xu92sbFrgZHRaBHZ7iGMtWaLKtqvHOg+f3DPBXLt05vrSjLuh9/hceYvNGvNLc2/0nbs3R8fpCyuitVrsy2JPnJlb/el/R/88pPjN8YkexcE29Yum1nsuHuzQNrkLFm0sWRRwgqyGcVl00rPffCjv2006h3VC9dPz0rwgyNFvTcuHPnNx/vqL1wTL3Dcxo0PPrYoR6VzxLx34MqJHds/OdrY6jP7pOFNm7etrNTKowW7Gvft+vjjgw3DKKN9UNj2yLIZxZnpej8hxdgKK3Nadh9++99idEZx3cpSty3NS9aQdeUVFmZcOfT+f+znYGbVkq01rkmakePoQNu5ozu2bz9+1UfW94d82zatmZGnEUlMaDv2/sd79x0/Pch09PV5Hn5wWW2OTR//hWAzS+evLZ2fijkyq3ZWaeee/f/597tl0TnrwdJCl5pRQdpKlj/4fPEqNq+42K755oQqjePjIKV3lixc/1hB3VgM653ZedkWNtHMmjA6C+dveK54sYQgpbe58zISM3gSCzKO4plbnnfOGI1SRkdWTo4z0XyWZIzustlbni5Y/rCICYM9M9um/qMAUkZbwczV23Jnb+QRobM4srX8PdZnFM1b80jBnE0yoAyWjJwMczrPYELKkFm+dIupdJ6fJ0wZWdmudLsXAKDOkT979SPZ1aNhmbG7c3IzJusUKWRsWeULNn+5dBknA8LgyM6za2eaclcs3GQpXbIVQcZod2XbDekG6dwpJmPaqq2WCo83ivXuvAKXSowuacopn5mjZcWS1bhzKEgy5sz8ysx81UVB1uQsnu4sTku9bhPBGDMKpmWoBplCirW6i6zuopSskazRWVCZKjY1SdGmjMLKjELNyidIpSk0MwAAIBiTM7fcmauljbuKMlizSqxZJZNhi5g8U4ogY3EXWVIcw/eR7otJ1JSmNKXfSd2cv+BPpTIbvk1pTJ9ascofatLfTHln6hTMpT1xUkq2s1IoH2hZf3Bbf6kxkfLzJjWckh17d80O1LXbBG19riiVRidfGOOb/kUUxUAgkCz/RQnBVmlJQX74fL44aURRVCL3VcL+FIwTAEANqUhRzO8PxmIRhEQAEACCKPqDQTx+rW6XglAUxcSH4QRB8PvTd8rwzpJlWUYIaQp/UgJ8NUVwchzHcVxCEwrjMhAIpMBnuEVNEwRBDf+F4ziF/JQa/0V5HDVcrlscWJZlJwjBUEhDSvT2RMpJr5R3GSH0Gf+FZdmk/AvGmKKopKifoijGT69E6yvtrrIaCqxEfTUQyzI0TUOIAZABIAmCVW0OY6yylUiS1Ol0GiFRRVFUAxlJWUrnpoZBUSmWZW/RDOKnVDBDqaFqEUIKdUFNXvwpGyQ1kIrCYVFsJewagiCUsTTxEaJUm2GY+43PQBCEKIqf+Re9Xp8U3xsAkBTfGwAAIYxP+lFoY5rypWA0qqNpFkIAgKiAtZLhS+l0OjV8KaU9teBLAQAghAaDQbvJhdK5ajjVKYvneQVZkvCtIAiCZVm9Xm8wGFKYv2CMCYJQk1cBwU2E740QUs/3hhCmi+/N87xer7/f+N43UX73uhpTmtKUfmc15V+mNKUpaaXxPoiwxAW6Lp08fOKiB7lql69bO6vAmPi6ScnbdfHYvrOR3AXrNs9xpWt9AEVHWk/tPNjC1m58dGWFii9pMTh4/czhw2c7g+aiWes2ra1yJrP0hQR/X/PRI+dGrDO2bZprT3fE5h2meG/rmcOHT10JGgrnLlu5oLpAffi/GmFZ8PVeqj91KWCbuWpRXY4md/rJEU9b/f5TfUzxiq1LSgyTGH6EYp7W03vrOw3lCzYurTJpG8CCxehw8/G9RxraQ/qC2ctWL51RaNNpNjYifeeOHDh0vt0rmWpWPLhuQaVLVYBAWiQPnP3414d7sxcUCx7DzEUzKwocKXfqOF0iC+GBq+cudwFXRV0p1X7iZOtYOCFIghu4fvbAR7vOd/Z29UXStlkmj964cvjj90939HZ2jKrZJZKCo52XGq6GHTPrKq2hll2HWpIhtaPgcM/5o3tPXmpuvTbEydre+RC83niuqZfKn1Pj4q9dvNgx4E+rPTni72g4dOTM6YttfWMhThMSiDDa23T2yP76i61t3X5pMmEj8mjn1bMnDtZfvNrVMyYijXdnZWHs6onjzf7MyhnlltiNhvM3RoKiVjbR0NXGi/1i/txNW+roq6fOtHSNJsd/mZDxQOvJJr/Z7bLyXS0dg/6YPIHHvPsPO5JEn2coSNor5q+bTrfHuvZdG4jWui3xfyEoe8HstY9LdEOfqj1rlSIsudWrH3kGHDvdpSo9ioSDA56Io2zmvAXunhPBPWcud6K6aWp/2wiDI3/Oyi0SW98wpDVWROjrHopR9rpVy/ICjd5DnUNjY+WFNlParBJ6a8GclRsow8mrWCsCE2nOql60LhbWXxmd5IgXwpJTtXTdZj+6EKG1/20naEflssdyKbMZ9DQcPdEcDguSjEGcZg1dPfTOu+/tb/ZIGJB6R+3qZ57duqjEpWY/hHBOX72tAur0xsj51j1XEEIpwQuwcOPwW2/uONUTNZbMXzHLLXnDZMWSVXUZwzv+44A8Z3EZOL/349NdIaZozuZti+wdTacPnu5n2fD1C03D+n5b1oywTKPo6KX9+3fvPdMfYqtXbq7B7f2mmqXLFwZ2/MWHgXnPbqiTBy5d4UpXLqp22e6ywDyOf5FlLhwGJKkzmVlsNOukzgBCKMFyDaU32t0um54eSOe1P5DRGzLcDhNDAFUQJlkUo1EOGo0MwxqMjEknDo1FAVB9MTHFsFaHzWJgSM0ZMJFQmMfAZrWwTNSsB3KM4wUEQNpeFkhSRpvDbjWzZChdZX5eJKuzME6b2UB5J/l+L8jo9YzdYtLRydxix4/6Gj6+8OExz4gje83DtQ/Nd9gTRtYBAAAkGJMrxwTEset9A/2cpSzL8v+z997RcR3n2fjcur0Di0XvAAkQIAn2LnaKRaJISZYo0yq2ZcmxnTiKY8f+xZ/zi53PcYpjK25RZMtyrC5RLGLvBEGQIAmikOi9LrDYvnv7ne+PS0JU2d27wF6Isfc5hzx7cGbmnfLOO3PfmfcZTXSHgb509VPfWfb52xsrBMUJUrYdJDRGM3X95e/902/OhLe+8A+zC+xT+LIVJ2reP+4qfvBrn7P7r5251D1gpFhU3e8tmWhsYbCFQsv56vD83d/8vDV09cy5a012V7vbWr7qoR1Fbf/9en/5hvXzwh809o4PtnR2ueY89FdPEm37L7U7BWcfkVY61tE7yHlHevuq0riRMSZrPkJ8+idU5PijyV8K3UEVBY7leBFgBEkScih+4pUw+WuGuKKmjf8l1bynEHefqVIsK59et/JpuemhwHEsx0EEJ0lC9A/Wnjh6fVS/YltVjk2v3H4NiiI0z3/mJ+88eO3Vn759/npRqmVhXtz3kYZaR/S2BamO3BRVtxH3QK2RCwdG++oCHRpHeabY/9b1A/vPHTRoUdSYv2aZDjOnpmdmpxt0vThOkCSB0YjIhELjftFa6TBlmBzmy/3AYsOGPaGuC/3qinJtn3NslJ5QFVepNRECMCPyv2j1ekyg6KCfwUL+MG5O7HvqIj3eXfvWf79WPaxa9PDzz22ZLcN5LBMYQWi1augKMQwBc1GoAAAgAElEQVQVClFhjrDZZ4ZPLW7oDHoV8IR8PsbABGlIpqvV90ZUfRKTCLYc+/1//eHAgH3bVx5fox+7dGXMsnLr5kXFqepYIxVsOz/V7yN+vONWP63KKiq0lZTnISdDwSAlgrjZonACEwVeFERRQCHETVl5RF/vRPWJLqx8dUaWw5NasXPv7p2r5qSKLAvcTe+fauSxj16BQxAUwVAgCAIUBFFEECRlVqGzs/9qYyDvc3NMw9f6egCctVKvjeTpjmBfcMLocOibr7fXHvdqAv1I4boMXSz3PGSC7oGOhrbunr6gr62935iZZjVE2HuiGnvR2q/9eO3XYncSH/aNDTTe6ugdHBI6WjtzCjPSLdoo+0xUZzCmZ2haOpsuhzpcQ+OqOVuy4xgYgQl5nZ3tHV19g0PB5tYCWFCYblLoZiSZWZCm6m+6dvqMExvx6zMrUmwxOEXiAhS5sGewu6O1s68vzHdkZ5p1+Ta9LDpI+TI4yj8+3NbR3dU/BA23OlOKCzNs2hkxknzY5xpt6+jp63OR+M2OrLLcTKsu4XfkDXO2f+3n278GBGaoft8rtcO62Yugf6Cri0pLd1h1ZBQSVsPsdc/+YN2zUxEKmbGmM5dGbT1VxejNAdy00mSeSp9mzy3Gzna2XhdG6EE/4ZiVV0YygwfOdbFVq9MzzXmgBDtws6lO8OppH5WRhlMC+LiiIyqDOR3zdnXdvAmRQR+iLXPMygm1/PxtV/o8Q6Y55dzbDWTFMpNGG6nfI/wdI/XpsxfOnTh54XojdMy/b/ksW0yiYDE00Vd//sytEYpDmevV9anrV5kNquk6EyDtHWm5cPJKr5fjsY7qWrt6rc2ijbYI4IaUgsol4+OnrzT2mwoXbV8/K46LjZAPeftvXKlv7feKbPDChSu4NlMx+wJMhYsWu4JnqutbDPmL18wtyjQlcmZCgXb3Nd643tznDQp04w2z1WE3aUnZjwDLkkH7nC11tS1DI4Ewcv3cFZvamjYz9gWy3tGOy5eaRzwBCtw6dynNaLQrYF/uSINAYIFKyw7erBlrU6UWV61ed59RQypze4HIXrBuQ/DkicvH23hD5dqd80rSp3DPFzXMu//+seM1zfX9qqyy5VUljgwSlMxeKoCS4lwrpk/d9qDz6PmbdSNEVtmyuQ59CUtCk5kgNBnlFWRmikGnK6sgs2cXkOmqS5cbrtDqwqrlc0syLKaK8j59caEj3bZgWSVKVubodRHPrxEp8jAQCJhMprjiA8LhcFzxAeFwmGEYq9UaJdlk3Jf8+IBwOAwAMBjkUsyFx8ebX3ml+cUXmYEBDgD7+vVbXnzRPHu2nLwQwsuXL7/wwgs1NTXRU+7evfull16yWCwyayUfoVCIZVmTKbHfqx+Bz+cDABgMBuVEuN3us2fPjoyMxIwP4HnebrcvWbIkKytrCvEBoVBIen9aTnyA3++fTnxAMBiUHx9AUVSi4gO8Xq9er7/X4gNomqYoKvm5n0QSSSiF2xuWyUh2mdl4npeiwmWmhxAyDCOZ7SjJpP2LFJYmp1hBEKQC5e+8KJpmOY6FkANAAEAQRcnQyskrtUKK2I5ZMfnFxgWWZaVuVG5zwbIsAGBqNAUyQdM0z/NyWDV4npe0gqKoKexfGIZBEARFUTn7F5ZlJwNx4xIE7uJJAADI3L+Iojh90hYpLJOmaTlqOZNgGObD+OlJ9gqZmSX+F/kdNMn/En3KcRzHMIx8shxJgUA89oWmaZrnJfsiSoaAYcj/PfaF4zhJn5Sb/BLBzRTms3xM2peYAz0d+yLNeRRF5Si2RFkyZaImyTxJS2PMerIsG5eeR4HE1COJnmZRicVH+F9wHDcajXHtXyiKIghC5gckhJCiKIZhTCZTlGRT8L8QBIEgiF4v9/4cwbJ6lUqLICwAHAAEjhsMhui1mgSEUK/Xy+klgiCMRqPMYuNCOBxmWdZoNCq3f5Gmh8FgUJRiRmI/ibkwCIKg1WqlMZrC/gXDMAzD5PAzSHZB8r/EJUWCRDQj+V/k2JdE+V+kNV6r1d5r/heGYSiKuj260h5Svn2RaDXkZ5GZHrsLMmsipYwrPXpnu4xIbz3G2Qo5Wh5vf8rHZDcqZ1+kkmUu+1MDhmEIgki9FD2lxNQnqcQU7J3UUXLySoIkTM2wonchZq3i1fMoQBAkUUUlELI6IokkkkhiykjalySSSEIpRPz6FQU26HaOON0UVFscmZk2HR77wXjIBCZGh8d5bWpmdkrC3iWDPO0bGxj2opbMvHRZD3ZDnvG7Rp1eVpeel2Ek4tvtQpENeUZGXTRpzctKUcVu9dQBBcY3PjIy5mVxfUqaw27RE4k1+FBkQu6xMTdLWtPtVm3CgjDugsgGPeMjo66QQJjsGZlpZmVfHrsbkKd840POAG6yZ6aZ4hzmKYgT6IBrdMwrau3pqSZNgofqoxBpr3N4yOmhRNKakZ2RYlIrHcyvDCLYF8hTE92Xjh292DRA4wZb4YpHd63Ki/WIHB8Yv3Xh3Tf2NZBz7n/m6w/mJ6b/Rco9WH/s1T+cGrAtf/o7X1we25ErML7h1jPv7zvd7Ct/8rtfXJYaDzcBZIOu9tpDbx2uc6dt/O5f7sjQKEibTDlbzn9wpKbNC7T67Mr7tty3qCBF3kt9siCyYWdL9ZFDJ+pCBdue2r2hNPFvUYrURP+108fONw8GaNFUunTrA9vm22eGYgpS7qHGc+/84URf+tJdz+9ZZVWWpQGyodGmM/sPnG5EKh596sEVBakK+lOpoYbj+49d7w0ITBAv2fL4Q+vmZBnim0+s3+lmNCaTQTNzBv+T+HT7AjnGN9g1SJmWf25nuab3xMHrzaNzs8zq6BNVoCke1aQUFGsSqcaQoQVImPJnyb76LXI8DzFzdl6mSMZ/X5zjBBHVpudlo6ISy/3dEJytLaNcyoYvPlNAXT11uadvOC8zJTtxnQcFgROAweHI8BoTGdh0lwRmbKivz61Z9PBzVWTb+6dbrzWNVq7PmRFPI2QYAdNaMjI5IzEDizsUREYAluzMjGCkqLqPghnvamho6nQGBQBQXOMonDd/do5VJ2u5YsOisXjt3p1VhaFDP/mfgcFRT0mWIQ7FEPydF49eGLctXbO09B60L6IgBH1+kVSbUjOMIJSqC466eEEE0VcI0pZduXID4z95K5Ev/2CmjMJlGzb6Dh5tlsX/AgCus+VVLuN4yjdGxd21iNaSPmfx8jAVPtujtHMq7PKEIa5PyzTrxmx6OBIIhWgRxAzMlQ1MY8yqWAxEPnA1qIyOiXQoHGZRQ4pZZzGlGYiusbHxMMiRG6wxLaCm9IIqTbh/tMYVxzcsHwz3NQ/e6PSHtKbSuRkVuVqtPOOEaox5VStRnvc1Ke+1NBUt3lAIEFQcOTeBGiwGfVyBVfxY49kD1T3mJXNSjXEHXScWEfYvEAo8DxAMxTAUYjgGWDY2EQyCoqgCHKgIApC4SpUOPqf6NR63uKmD43gRQBzHEBTBMQB5ITaJV5yY8mGrPIiCIAoiguMIgmA4BgDCszN2zUsaqTgbhxC4IcWYIxCMSpOix+Pa+KAoiiAoAPIuyqpSCxdvKFwcX/XuAMNwwA3XHXrngi972arSHLMs+yJyIZrnnI3Hz3eRpSs3Li22fcbmJYJ9QVBUpVKhUORZVkA4lkE0moTSNEF6ou/6oTcO1DmJym17P7+6SBHX470OtYrEEcgyjCiILA9xPYHj99YlhljAcAInMCHICoLIhDlRQFSae+ua18eBqUh7kcNeJDd9qO3UO6+9d2IkZf2Te3YstMchKdhZc/DgofPtLh4CXGUuXbFz1/qqHJvMrxx26MrBP57sti6+f9Oy0pRohCQfgnfeOnrk6Omafsuc+3atqMw0KkWKKh+fbl8wHDPYzEhzr2ugc1zX1xtImeNQJ3JrgpCmjLnbn8pdxyMao02tqCv+3oUmI113edjZ3TGs4oY8mCbHYNZ+5hoRF1CdyWDUIL0DTk/K2JCXhdbcnIT7kD9TaHIXb3+uZA2LGWxWE0qF5OfUZldufiJ3Bc1DABAEV+tNZoNczzfbU3P44kjK/M0PrC2zqeRusjCDBg+5gqr0NUsWz05TkF5PPiJsu3C1Kae83N7w25//9a9gwbo9X53nMMVqJT/cdOLln3z/nTo3hVoPNHd89ek9m+ZnRBCA4qTO5tDZYlYQetov7Xvx7395atATJt5t6Hziy0/tva802gc+5xu+dvTV/3x1f13biGCsufLQk3/13YdLZO4LYGi47cIbL7707vmmAUp1ou7cU8//7d5lsas5JSCpFUtmtf3u9z989nfWyh17nirJT00kf4nATLSe+t1//fat000uznB4xQNPfvXZrXMdEbmApgLCkVc8u6fxdz//61+G7KsffnrXPMsMWUjo66g9/IdfvHLgao8P0e2/9PRfP/fU+tnGRItB1QZbusEGBNbVtP9ff/H7AzUtXsFycsMjz3zlqXWzUzWROxNV6a12fTQ6kohgu27UXDj69o3XXvvtj3C9Y/mT335228ICY6yeRfRF25774WYRwQlCxm2SmUCS/yXJ//JxJPlfkvwv00eS/yWJJJJQFrc3LBDCybfi5UAQBEEQUBSVGRUulS+KYpT0Uhqe5zEMk1msVA3ph/yai6IoQCgCACWhUWv1yRrKiamXUioRMi+KotSN0w/tjyIC3HkcXiERUuEQwphkF5PtjUs/J6VIguTknY4g8NEZEbPfhDvgeX6ax3uTDbyn+Bkm5/tt+8LzfCgUkh9GLPG/cBwnf2YyDMPzfDAYjJJG4n+RKE7kFCsxoYB4CIHCoVCYZRkIWQBEAHhBCIZCeORa3Q1RFMPhsJwmS/0Zc/M/BUjdHgwGlft4kahJgAyepKlB+ljmOE4Oa4nEpBMKhYLB4BTsi8RqJIeTRaJA4nl+avZFFEWKoliW5XlezveRJIvjuGnaF4l3BkEQibXnHsEk39Nt+4KiKEEQ8vUJRdFJwguZ8iRDGz29lIwgCJnFIggiDad8zxGO4ziKYndeMUMQhMBx+a3AcVyOQkhVkl8r+bi9LOC4ouQJEEKJWEc5ETKpDCCEkprJ7Pm7gSCI1FFy8kpTAsfxqa0KoigSBCFVVQ7phKTk01+BpGkofybOGKQl6nadMAzTaDRx+XcBAHH5dyW+D51OFyWZNEJx+XclvYle7N1AwmE1SapQFADAAYBjmFajkZkdQqjRaOTs8iROI/m1igtSNypnX6TB1Wq1im6RpNklx7+rUqmkzpzC/gUAIN+/y/P8dPy7kt2X49+V1vJE+XdZltVoNPeaf1eaJkn/bhJJJKEUkvYliSSSUApJ+5JEEkkohYj2BQr0eMuJX/2fr/7lv+5rd9JyyoKBwYuv/mDP1vW7vvTt355u8SbovQTG2fLBvz+3de36x776w7evDLMxM4i0q/38S9/74vatDz75d7+sHozTry5SzubD//rtr339X98foZT1yUORH71x5Gffev7v//ODWxMKlM9Tww0H/uP73/jeLw7JHMS4QY03HXnpW1/YsWXXMz98/cIop9SRdgTQA1fe/tFzD923cu2j33rpbIdPoUNaurf61999euf2HV/+wUvnu8bpGWklP3D+Fy/svf++1Tuf/oe3L/f776EDIrmIZF+4oKfz8oXrTjei0WliRk4DAACge29dvdpDPP5vb/5471yq83J9p6xD3xjgXS2Nl+vG5v7wvXe/vTV7rO7E9fEYtWHdo50NN6nyL/zHz/7x8+XU0YM1cQSNANEz2FNXXetE1AaQ0JeaPw3cyLXqS819QY3ZBMWEqyzk/ROttecbXT5UrVPLG8R4wY10tzT08Uuf/+mvvr3dNH71xHW3EmIiQRxuqqkftWz4u30H//0B7WBz7Y0RRSahr+bYOa58zz/82788Whq62dgx6o69zEGRZ2kqfBsUzfJifPeJPOf3nfSXP/GTP7z5txvxtps3h1xh2XlF3tl44nh167BX1kUPxRDpwIjQ22ZvetSak33k+Ji8byjB7/a4KVBQXqQ34hnajl7/uIsr0U/3/C3g9rq9dN6KCqPOnWHVDg85h/wgNcq7H0KICo/7YVpxiiXHEepz6No6Ovk1c+WejKHm7LIte75kO3fyXK/iscykY+G2xwvTU/fdUmJWILjRXrltjzXz4qnrYWU+hMWwLxBkobXYYcw05FoaRt39g9QS21Qe+JgS0PR5Dz0zFwACFzpInQZTobHMNBQEOsgEwryA4Vq9Sq/BZKwibF//hC61wJ6dbQVDaW19vlA4LNpihPwH286//uZbJ5qdPASYxlqx7om925cV2OX3jWX1l767AsdQztes0pO8/GBoyLpvvfPS652ZG/IX6T/bU+uI0qU3D+I4oORZhqU4tV2PISihwkXIcQwLwDTti8ixHEeJOjWBICqSQBCBomkAotgXURBolkVIEsNQksTUBPQEaQDkvo8EEATgWELJKKIAwzAcV84HhiAYhqEKPlwhcBzP8hipwjBUpSYBItJhGoAZsy8AIUgCCJSns+ZCOzTNLy50xAhR5gPh9gttZ+rdXlPKwjWFa8qNhtgTlw6EAWEkVCoCwwgS4RhGFIRYzkvD7HXP/mDds3E156PAtWpMCA/cun61R8hbmpti0cbIAEVeEEVq7Mqho22GBds3LCuwfMaXYhInHkExDEd5joMQE3gIII5iEUuHPOV3drV0jISw1MLy8mwLEWEVQTGUQDGE5kUABFEEAIlFkYIgCIahgBdE6eo/BAT5v4tU5X8REBRFUQSyAoRQ4AUIMUyBO8sfA+TD3uGOlq5xVp1RUJpnYnuunj5yJVC84v4VczJiMSAQZsPcHQvn7ohLIkbgQBRFKbSER1CCQGJzkHGeoY7OzgE3BQFAMJU1q6Q0N80YJeAaAAAA63P2dLb2jgN7cWlprmGi8fzRU83o7PtWVOTGZMwXg6PNLR1djfW3JizLt6yYl639zI9vEmdfcL1Rb9Jwg/3jdKbHQwMszWSKrGoiR/uGezvbPDhryZ+dFTnOWGvUGC1kb/8QVUK7/axAWm3RQ6UxtUpn0MNudyDodnt8XtqYkXlv3Tz6EwKm0Wt0KtE14Q95qbEgL2jsqcrzv4hs2Dvc29EdNqB6A9vRerHJX7hmx4bFhQaFVmt1epqWcvndLrc24PUBfZpGFZvFVKC8o/1drYM+EQKU1GcT9tyMVGOsrZ1AB8YGulp6IWdNs9D1x081YbM3bl09J90Y225DeuzmuXffuQrXPfaFecV2xQ29DEQYEJEPu7rrzp88dvJ8k99G+32bHrh/QY4+2qcqqs/KL8ltaNz/m1+ZSMxasqQoxxJxDBDSmFa26bGyTTErqE7JzS/OvXr01y+2aUQsa87KsvTo1gLRmCzZBfbmCydfvcGLpKlg5Xx7HGac9Tk7r508dvTclWaXEejodWs3L85X5BouACA42Fx99uSRk5eGxZSxMCluXliaZU2YMRT5kLOt5vSJ4+cud9OpvkBo8+Y15VnGRDIFIurUjKwsy63aQ/9Ty3BkZuXG8nTFd+QIac6svH9PJQCAHbr82tEz1R2gmA721ekLFq9bOq8kDheHTGDpc6sy9186/WoTTmosZauybabYzzyoM8rX7S5fF6coTVrRqp1FqwAAcPTkvx08dTmcFQT+niv2koX3LSlLN0cjvMQs+cs3PpK6SFNYVpaquSc27RGUAUFwtcFRULFqe+YiATdY0my6mCRaqCFj1qrtn0vpdora1JyCQpmcoTGAqO2F87c8qm4Z8BPm9IKi4rRY6yOqMefMWbVVnd4/wahtWaWzI3FcfXpuQm1yFFWtMxYsFVB9SkaKkg4yQmvOKq7YaMznAWlMSbdoVYlUCgTBNeaMkvlrjfkrRMKYmmnVJZwoENGm5Fat3mzIGvRyGkd+UUnazDxOchuoIWfJlodTq8IogiKoyp5qVCsyrfDsBRu3GPIG3Yw2JaeoIMuUOBL2yNAWrnv8i6U+HsdRjDSmWzVkLFc0bsqftypf+ZrJRyT7gpHG9NKq9NKquArT2gvm2gsSUa+7gKpNWWVLs8rk58DUhrTi+WnFU5GGa02ZZUsy45A2DaisWXOWZM1RqHQEU5kzyxdllitUvgRMbc4oWZRRoqiQSMCN6bMXpssiB5seMJ29dL69VHlBHwIx5letyo9rAt57+MwdQEkkkcSfLD7kfwmHw3Hxv9A0zXFcTH6gySxS+lAo4mU3if9FSiafX0rix5Qf6RsOh2mOk/hfeAB4QQhRFBG5VncjLv6XcDhMkon/WJjsRuWCmyVKHTnkCVPDJP+LHP2RKH5CoVAoFIo3rJnneYqipFwy+V+kMOipxU9TFIVhmCiKMvkxeZ6fPr+UKIocx4XDYZmUSTMDieyCZdnb9kUURYZh5OuTIAgcx8nnN5PkSUMYJZmkczLLBHeC01EUjV7s3WAkAisIOQDEOw2XmV2ygHJMqtRS+bWSD4l8i2EY5chZpDkmMTMpJIJhGIm9LaYKSSRMEiHTFPgZOI7DMIxhmJiJpVUT3OESiUsQuDPPJxkhoieW5l5CRhBCKBkpmSv9jIFlWQjhbftCkuSfC7+3KJq0Wj2KMgBwAJAEYTWbzTZZLwRACE0mkxxOIJIkrVZrkt87EhAEUavVGo1GDv+LwWCwWCw2my3J7/2pcpP83kkkkcSfI5L2JYkkklAKSfuSRBJJKIXIDheRC4511V9rcKpnrV5cbpdz9Zr2djfWnL/ayZly5yxaMq/YoUmEC5IPjLbWnT3fNKZ2lMxfsqwyzxTzlEugfQPNddc6A+lLNi7Ji3rt+JOAXGCk/UrdTbd+1qbV5SZCyXuQUPQPtV6vawra5ixcUO5I8D1hyNP+vuYrdQ1dPsJRtmBxVbFDl/h3vkVqovf6xXonkbVobVW2eoZvpXOevuYrl+pahyl9/sLVK6sKUxV50l3kQ/0NNdfa6JylS+bk2xOi2DFBjzafO3e5fdRP2ooWrlhRlmOdkUu54ljj6aOXR1Irs7kJ9az5s/PTowT6xECksRCowGBD9emzx09dbO73hOQcfXHjvU0Xz13x6DJ1VF/91Svto7Gd9rEhBgZa606daSeys7GJzqs1tV2BWFnYwFhX/cljZ6urq5tHqTh5VcSga7DhwtET5y9cutYd5pX1yfPujqsXzhw9dr6hvdtFJbp0kQsM3bxyvc0tEAQ72nT5Ws9EIOFnmJx7+NbVMx8cO1d7tWWMnekjUtHdXXextmEEZOeoRy+fu1TX7lGGYMrdfP742VMnTtd1Od3K8HR9AqLn1vnq1nFoycxBnQ0XrrY6vbFJZxIh199y7lKbjwdw9EZtU994kJ8Gc1CkXQlCaGwFFUsoiq3jVLKMtRgYHeobDWVv2rnZ3l/9weXRoaGJOekZ0zW4IdfwYP+YZfnfbF/pv3r4RGN/91C4ZFbUQHVMZUqftWB5GFy9Fj81AULq7cXzVyxjySa3fMaNKQLV2ovnr/IFOacC79qLPOce6vOTjspla3Lopura9r7xYH6qKbHvWCAac275ohUjQpc/ocENMqVrU8uWby4mbVkpLtj5xqjHHeCBTYF6aNLLlq0U+XCXVnbhwc6agwcPnW938RDgKnPpip271lfl2GQfGCHa/BXbHCqTAQtdP9BeR1OcEOdEh1z/pX3vnawfpjQ5c5eWp/DeMJq/cHmZZeLEH6uFigX5sPnsqeuDQSKrYt3WKlNf2/WL9aMkEWi5dG3EMDdnVikjIiLtaamuOXfuxkiQLFm2thT2jWhLFi2ZHzj570f9lQ+tKROdtzqY3GVVxTbjp9z2iqRrKE4aUzOyHKkGwimvMRwVDAcYVWaaniD0RhKOhENBBoBYlBUxINLhcDjA2VLNOA4MGhzl/L5gjFIxUmtJy85Ia1fj8e8JEFKjs2dmpFl0LV7FN8GoxmLPBA6LzqUAvxQURMofQMg0jdFiQHQajA/4BUFIZMw8AADX6G0ZWRkppsHQDDNjAgAAorZk5loAQKiOc10s5nBkpMS40si6fTdONB+uHXdb0lZunrV5vtlEyhhnrT0zm3eZNX3ydUKbXbn5idwVNA+leD69yWyI574lorJkZuPXXv/nX751C5m/5ytFDkt81zVFT93Bo33mxduW2UK3rja1eA1hBoGp3vyJhvqx4Nxg87krzqwlD60xhZvrGq412sda+3hr+aZNuRkhYWDWugVFvLtucGKota+7P3XRzvuwrtM3b/YJI12kLjvf3N822jNK9JSY+IE+d1qxgH66VkXTNeT2P5mAEIoQRVEEIAiCQIBBOP0JikKIQwhQFJGuYCJQFskgMq27SzPDLXVblmLX5CCAEEIEAQgijYlSz70iCAIAApQh4JQjPNx55uU/XBSKt65dWqyP0Z2kxbhg15LKByBEUJxAcZm+OQRB4lULVKW32vXRrnvJgH7e7m//eNGl/a9db2itzLIb0uOJDR9s7iOs9+cWV9g9ro6bPYJax1D+kYEboVYyrTRTHH7v8sG3Th40qBGoy169oorU27Lzi4syrS693m8xGzR+DDJB/+gEa55VkD3LKNbfckGLGTg94Z7qPqJ8Fjk0Nu6kJ4jcSq0mgtcrgfwvao1ap6I8XlawhAMcgLhaE9EtJIZH28+98rOXT/WrVnzhW3+zs1KviuAJUqsxjQ4bDtAipChGBLheP80t0Z8LUBTV6rSIF3JUiGYYhkM1OgS9J6L2pwcxPNh8/LcvvlLjtm/e+9xDBa6jhy+xs3c+8/AyOcHbCIIRODYDXmhf0+Hf/vb3B+qHOQhwbUrV1i8/98h9JY4Y2uttPf/6b3/xZq246qlHV80uzMvKyXU4SsqLm654/KEgD2LxU30aUAAIAFBzRg7eP+iuPt4Bi1dkZKd6rJW7n3zkwZVz7IgogrHr7xy/weEEEcmOogAgAKSU5I/2DV1r8mU8vNg42tjfA7jCJUZNpLD1SLWFAkt5JxwKFIoAACAASURBVMZGx9wel9rpHE8zZxjVUW09ZnakZVrIs9XVrYX+QZowpmWkRewLVOuYdf93fnX/d6IUKEGfmpaWaa6rOX5TT3YMM0hqXlaMq7pQ5Omgz+l0ujxeenTUOaG2p8rfmIo8S/nHx8bGJzwedHh0XONIMynmtReYoHts2OlyT3Dk2PhE0GDUqhJGoYDihCkjHW/t6m6o9ogul+hYnKpPuI9E4Kig1znmGne74cjIeC7mMOvkfHBMA6g2q3Ln91/aCQAQva2H3mwcwwrWzUtjRgfHTVaTQZv4IzIAKb/LOTLi8rjpsTGXJ0tn1JKxeE1NFVu/+dOt34xTknnW6ud/svp5AIDYf/jff/0mUbFyZRnT1s9qyrWaOBUxZ04uf7Gvv0MbDI36EXthfnkWO3rkwi1q3mJHlrVAyGMPt7S36PhB78iY2YKEhU+w2aIqvckO3H39PQMGtDcA1IX22Tm57b9+fzS1TJ9tsJ1/v5ksW2hWayPZ60j8Ulx49NaZDw4crW33cM0BtyvwxBc2zrJE1X08vWTu4pHeNw++fCt1zrr7F8/JSsSFZdRUULZg5UDHm7/+jTZ/8ZYH1pWZY+QQwt6uKx+8fbi6bcgjdv1eGN/62NPrcmTqHGS9w43H3z5wtqHHxRIv/z64bfferRVR6H6nhUD/jeP73j1xY5gGBpcfYI9sXlziSBg7EkaacuYtKB46dProVVXRqi2rSu2mRLusxeBY1/nDbx+vaR0PIS0BNrxr9wNLc2fsjJrxB8L0WM+t5t+3nUcJ49z7H9+xbmG2bK5l2WC7at5/7+iFlkEGdfk8QfjwxkU5NgV88ncDzVn/yAOuN/e9+etTuuyFW3ctyE2L9fH3sQJMi3ZsHnzv9KH3wqq8eetXzkrPJoWsxlnLMooKcm2YMe3BBwffPXbs9Toib966bcWm7EwemnUYrrbl5HE2k0aN5+TxBcWlpA2eOff+6yHN7BUb5s7KSjEWOprE8hy7PbWyMiekmp2l00Wc6YgUeRgIBP5c4o/Gx5tfeaX5xReZgQEOAPv69VtefNE8WxaFCITw8uXLL7zwQk1NTfSUu3fvfumll5LxR5HgdrvPnj07MjIiJ/7IbrcvWbIkKysrGX/0qXKT8UdJJJHEnyM+5GeQT+YC7kTNAwDkU8ZIxAIsG+2OkBS3DmTzuQiCIDEVRC/2YyI4QeAgFAAQABAhZDlOZnb5/AxSSvm1kg+JNERipUh44ZMiAACKipC6URCEmDsFicZhaoQGk/QdBEHI2b9IRAcYhk1t/yIxlmAYJpOfAcTDWxQJoihKk1e5g8ipQZrvt+2L9KEhs7USUwbLsjzPyySCghBKlB8x+aUYhpFfrEQ+FBcTUjgcplmWhZAFQJz80JPNL0VRlBz7wvN8KBSSw+QQL6RuV5RfSmLuAInQ/k/F3fxSMQdaWkLC4fDU+KUmWY3k2BdJReVYvU/NLqmiIAhy7Mt0ZH1MrmSq4iJOUhqS1+VD/hcMw3Q6nczNCLjDDEYQhMwPSMmusyyr10d0vkn2BcfxuPwv0moTpdiPAaUoDUmqEQQBgAcAx3GdTiczO4RQq9XK6SWpP+XXSj4oipK6UTn7AiGEECoqguM4giBIkozp8uN5Xq1WS505hf2LtJvQarVy7AsAQFLpqe1fAAA4jqvVajn2BcMwlUqlUqmmaV8kMjCNRnNP+V8k+0LT9O3RRVEUx3H5/l0EQSRbIHOJlmyHIAgx00tpZBYrbX0BAPJ3CgRB4BiGIQgGgAgAiiBEPK3AcVyOQkgVU2j/gmEYQRDKTX7JgCoqQiocRdGYxlpamaTOjHcqSlot//sIwzBJpacw5ydnkJx+k0jnJAsbr6BPylVO2aYDqT+T/t0kkkhCKUTbsECR5zheRHCSwFE5Bh1CgWdZTgAohuMELi+TnHJFgWdZHsFJMtI7sp/MwHGcABEMI8mYz8Z8PDcUBanhKjLmq0/TBRR4juchghMyOzm+0qHAcxzPiwDDCYLA0MQ7AeGdzgYohhMyByiBEAWO43hBgAhOkASOJb4T7wCKPMdxvAARFCcIAsOU9KhCgeM4nhchipOkIgM3I4hyfzcw2Hj63bcOdlq3/uVT20odMR0ikJvoPPvuK/9zqhWmFC/f/sjOdfMdCXiGCvLh8bYzf/zFG9eM9331//vi8pguDcgHR25d3Pfm/upOr75g8a4nn9kyyyh/dATG319/7H/eODmUtvn7f/VARuQgh+lDZIO9dUfffP2Iv+TBJ/Y8MCcloaVDkXL3Vh98c//pGxOq/GVbdj28cV66MbGXayHvH7p+ev87Ry72hvVlG3bvfXhDoX4GYxB4X0f1gTfePnKjP6Ap3Lj36c+tq0yTF+8fJ6AYGrt17I1XD11s86nylm979NEtCzPNkaJapgsx0HvundffPtMwyhqW7vrS45sXZpviXOoENswIOEkSckOsFEEk+yIw4bH+3glMZbVa5N0ahOG+9sabo5bP//i/C0ZPHr/ZdLO7MK3MPO22iZ7h4a4ep7mkJNbF3dv1YNxj3be6kflP/NOztr7a46eP1S4p3WSVWw8x5JkYHHBiKWmpKqW050Nh3t7uoQCvc6RZFbjTzjOensZuOnPH13dm8V211291OHOt+rSEPj3IjvZ1to0SK5/90V/iN/dfaL1QPzd/lWPGvrpFz2DfBFH20Pf+erF48KfvdjW1zJmdlq3EE5IiFxrpDaau+doPvwy66y61dPVNlNhNqVFsGR+cGB4edgVZEQIUIwy2zMw0s5aUY3zFsfqLDaHMXX/31eXYyZ+/faO1ODNtfnYc/luRdrXUnOvGyhfNL043foYxZ5HsC641FyzdqDPrwLExeVNTCHp8HgrNKcnR6EW75mZPwO1mgXnaTm3MVjBv2x4SP3S0WdYBnBimw+4gSJllNjns1pRUbXNvLwescnUONaQVLN/yIK45ea5H8WmCp5St3JyuRd+7qcDZoijw3gkPMFitjnx70GMie8c9DCeARNoXgQqEgixiTk/RpxozTar+ieERCiSahy8y0JTSdQ+WQICDQD1HqkmdJlZU0FSBkamVmx4rx1B+4kY3QLSamF+C7ERfQ/Xpuh4PDwGmMhZUbdy8XC/PvtBDo2G1Kc2RpldpStP5bnfAFxSzZS93gr+37r19F8Jl9y/R6z7bgNYo/hcURVFE/mgJHMcxPKnVoAiCkxiEAs8lhEsMRQGIo5NEUWQ5DhA4hqIEgZI4ZCkWANlrGoIADJ0pigYURTGltq8QQoFlURRgBElgOI5CigEwsYR8Is8LvIASBIqiBEkABLI0C8CM2ReA4DgOOE9f3cnqQU3mqvKilBhHoAJFj3Q42wZCYbU+ryS1OEMdPWz3Q0kISuJ8aKjlxs0+nyl/aY5VHz2YS5tbteOZqh3y2/IhGIYRUQQjcACAVoVCjhN4QQZZNuRpVhS83edP1nkzl+5YXZlp+Izj5RPHz4DiOE5iHE2LUMexIoA4Fvm4G7L+sc7aMzVtHrxgyYYNlZmqhDlSERQlcBywnCiKPC/wIhI5uvNPGgiCEAQBRCDyHC8IgoDgBEiwmxDFMAxHRYoXRZFjeCiihErxB+4h6x1uvXSutjtsmL14VZU93Fh99vKgcemGdQsKbIkeanqg/vyZ6usTxvkbVlea/E1nr3QhGZXLqkpTYoWJ08M3ay5dbhr0iRCgpD67fPnK+cX2TyN5+wRIkkRFWuB4AHCaFXENjuMyDIXg7qm5dOX61dagoXT9AwuLU9WfuVM4gfwvRqvJqhO6OgZD+eMuCuBZNlvk0lFCbcrIK0JSsVSrNqEuf0yj1pmM4q1xt8+JuibGw7ZSRT7I73mgGGawWWBfwDPap2UnPKy+wKIiEkpeB1CtUadXg6FRtz/dN+JnRUNGxnQj9mRIJbXmjLxiglU7NIHWumuNo9pFWzYsLZVznIBp1FmVuVmVcmVhOmt6QWm5XW3H/R21l7uQjLkrV87PsWhi7nowjdmRU8jpKQgAgqmsaWa1XO4NTXq6OtzsHR0L5qGtI5h+vsGok5EVQdmJjqtX+1Sb9lRV5FgSO9RTQyR+BjYw2Hj0/XfeO3apK2Rqa7750NNPxeBnQDRZxWXFTdfe+OF3CFPm/LXbZucZIyZHcI0pc87SzDkxKwgD/U1n3/rlH062DXiwKz56eNf2rQtyo5D0IGpzSkFJbtP+9358JKjJnLP+4QWynbsAQNrVV3/8jbcOnKvv9Gu7xjsfeuRJ5fgZvB3V77/z5r7TDRPQdr1t4rE9ieRnQHCVJa8s9+a+Yy+f9quy5q7aVuwwJ5gbBSHt2fmF9uaDf/iX98LqwqVbHqlMUXxHjuBaS87c5TkAAKrn/Cs1R/bXB2uvnX1dbVKAn4Gw5laszK2AXLjt6M8PHz0zDi6cOWjJKl++efvWhfmWKHw6hCWzbFFm2VSEommVi8u69h3+2bfeEFSlGx4vyU+T48dETQXrH/165Q4ixZFmUoAFZwqIYF9QQuso2/D4NxY/8BUBIoRKa7QaY3nOEHVK8do9fz1vW1jENQaTyaBNRAsRraN49d7vVezmRYjgap3BbIqxQCKkIbN83d6sBUFawNR6s8UURz0Q0pxRueXpnJWPsbyIEBqd0Zz4O/6TMOTM2/FM3n2PcSJASY3ebDEm8o43gmlshat3fXnuxjCPqvRGswLUSwhpzqra/PnCZUFGxLUGk1nOOzaJgypz4WPfLLyf4hCAIAimMVlNyrAbIrg6/74v/Wje45wAEAQlNDqjyajcFMZNxfftfnb+xhALSIPFYtTKu1WAaqyZBdNk5EwsIr4fgJFaS6rWkhpPYSiuMaZojAmo1l3ASI0pLTuuHQSCkVpzqlbeefbHgOKkzpqmm5lBwlR6W5pe1tvXUwKC4hqjTWNUTgIACKbSme26KXX2tIGSWotdm3iWnU8CQVWGlExDYm8oRRGHKT5wM4LbFjgu6md4FxJYFam0eMucWh1ghN9KyEo4ZqAaSouYmVEGd3RVaSlTQwJn0D2imZOYnMsf8jPQNB1X/DTDMKIoyowEgxDSNM1xHEVFezJEiluX3+9StREEkR+ZSdM0y/MchBwAPACCKDIME71Wk5BaIYefQYrWl1lsXGAYRupG5YIPGYYBACgtQqIQijnQEq+KNEZTiJ+W+BnkULpMEh2AKT3qIKmipIdy4qdlKlJMSOQv0qyZfmkJhDTEH/JLyed/AXdYfySKIDnpJ5mZovC/gDu0VVLhcoqVdAJBkOjF3g0qHGY4jr/D/yIIQoiicHnZJfsip8mT/KEyayUfUv8oyv/C87xE0aIcZZHE/yKpUPSU0vyhaXoK/C+SbUJRFEIYM68U0yxxG8UlZTK71CI5/C+SnsufPtHlSixI9xr/i0TWddu+kCT558K/C6FBo9GiKAYABwBJEDaz2Zwi67saQmg2m+VYDZIkrVZrkn83ElAU1Wg0Go1GDv+uVqs1m80pKSlJ/t1PlZvk300iiST+HJG0L0kkkYRSSNqXJJJIQilEdrgIrGfgxunjZ/q0Sx7eujxHTgByeKzh7P53jtczqWUrN29bW5VvSIj5EkIjTafePFCvXrj7ya1z5Ph7+JCrtfrI8XpPwbYvbC83xxdTKzLunmuHj1wctSx+6uEVKSoFL4wJ9HjT2Q8Ona736otWbtp6X1WhOaGhDFBgXN1XTp254rEs2bZ+saxBjBtCYLj51Pune1Ul939uQ6l+hr0ArPPmhcMHj13uClgrNj/80IZ52XqF1kwo0GPt1UdO1XM5a7etnpthnoGoNqa3+q03P3CWPLJrfVVBgi+WzQgijQUf9HVdOXO+sbF7xBumWTkHaexQe31t/Ujxg1/ZMUc90HS5uT+ciBryzvbGk/vfb/HRnhG/LG874xlqqT1xoWV4dGA8xMV5aid6R3rqzpy40Ts0NuzjRGXP/Hwtl290+rNXfe6BKuPgzRsd/RMJiTi/Az7obq89daGpqcfplzmIcYNx9t6oPXuuqdc56gol4sA1LojOmxcvNXtSV//F1x/McjZerW0eU+oUhQ9M3Dx/5GJbe/+Yj2K4mWipp3b/vis3W7pHA8G49Rj4umtrrnU75U0ZxRBpccZ05sJV2x9JsR0/7Za3gAv+sbERH5e/dlmJpdfVUT3gGnHxeTnTXv1xW9Hi3V/WmI6fapXZVYQpq2LDwyrb+dNnuLjXMtToKFmz8/Pa6jPVA0qTYzIDgxMsaa5aOi/Dw/X1dY553WFoMyRMKqazla59UGO1n21gldqFEbbcxZsfIcHZ+hHFTpsiA02ZvfmxIhHV6FVDXeb6ITYcVmriY/qUOVs+Z0ipPtkq75rY1N63vxv6yu1fKil5z3M8bsoeduDgb35zWb96T0nlvcn/giAoqVKrVSrZxJ88TdEhRpNrJlFMrSVEyDAUk4gAbZzAcB2JowiQaV9QFFOptSoSR5EpLGYohqo1ipDhfgKhUJiF0KzT4oRfp0JEmuY4IYEx7QiKkmqNSqVCkcQ/9HYbKI6rMA1J4giY6c0LAABgap1eDUXB21DTROHFufkZMb7PGJen7mD9e+ed49b09TsrHlxstcjj00RQVKXRqkgSBaKsDFN73/5uEFotgqji4t6FEAIxdHP/G+fZ2Vs3rS5N+YypSRK4rCEIgiKiKEIAoQgAxBEksu0UeZbyub1hHtEYbVaDagZm870HFEUQSSUggBAgKHKvPcJ3b0LkmbDX46METGcyG0lxvPnka/vbbFU71i/Kj3WfRJViWfn0upVPy5ZFBzweb4DFDDarKS7fksgEvT5fkOYhAAiCq/Ums0FLxvIFCmw44PX6aag1WczG+II1IeMdGJ2YaLl4pF23bP19y4s+a3apRNoXQqvXGdSMczTApvl9DEBsOkNE4wlZ33DDoTcO1DmJym17P7+6KPGRvf8LoDMZVWAi6HaH9ZSfgiqbRhMl3j+J2xBZ98C1A28eavJbl2zeWqXtP1PdYVmya+fGSmviV2uq78qh1947MZKy/sk9Oxba48gZHmg8dvDQ+XYXDwGuMpeu2LlrfVWOLYYBDA+3nTr49olmOO/B3bs2VcUVZytMdJx87ZV3LlGrHv3Cooqse+G+XQT7AgU2MNbVdK3manOreyzNYsCWz8+3qaPtMlBjRmZ+uv7wifeOOPgxTl+YnR2ZCgRR2/KWP/md5U/GriHrH+9vram+2tTaJ+K1121zigocxmh6JLLhieHuq3WXb7S0M7CmmJxXMTdX9gMCfNjn7G2ou3q9uXV06PyllIUVcwtSFRopIqMwS9939fIHB7oJX8hUnGaPpX1xAQqMb7T9Rl3tteZWasJkMqoWl2daEstQC5mAa6Dr2tUb9bdGAH8xWzO3oihDYUJpVG0vWvOl760BAPBjN979Y+0tp35h4cCV0y57YVlRjkMWRZxc6ErXP/kP658EUGQ8AzevXblSf6tLZFJMWmJBabo5Gremvmj5499c/nic8gx583d/ff5uAAAQ3H3Nta2XGjtbCYvNYNQvLsq0RCVqwFNzqxauErINC1bNz9DeC/RSkc6PIOTpwLjLFcBs2RbM7xqZCPGxHNiYLa982ZoVNno0rMutWrSg2J6Q1YSnA+N9/T7cnJ2bKg4NOgNUjO98KHAh98hYgNZn5Fvo0cERNx2H713kaN/oqJcjbXnphHNw2BWUFQk1NRjy5i9dUOnA/LQ6e8HieQWOxBzo3waEPOUdm/DQpM2uBwH3uDuU8GMPyDPB8WEno9KlOvTBwZExHzWTYXYi0KTl5eak4RM9ba2t7YPjflqh8xIo8mHP6LiH09jtGt7vcfkoXuHTRZFyD/f3ek0lOTohPD7splghhkDCPm/jY1/+/LaqXNM98nJiJH4pXGsvWf1gyeoH4ylMZS5YtLVgUSLq9SG09oJlj3x9mfwMmMaUV7Uxr2rjlMSRprSydY+WrZtS5niBEubChZsLF25WpnRcl16+fnf5ekVKvy1Dl5K/bGv+sq0KyogC0l5630Ol982AJBTXZc3b+vi8GWwokTl/y575W2ZOoAK4N6xcEkkk8aeID/kZ4goV53leir+WSaQgxWtLiFksiqIyi51kcpCZXsoiiKIgHXEBIELIy6aDkIL35RBtSCnl10o+BEGQSlaUn0ESlBCCkkgixDuInlLSTKnJU4ifnlQnOfHTUuKpcSZI2REEkdNvkp5jGDZ9DZH6RyptmkUlFlKtbtsXjuPcbrf88ZN6E8MwmcQrk+QaLpcrZp0wDJPJFAEhZFkWRVGJEkkOaLc7SFEUhDQAIgAMx014PHzUWt0tzuv1yiHaYFl2YmJCOfvCcZxyR9kS7ZNErKOQCJ/PR1EURVExB04URYqivF6vSqWKtz4SdwyKojRNy0kv0YNIjB/xQuJ/AQDI4amR9JyiKPmMKNHlKrreTA0cx+GTzYuL/0VanBPO/yL1lOL8Lyjq1Gp1KEoAwAGgIclUm82SliYnryiKVqtVDv+LSqVKTU1N8r98KiCEBEFotVqdThdT5Xie1+l0Vqs1LS3tT4z/RdLzaRpxQRB8Pp9Op7un+F8ghBLl4O3RRe5ATmYEQSRmTPlZ5IhAPgr5ZYJ4CA0/WToqWxyKolOoW2IRbxdNTQRQrP7go5oQU8QUtGJqeacjaGqyUBSdvgVXerCmhsl+uLf2VEkkkcSfEpL2JYkkklAKkb9+oUD7x/p6+nxExqzCTKNajndaDLuHe9oHGFN2yawsfYL2ayLlG+5paRvwEyZHblFRdkqsd9ugQAdcA11d/W5aZcksmVVsj+ulN8hTPmd312BInV4xK0uj6EUlKFKekd7uAVqflZ+fZU74FzQUwt7hvr4RWp1RmJtu1ChxxADZ4Hhfe58PsxaU5VmJmT7FgFxgpLuly6vOKZqVa1PqJWAhONbZ3jHsYdS27ILC7BSDrPkwfbG+wZaWrpC1tDTXkXjtmAFEsi8iG3a21p44euzCcNaOv9hjNzpi9yfnHWk6/+5bH7TrKzY9VZog+wIpZ9e1I+8cG9SkaISmztHQps3LsqL6lEXKO9BYfbSmI8jxPKbtDjy8Z418mghI+8ZaLx5691SDP23jdwrSNRoF7YsQGG6+eOLgkcto5baHUxJuX0QmONx84fDRszeYou1f2JWihH3hg67uG6fferPam1L1RF6G1ZSo523lAQaH2q+fffvVw+7CnXuzFbMvbN/Vk8cud/t5FFPfHKY23zevyKakYkig+hvOntz3/iHv8q8/uyvNLC/O+w5od7+T0ttsZn3c7A4JRKR5BwGCaYzphQX5nFots12iiGitmQWzIEjgPKFcfd3tferlX/3GxvCVQ6dv3WwbqcoqiCIAUn7PQK9TW77+ocWp/TXHTtReG1mVky27jyFC6qwZRcW+Pkbuc+TTgdqWm1fgpBJH+vIRoLjOnFWY53Ea5Q5ivIAiqjKl5RYVasXPJAgeAtKal1+Sr05oaMXHIIw21A/pS9c9sDRz+MqJ+t4hd36mVaOL3lx6+GbNpctNgz4RApTUZ5cvXzm/2B5PcJTIY7biiqKs1siBwhHAe5pPHqj2Z61Zv1zJ941jIyK/FKm1F5ZXsr6BPqdcrSEt6SULlvpGT97yJqp6QAwHQkE/Z1/iUJEei57EXJ6JAIhmXwSaCfnDiKlApzOZTQaLJjA6woBsucsqojamFFfMdU+Mj/Yobl4wQ2bJHG1guOumIqxrqErnKKmoDPud/qBSUx83WPPKKj29Y3X98DMwL4g+s2iOOdR2xTchLwPnD3Ve7a696fUbrJWLcxYV6/VEzHrTo+OU2mo0WS06v8kExoIhlhGALvqmGNOYHTmFnJ6CACCYyppmVse5YGlyK5Y4iN6TfXFuO7nhq8cPXXdnrVmZbv4sNy8gKj9D3Gde0pHbtKv00TJFEREFSOAoABiKAgTyMa5X3n4hC0NRBMFQBEOBwMVzIRNBAJixiYIgCKroqo8gCFD04BJBEICiCILE89BuguXH00BMo0qflbXSYWcJ0pqqjhYA/SEEjgcoimIYiqAoiooCkHGHm7Bkli3KLJNftU8AxVAxrsET2QDFsUPXDl8csVSu3rgo36T6jA9wPqMgbpEa6659679fqx5WLXr4+ee2zNZF4H9BSBIjNegEzUHIsBwEmEYT/eodimFqkoBhRhB4luVYAdGbE8l6kMRnDZEaaTv3xm/fuupNWbP7yUdWz4rH6YISuDnDYs6IS6LaoAUcyzEMxwssJRIWEo3t9g+0nH79zbdONDt5CDCNtWLdE3u3Lyuwx9hI+ztr33/jlQPX4eI9X9j74NLUeKrJDTfuf2/f4erh/JU7HltWbtfKMp6K4jOyL6g6tWDVsz9Y+owIMIIko+wbDTarLVV79ep1TwE25AyzmorM6DzqmE6rtVlh+9DoeD87PDIYyFyRd09QYSSRIKDqtNINX/3HNQJEcIIgMCwhPPLRQBYUpu6/7hzo6SNcI27cWqLT6WLaF33p6qe+s+zzt0kcEBQnSBmHa4aCRY99a+7DAsAIgiAwMZ4IE8JqMWO8Jn3WohVLS1OU8rjFhQgzT6A9XTWv/fblPx6/Mc5oTh5Z88QL3/ncgtSoJHP8cNOJl//l/+y77mcwy8Hmjuef3rNpfkYEAQiC4qQaj73yYLaSiqoFTT/7/sPvGMo3PvHMM/NTYvQbaXWUVFbc/N0rf/OH8dSFO5772iJdTCmTgKHhtgtvvPjyvppbIzR58uq5J5/7273LbPILiAuuhkMv/9ev3rzQEwbmklNNX/zanvVzcxN1rg8EZqL11O9eeuWdc7c8nO7oyW17n39261xHQomHhImuuv1/+M83jlwf8iOaU7VffO75ZzaVKnySiqAorlLjAADgbTv+9h9+89qxptGQ+tX915/7m6cfWVdsSrhE/aIta5t//fL3X5vIWPLQ03sL0y2xPa5yNfzjuTBSpSEBAIBueOfH//nqe7W3AuDEiQ+2Pv3N+V9FTQAAGiNJREFUp7bOyTJFM1Hawu1/8c/b45SoKBApki0QCPy5vD89Pt78yivNL77IDAxwANjXr9/y4ovm2bPl5IUQXr58+YUXXqipqYmecvfu3S+99FIy/igS3G732bNnR0ZG5Lw/bbfblyxZkpWVFe8V+Hs8/ij5/nQSSSSRxNRxe8MCIYQQyuf7EO+CnPRS4TFFxFvsZMq4ag7vkL/c/ovshk+2Qn5imbWSD6lY5ZhZwB1lUKj+EqRulCCnMlKT491W3K0ecvYvEuTU6lPrOZlXDqlNXHoeXe4MqMQUINXqtn3heT4YDMrcD0snwCzLSsQTMrMwDCMIQiAQiJKG53nuDuQUKwgCwzBxqR0VDFIsy0LIACAAwPF8MBjEItfqboiiGA6H5fAPcRwXCASUoPxhGIbn+UAgoNzHC03T0gRTjp8hGAyyLMuybMzOlIY4HA4HAoEpfB8xDIOiqBz7AiGkaXqSOC0uQQAAURRpmpYmRcx+4ziOZVme56dPsiOKIsuyAADp/3sEEtfKh/ZlCtHi6B3ITI9hGIQwenrJcmEYFlexIJ6ZgGIYiiAoANI1l7gaLiWWoxAIgsTVCvnAMEwURQzDlIvHR1EUQqioCKlz5NywQu/CFOojZZRj6KUmS4hXCrijG1L2mPXE7sIUZH2q3HuNX0raT922LziOyyH7mYTElxWXf1dimYvuiGVZFsOwuPy7UrfK9+9iNK0mSRJBIAAcADiG6XU6mdkhhFqtVo5OSP0pv1byITks9Xq9cvokaYaiIjiOIwiCJEk5/l2SJLVarcFgmML+RZp+Mv27oihOx78LIZTv30VRNFH+XY7jtFpt0r+bRBJJ/HkhaV+SSCIJpZC0L0kkkYRSiGhfIBcaafzgP77zzHP/953WUVn061Ck++re/ccvPvmtf9vfk7DDMkgNNe37v1/cfN+6R579wWvVfTLeB4SsZ+D87374/NPf+GX1eLxPFkI+OHR934/+6svP/tM7w5Qicc13yWIGr+z/ydef+fZ/7G+W9YRBfBC5YH/dO//87We/9R/vyxzEeAFDo/UHfvFXT2zb/OAXvv/70wPMDEc5Qtbd+sFPv7L7S99/o86jnBguPHrh1f//+b1/88qFVs8MNRHSXSd++o3HN61etWPv9/5Y3eON64AIioIgiPEftCcWkewLHwoM3GzoZgSj1aKXucmhBtub6uud5sLMOC7kxwI33tpcdyO47F/37/v7nQXehrP1zlgGg/aMdjc3DoFUu04V9xO1os853NLUThtTUlWKB5/yrps3bg36sBSHTQk6ND7k7Wlu6OegyWyWO4hxgh3uabs5hN/3jZ+/9P3ddl/j6WuuGdVocexm/a2RMcyRmapokJnr+tn6CVFtscrnbxGZoHtsqL+/r6+/r39gaMwTZPm41jr/1TP12LIv/+z1t7+7Vd/T3joyITvQCnLB3rojxy62j/gVei9XJiINCq63lqx+wGRPOXx8TK5mqjPnrP+cxXzsVAL5X2DA4/X6mJxVs/Vad7pVMzgwNuIHDnO0PCpL9rxNj+hSzpw4Scd/oGnKKFn70OO6cyfP9SpOgUjY561/KNeif++WIvskXJ9Stv4hY0rNqWshZcyLGA4Egwwwl9gNDmO25drQxOAQBVK1igj7NKCpc9c+WGgR/dUy+V9EjvePB8a9LEuQ1lR9qpHA5XRN6pKHPp/bePTNuthkMXcQHmg8dvDQ+XYXDwGuMpeu2LlrfVWOTf6BkWnpE3+5GEcB7b6BqtWkWvZxnhgeufHOHw85CzbP0ek/21fXohh9FIvz+QQUQ3Eywc2BPCdwtKhV4QhCEjiCiHTMp9QQBMEwfKq8KggCMExZzpQPId1cUKx4xW7h3IHAczwnYCSJYSipIgACGYoBYObsC0BRFMRziUSgmJHWwUl+KYMO18tRFJzAZVAyfAT6ouWPf3P543Hl+ZhQjQpygc6m2mtDeNGKXHtMnhEosLwoBAZrjp4fsi3avnZBTtRwyBnAZ8RcALmge6Cp7kavH8+qWLKkxE5GoKpAMQzHcCTECQDwgggAQhBJtoV7BiiGoRgKaR5CyLMCFFGcVIpiexKQC4z3NFxtGqK1+XOqKvLj4kghjLrZ6ypmr1Oqch+CGe9qaGjqdAYFAFBc4yicN392jlUX44udnhi41XitZQhmz6uaX2px1p44fnnANHftsvJsS6wLLoJv8Fp946365kEhfdW2peXpylMEx8JnXoFY0Jl0RqtqpLsvRLkmPAyvTklN/KW1JKYIVKPX6lSid9wTmBhyBjhR53AkybwSBMHVePLo5QHzvE1blpen6WW4EgVf3/VTR6+7HGXz5xak3AvrcIQ6iFxotPXcsUMHT1xsC5idAwPbHntkZYEx6qeq4O5rOPHu7z640D3BW3oRsHvDqnn51k/fnyGE3lawbEvBspgVVKXkF80qvPbuT//xqk5jLVu6qdwRY4Hkw+7u+rPvHzxeU9/G1dP0li0PPLwsQ6YhhYz7/7V3XsFxHOkd78m7szlgF7uLQIAgIUaRYKbAADAHSZQo6aw6351k38m+Ktl3rnuwy3a5/HhVfrP8YFsOUl2VdKfinURRFDMIgBAIEiQYkAOJnBeb06RuPwzNo2kB6AVmQNra/9M+TPfXM9v9Tfc3/f16rKPhy9Nn6251hS1heerI0ZN7y/XyaLGBWxe/PnPmSvMUdPeNiydf27W+JE+z8Qml+Gjr5bNffV3bPJRxDY1OvnLicMUyB6fhlJngPAXFxe6OmlP/fClD5K166fhaj+4zcoKxeFZWHl0JAADJ0bu1v/76yy+v9MTsd0cy0bf27Vzn0355JvbUnzpz4eK1pnH2wcjI5IlXdq3z241zr6u4vOVb9y/fmqUlg6uwoqqwAgAAR8/98tzlhrBraLy9wR5YW3msqqLINRfXirKX7n7lnZIqrqCkxPGsyZiqZsM/UZy9YP2uVzxrqkRIGs2OfI9hvmUqaXIVbz30w5KdMiRoo91b4J6f8TW/CNZZsuHYO671wRRtcub7/fMeQUGxJm9ZxbG3i3afkBDJO/J8dvxgCkGb7EUbqk8GKg4LkDRYnT4938dG97It+14r2nREATRvdfvdWYPi5xJBGZzFFdWvFWw8KCOKt7l9HhNWMDMbGwZnYUX1a77VwYTCOrz+gFvLO5hfnKNo9bbjrrIqAZKUwV1QYNNleUZ7V24/Yl3+0nFIsCaHx+fgWd0DdIRj41s//7t9SYUiCYoxOfLd5vlOKKHM/hUbskN/6qzZ/AtJ846CMkdBFlURnNlVssZVokm7nhDJmtxFL7iLsNtBczbvMpt32YKsUZzJVVTuwra2KDFmd3G5u1in2gmSMbmKV7r0ql8VyZpdgRWugK5GZhXNOwPLnYHlOpshbfmltvxSna38TxF8ftma/LIltam5notJVE455fT/Uo/mLxBCWZbxsToqqAUAgJlyrfIgHpea4xpJklS4AU61avIoAACTF6NeKSuKghAEAAIAIZTmbNWTghCqVIt5r3x8L5itwpcKKMGBjCzGBABAVxOSJCmKAiHE4b8oiqLe8gLypyVJoigKp6z655IkuQBDqi3856b2jQVDJ56yq97mc8VnUFlOiqI88g6SJIVCIfxbVXsGRVHJZBLTnprAHgzOtQ1efVg0TScSCcxq1ScrzLsp5r+VCYcTmUwaoQwAEABBlmciEXnOVj1pLhqN4iC1BEEIhUI4JKpspQ7LhY0BTKlvmmzBXVkpGo0+yt+fb1RACNPpdDQa5ThuAfw6FSSSTqdxrpckSRAEzC79lNQRBQBIJpM4vkyW5UwmowmB7LG3WnxVGkoFazzyLxzHfVf43jQ9bTKZSZIBQALAyLL5brfd58MpixByu90sxg4Pg8Hg9XpzfO/ZxHGcyWQymUw4/Bez2exyuXw+X47v/a12c3zvnHLK6buonH/JKaec9FLOv+SUU056afaACxRjY52NDU2jxg1H9lT47Tj7puTQwN36izeTgW0Hjm7yaBUchKnprutfXWnn1h1+fe/K+ResSIqN9964evVmf8yybOOBI/tXubLZKg3FyEhbXe3tadv6k0c2O7TO2HxSCCrRwXsN9c0xz+ZdlZsKNd4njKR0uO9WXV1TR4gtqKjc+9LaQov22zqV5GRP46XrI2zJnuMvlfK6px89JZiaaK0/WzNk3b7/6I5SDckgTwlJqam2axdqm/vixqKKXdWV64vtBh37Rmb8/vnfnpssOnCkqqLo/2xKzKz8l1R08HZ97Y1vbncMBRMZrO8gmbHem5c//7qlf3hgJKkZBUQJPuy4euZU04Ph/gdBnMNQ5Fiw/15zZ8K54cVyW7z965p23G9LAAAAY1NDLXUXvrnX1tU9kVH0PVNGDnY01V+ra2wdHB+PZtNKLClSfLj1VvsEF1i50qP0t7Q8CEYlreksYnC49Wbtpca7XT2DEXnJYSMw2NF8/frla/d6h0Zm9DygQxFnOhuutUXyytevsKYfNrc8nI5p/jB/r1Db1dpbN6439YxMRBbWMeJDd263DgXjzyf/heIsgQ2VB1mGbkjg7vimHUUV+9+UmeYRLUlppDWwuvq174P6pgGs62EyERubTDrLNmzZ5h1qiJ2/cb8fvvgC9vklvLNw095jMtfYPEHrvQectpVuqjIC4sKgDrloUJZmxkZSRu+6rVXF6fvXGtuHp5MrvA5t888pS/7qHQfSCWNH8FlkvJDWko17rDAauZM96ic7Q4yzfNcbAdpiAUPNdQ1tiYQoKwjMgYOJd9Z8+pvPLrVNyghQRue66u//4PiOUg/W91ZgWrb9kM8w09OId/nTEscuffyfTezWN4rKn20EZLa+RlA0b3U4bRYDhQ3Noo0mh9djNzJjWr6KCdbIu71OM0sCvDPXJCmVyhAmE8tyvIk1G6SJmRQAZlx7NMvZnHYrz1L6M2AIzmRzuGw8S+rAl4IQZuIJkjEbTFYeGjlKScShomjM5KA4g5V12S08HXom5weyJqsTOM0sjdnnhGC4+cyd39VPTjt9+06se3Wr0zFfVg8AAACCZM0evxlIM70jY6MZa1m+1cjOOXbN5bvf+asdfwjRo/I0wzLY6ynO7ODMNn5hLjvTc+43F2d8+9/cXubWP09qTs3X1/RqHUJQkURJhoBiWJaZhf6yKAuPfy0RK2qB0q11z/VdL0oIQkUSJQURNMMw2W1R49yOynerK9/FtqVIkihJiKBZloGxkaZL51smzC8dqyhy6YQcXYTk5HQ4leit/d19enP1vr2rHUubbPotekaMCJiZftj02b990jDGbXnjp396eJVp7ndBFqIYhucNKJgUhHQymU5JjMuzhDy150cESZotZiKkZJKxVDqVkWizhdThxNolF8xMdtf9+j8+uxVx7zn5ozd3v6BnSDnReeHjf/3Vl8OeY3/y9h7z1PWbU47Ko4e2rMgzzNdhE931C18fLUjSROsXH398qiG+880fbd1Q/Dzst5vFvyAop6NjAz2dvYMjQaG7J2DhV3gt7JyIBiQkQsO997of9g8mot09Q9aA12mZZe5JGj1lVe//sur9+Vsop6JTw/c7egdGRpXerr6i5X6fg59jlJAmi9XnN3b2td5I9gZHp7m1hwuz8F2KkIxM9vX0PhgcGU20dZWi0uU+m16vASkRHOrt6no4OCBn8voGvFy+06LZNwmSYWyBAkNXe1fThRGQCFGBF/LMmvNLpXRseqy79+GDoVFk6ehzr1jud/H6vthJo2/V4b/4h8MAACCnQpMD7T0Dw8Nh2dH2ILDW53HwWr40LWuPv/+Px98HijB65/OPmsZMq7ag2PCDB2mvL99pmmtEWFZVv/f31e8tyKqcCI6OTXQNjo+Avu6OPu+GgMtqnPe2GE/R+jUbI3bbS7s3F5meB7zUrP5FESIj7XdvtfRHRDl9p5m3+AvzzHP7F5icGbxTf7VjPC2RQkvDnbx9u+yWRcOMUCYy3nnt8s2BiCRTvQ1NHkOVy8HP9RKgLe7S9dump2tu3h+yLd9yfN8LWThyJCcjQ3dv3ukaikAxce3aTZoP6Odf0sGB1ua6trGYQCidt1v83l0W7fwLIBlrwbota2dqrrdPsMVb9lSsyLPh46nxhDLRyc7mps7R8XiKaKm76TI4vXr7lyclhIc6blxtnRQzwtj9uus++z67tv7lkRACigg4Xhxpb5zq5vJWVOyu3ms1sjrtXhBDg3caau9FGYgG7jVcz/cd3IThXwDr33bivW26tGiBIhBCoijG4/HvSv7R9HTbRx+1ffCBMDwsAeDZt+/wBx/YV63CKYsQunHjxi9+8YvGxsa5rzx58uSHH36Yyz+aTaFQqLa2dnx8HCf/yOPxbNu2raCgIJd/9K12c/lHOeWU03dRjyYsoiiGQiH895VKu8iKzyCKIkJobniKSrKgaRpzJqWSCgAAWfAZQqFEOp2C8BGfQZJmwmF8PkMkEsGhuoiiODMzowef4TFGR7/JhSAIKp9BPxORSER9v837x6l8hkgkYjAYFsBnUEEW6XR63rJqF02n0ziAhdmKEwSRSqXmLa72c3UFkK2h/21XEAR1MC6yKm2lkjEeDWOKoniex2+iSq+gaRpzgocQUjE/JtOsO7hVggZFUTRNY072FEXJZDIAgDmqfUpkOs0xDEMQEAAFAJokeZ7HLI4QMhqNOE+JoiiVP4DZKnxlMhn1MerK+0AI8TyvnwlRFGla/bg8z8NUFEVdhuOscZ6S6ptIksTxTRBChBDDMAsAzajFAQA0TbMsi8OXIkmSZVkc1se8diGEBoNh8VVpK1EUJUl65F/U/wAfRifLMoQwq/iLCseb43oVFoUQwl+XqrAlgiAwmwEAQAYDQ9M0QajzKIqiDByHWRxCyHEczqijKMpgMOC3Cl/qMMBZ5C9YoigCAHQ1kUql1FkqTvxFHbQLCIs8nmXjlIUQiqLIcdyC4y9qU3GeG0VRCCE1zrh4fl0mk9EklKOhEEIEQSiK8uhBZHWTxBPSsE1qbdnWubA2ELP81sOW5npOmrEYLc2/nG3BJX6wGo6g561LPB7LufhuTjnlpJdmXxAhpEipeCwukCaH1cxi5fohWUjGIgmFNdsdOOfN4QlBKR0PR1MEb3fZsI68RFDOJGLxlMzaXDZjtskHSBaSsVhSoniXw0zr+2ZAciYVj8Vlxmy1mrU8+UytHcqZRDQaT8ska7bYLDxLLfBU7jlsKEIqHo0lBEjxFrvNYtQ9K/QpQSkZC0UF2mKza7h56FuEoCwko/EUYi02s1GPnJYnbCnpeCQaT4mINtudVhO31E9VI83mX5AshAduX/nii/P9ecf+/IdHyzGOGVPS4e7G05982ojWHP/Jz14t0WZuhIT4eNulX/37mW77rp/89R/vnD9REUqJib5rpz/7uiW85p2/+fGOPCaLliApFeq/de7TzxsmPQf/9ucv+4065nDAdLi36eJvT11Jr3r57T94Za1b09qRkgo+qD/7RU1zX4z1rd156MSBTQHHvPvas7Mhhodv15w9903bZIYp3HLw5GuHljTrBQnh4daaT/7ls6HC1//oz763RfsNR48tSelgZ/3pU+dvoTVvvXuisjRPx/0mcri37vPTF1sG4jK1fM/33jy0rdSVZaainIrEJZY3GZ+pa5rNvyiSGA9FZKs932U3YbZPiobC0SRbUObQMt8HJsPRUFzJL1+OG7+S06l4NEa4C3wSl/VWTiQkU9GYaPX7FUqznKjZBFPTMwnC4PJb7dqbQrIQHugYkgIHf/x6odR7/XZ379TyPFu+lg4GCRPDD/umue0/+MsKtvN0bW/TvanyvYGl+1KKktPTSYp1F/hnOYlYM0FRCIfCpNvtFS0GnBEhhUd7+/qGQ2kEAEFxzoKV5cVenF24AMDJeze7BP/xn/10O13zT5+09g4U+V3FWXwsgMmR21frR00VO7esyDc/ww/Xs90tbbQWbqzcayRTF6Zw3R/rKd184ASQL3dEtGoeAIByFK2ufgVIX51vw4QYMBbPiq3VgL568VI6a9dNmtyFm/bsV8Dl2n7dg1O0Y8Xm3W5SiLXrwWdQlFgoTJhcDk+ROxG0Mg9nIqIkA4OG3zFhOpFKiYTN6zS5bD4rOzA9MZkGAWwYxqJFOsoqdvmo6YfXZnS2RPH2sh0HOJo934pHlVXSkYmhB10jUYgAyZoLGU+xP8+K5STS41MZzuLNy+NZQ5lX6YkkYkkIsEIDAAAgh7q/+eLiPWrDMbtlrlS9JdAc3pQkSTKr+C9JkpTW5xsDAAgCZLd1iCAIglgwvYUgwNJFvUmSpPRaxyOEFEkiSEDSDE1SFIlEEWCfoIcnqCiKDEmaJkmSZmgAgCTgMAa1E0GSRDaf0eVEarBt5G5fLMnbyl/0ryvmecz1A0FQFEUQJAB4oBuDf031yTXV+E37vURRhCRBMRQAwMiSSJKhomDAspGUFhQp2FVT0yaV7DxSudqrxRHwi9EzSrJEQni0/erZy/enmReqTry6tdiYTYwkJxwRBMGyLAGBIomSLMsKwbBau06SpimagikJQihmJKSQrJbTo28XEmaG7l45e7UrYdu45/DeF4uyuSeCoS1ua5HCCJzRbabn9S2ph43nzlz4Zsq58/WX963NJryTGmy5cqWmuT8sI0Bx1tKKA4d2rvE7cKI2HMeRMK1IEgB0SlAYE0PjoKnk6d6rV+sabz4gA5uOVm5c5njGcCnwzPwLQZscxRV7jpRkCJvPzeoaiv+uiqRpa54D9kdDYw8NUjAkWFY6DfgENSxRvM1sMYDhsemId2YsKiBbYYH+27xos6t0S5VxpcQ6fW4DQ2bD3aU41lOW78E+Np7NK9u031CQ4bzFeTwpx/Atsa7iFysPBTaIEAGSYiyugB2XmWAIBPjknZnRyVgRaB9lLFutdpyJCGUgMxN9A3HT4U2b1/itz0O+wH8BanreBP1uhzYAAAAASUVORK5CYII=;" vertex="1" parent="1">
                    <mxGeometry x="550" y="10" width="373" height="548" as="geometry"/>
                </mxCell>
            </root>
        </mxGraphModel>
    </diagram>
</mxfile>